<svg xmlns="http://www.w3.org/2000/svg" width="60" height="60" viewBox="0 0 60 60"><path d="m30 7.696-.823 2.648-6.033 19.401-.08.256.08.256 6.033 19.4.823 2.648.823-2.648 6.033-19.4.08-.256-.08-.256-6.033-19.401L30 7.696Z" opacity=".15"/><path d="M31.647 10.087 30 4.791l-1.647 5.296-6.033 19.401-.159.512.159.512 6.033 19.4L30 55.208l1.647-5.296 6.033-19.4.159-.512-.159-.512-6.033-19.401Z" opacity=".05"/><path fill="#f8dda3" d="M30 10.599 23.967 30 30 49.401 36.033 30 30 10.599z"/><path d="M30 49.401V30h6.033L30 49.401ZM23.967 30H30V10.599L23.967 30Z" fill="#d09c31"/><path d="M23.967 30H30v19.401L23.967 30ZM30 10.599V30h6.033L30 10.599Z" fill="#f8dda3"/></svg>