<svg xmlns="http://www.w3.org/2000/svg" width="1250" height="715" viewBox="0 0 1250 715"><defs><linearGradient id="a" x1="112.393" y1="-752.01" x2="206.333" y2="-493.893" gradientTransform="scale(1 -1) rotate(19.999 179.624 734.993)" gradientUnits="userSpaceOnUse"><stop offset="0" stop-color="#d09c31"/><stop offset="1" stop-color="#f8dda3"/></linearGradient><linearGradient id="b" x1="2217.741" y1="-2712.791" x2="2402.696" y2="-2204.5" gradientTransform="scale(.483 -.483) rotate(19.995 -1954.876 -4680.926)" gradientUnits="userSpaceOnUse"><stop offset="0" stop-color="#f66"/><stop offset="1" stop-color="red"/></linearGradient><linearGradient id="c" x1="620.734" y1="664.33" x2="620.734" y2="434.136" gradientUnits="userSpaceOnUse"><stop offset="0" stop-color="#404040"/><stop offset="1"/></linearGradient><linearGradient id="d" x1="617.675" y1="678.657" x2="617.675" y2="417.339" gradientUnits="userSpaceOnUse"><stop offset="0" stop-color="#f8dda3"/><stop offset="1" stop-color="#d09c31"/></linearGradient><linearGradient id="f" x1="608.572" y1="501.08" x2="608.572" y2="470.353" gradientUnits="userSpaceOnUse"><stop offset=".1" stop-color="#fff" stop-opacity="0"/><stop offset=".166" stop-color="#fff" stop-opacity=".058"/><stop offset=".292" stop-color="#fff" stop-opacity=".212"/><stop offset=".467" stop-color="#fff" stop-opacity=".46"/><stop offset=".68" stop-color="#fff" stop-opacity=".797"/><stop offset=".8" stop-color="#fff"/></linearGradient><linearGradient id="g" data-name="New Gradient Swatch 13" x1="624.999" y1="215.691" x2="624.999" y2="395.91" gradientUnits="userSpaceOnUse"><stop offset="0" stop-color="#d09c31"/><stop offset=".55" stop-color="#eac985"/><stop offset=".55" stop-color="#9c7525"/><stop offset="1" stop-color="#d09c31"/></linearGradient><linearGradient id="h" data-name="New Gradient Swatch 14" x1="624.999" y1="395.911" x2="624.999" y2="219.38" gradientUnits="userSpaceOnUse"><stop offset="0" stop-color="#f8dda3"/><stop offset="1" stop-color="#9c7525"/></linearGradient><linearGradient id="i" x1="624.984" y1="29.046" x2="624.984" y2="178.059" gradientUnits="userSpaceOnUse"><stop offset="0" stop-color="#ebebeb"/><stop offset=".5" stop-color="#fff"/><stop offset=".5" stop-color="#d6d6d6"/><stop offset="1" stop-color="#ebebeb"/></linearGradient><linearGradient id="j" x1="624.984" y1="178.059" x2="624.984" y2="29.046" gradientUnits="userSpaceOnUse"><stop offset="0" stop-color="#fff"/><stop offset="1" stop-color="#ccc"/></linearGradient><linearGradient id="k" x1="624.985" y1="164.019" x2="624.985" y2="43.087" gradientUnits="userSpaceOnUse"><stop offset="0" stop-color="#131313"/><stop offset=".5"/><stop offset=".5" stop-color="#393939"/><stop offset="1" stop-color="#131313"/></linearGradient><linearGradient id="l" x1="624.985" y1="164.019" x2="624.985" y2="43.087" gradientUnits="userSpaceOnUse"><stop offset="0" stop-color="#484848"/><stop offset="1"/></linearGradient><radialGradient id="e" cx="608.409" cy="490.065" fx="608.409" fy="490.065" r="22.828" gradientUnits="userSpaceOnUse"><stop offset="0" stop-color="#f0f0f0"/><stop offset=".179" stop-color="#e7e7e7"/><stop offset=".471" stop-color="#cecece"/><stop offset=".5" stop-color="#ccc"/><stop offset=".583" stop-color="#c3c3c3"/><stop offset=".719" stop-color="#aaa"/><stop offset=".889" stop-color="#838383"/><stop offset="1" stop-color="#666"/></radialGradient></defs><path d="m643.175 399.448-127.58 46.43c-33.93 12.35-51.49 50.01-39.14 83.94l46.43 127.58c12.35 33.93 50.01 51.49 83.94 39.14l127.58-46.43c33.93-12.35 51.49-50.01 39.14-83.94l-46.43-127.58c-12.35-33.93-50-51.49-83.94-39.14Zm128.1 167.55c11.89 32.68-5.02 68.94-37.69 80.83l-127.58 46.43c-32.68 11.89-68.94-5.02-80.83-37.69l-46.43-127.58c-11.89-32.68 5.02-68.94 37.69-80.83l127.57-46.43c32.68-11.89 68.94 5.02 80.83 37.69l46.44 127.58Z" opacity=".05"/><path d="m644.005 401.728-127.58 46.43c-32.68 11.89-49.58 48.15-37.69 80.83l46.43 127.58c11.89 32.68 48.15 49.58 80.83 37.69l127.58-46.43c32.68-11.89 49.58-48.15 37.69-80.83l-46.43-127.58c-11.89-32.68-48.15-49.58-80.83-37.69Zm124.99 166.1c11.44 31.42-4.82 66.28-36.24 77.72l-127.58 46.43c-31.42 11.44-66.28-4.82-77.72-36.24l-46.43-127.58c-11.44-31.42 4.82-66.28 36.24-77.72l127.58-46.43c31.42-11.44 66.28 4.82 77.72 36.24l46.43 127.58Z" opacity=".1"/><path d="m644.835 404.008-127.58 46.43c-31.42 11.44-47.68 46.3-36.24 77.72l46.43 127.58c11.44 31.42 46.3 47.68 77.72 36.24l127.58-46.43c31.42-11.44 47.68-46.3 36.24-77.72l-46.43-127.58c-11.43-31.42-46.3-47.68-77.72-36.24Zm121.88 164.65c10.98 30.16-4.63 63.63-34.79 74.61l-127.58 46.43c-30.16 10.98-63.63-4.63-74.61-34.79l-46.44-127.58c-10.98-30.16 4.63-63.63 34.79-74.61l127.58-46.43c30.16-10.98 63.63 4.63 74.61 34.79l46.44 127.58Z" opacity=".2"/><path d="m645.665 406.288-127.58 46.43c-30.16 10.98-45.77 44.45-34.79 74.61l46.43 127.58c10.98 30.16 44.45 45.77 74.61 34.79l127.58-46.43c30.16-10.98 45.77-44.45 34.79-74.61l-46.43-127.58c-10.97-30.16-44.45-45.77-74.61-34.79Z" opacity=".3"/><path d="m646.526 408.366-127.765 46.497c-28.952 10.535-43.924 42.662-33.388 71.604l46.497 127.765c10.535 28.952 42.662 43.924 71.604 33.388l127.765-46.497c28.952-10.535 43.924-42.662 33.388-71.604L718.13 441.754c-10.535-28.952-42.652-43.924-71.604-33.388Z"/><path d="m648.365 413.698-127.58 46.43c-26.08 9.49-39.57 38.43-30.08 64.51l46.43 127.58c9.49 26.08 38.43 39.57 64.51 30.08l127.58-46.43c26.08-9.49 39.57-38.43 30.08-64.51l-46.43-127.58c-9.5-26.08-38.43-39.58-64.51-30.08Z" fill="url(#a)"/><path d="m650.645 419.958-127.58 46.43a43.797 43.797 0 0 0-7.94 3.84 43.429 43.429 0 0 0-12.4 11.53c-7.4 10.23-10.3 23.5-7.06 36.34.36 1.43.79 2.85 1.31 4.26l46.43 127.58a43.143 43.143 0 0 0 9.04 14.75c2.9 3.11 6.23 5.76 9.85 7.89 2.41 1.42 4.96 2.61 7.6 3.54 1.32.47 2.66.88 4.02 1.22a43.36 43.36 0 0 0 25.46-1.3l127.58-46.43c22.56-8.21 34.31-33.39 26.09-55.96l-46.44-127.59c-8.21-22.57-33.4-34.31-55.96-26.1Z" fill="url(#b)"/><path d="m571.857 538.321-.764-89.412 29.633-10.784a431.071 431.071 0 0 0 31.708-3.989l17.052 97.108a529.895 529.895 0 0 1-77.629 7.077Zm.089 10.321.989 115.688c24.294-.378 48.706-2.142 73.135-5.286l24.304-8.845-19.104-108.791a540 540 0 0 1-79.325 7.233Z" fill="url(#c)"/><path d="m735.167 524.53-1.332-3.659-3.531-9.7-1.316-3.616c-21.753 7.213-43.984 13.04-66.208 17.352l-15.694-89.369c14.134-2.801 28.434-6.457 42.707-10.822a44.218 44.218 0 0 0-4.525-2.635c-10.407-5.261-22.873-6.399-34.625-2.122l-49.919 18.167-29.633 10.784-10.287 3.744-3.858 1.404.687 80.436a529.654 529.654 0 0 1-57.596-3.716l1.476 4.054 3.942 10.833 1.471 4.042a547.839 547.839 0 0 0 50.862 2.847l.922 107.941c-3.273-.02-6.549-.075-9.826-.15a42.944 42.944 0 0 0 3.56 4.344c2.9 3.11 6.23 5.76 9.85 7.89 2.41 1.42 4.96 2.61 7.6 3.54 1.32.47 2.66.88 4.02 1.22a43.36 43.36 0 0 0 25.46-1.3l46.695-16.994 24.305-8.845 9.849-3.584 3.693-1.344-18.012-102.576c23.257-4.499 46.519-10.599 69.262-18.165Zm-142.415-81.892a440.105 440.105 0 0 0 36.535-4.09l15.718 89.51a528.116 528.116 0 0 1-69.319 6.318l-.729-85.256 17.795-6.483Zm63.235 211.17a653.61 653.61 0 0 1-79.223 6.588l-.923-107.971a546.2 546.2 0 0 0 72.285-6.59l18.294 104.174-10.433 3.8Z" fill-opacity=".25"/><path d="m498.567 488.799-3.848 24.349c-1.109-8.448.327-16.889 3.848-24.349Zm146.438 39.26a528.116 528.116 0 0 1-69.319 6.318l-.729-85.256 17.795-6.483a440.105 440.105 0 0 0 36.535-4.09l15.718 89.51Zm-65.491 2.344a524.613 524.613 0 0 0 61.004-5.559l-14.384-81.915a444.706 444.706 0 0 1-32.57 3.525l-14.72 5.363.671 78.587Zm83.267-5.497c22.224-4.312 44.455-10.139 66.208-17.352l-22.383-61.496a43.287 43.287 0 0 0-6.237-11.437l24.739 70.135a530.838 530.838 0 0 1-59.199 15.586l-14.358-81.762c13.958-2.897 28.062-6.579 42.122-10.968a44.058 44.058 0 0 0-3.878-2.897c-14.273 4.365-28.573 8.022-42.707 10.822l15.694 89.369Zm-14.655 20.928 18.294 104.174-10.433 3.8a653.61 653.61 0 0 1-79.223 6.588l-.922-107.971a546.2 546.2 0 0 0 72.285-6.59Zm13.929 101.653-17.078-97.254a550.25 550.25 0 0 1-65.241 5.948l.857 100.257a650.086 650.086 0 0 0 74.448-6.395l7.015-2.555Zm90.99-73.839-17.878-49.118c-22.744 7.565-46.005 13.667-69.262 18.165l18.012 102.576 3.693-1.344-17.238-98.168a556.589 556.589 0 0 0 63.319-16.668l21.894 62.07a43.238 43.238 0 0 0-2.54-17.513ZM556.948 454.057l-3.857 1.404.641 75.11c-18.4-.316-36.881-1.648-55.189-3.906l1.497 4.112a529.888 529.888 0 0 0 57.595 3.716l-.687-80.436Zm.842 98.496a547.148 547.148 0 0 1-50.862-2.847l1.47 4.039a551.85 551.85 0 0 0 45.554 2.63l.856 100.213a607.518 607.518 0 0 1-8.424-.168 43.155 43.155 0 0 0 2.501 3.924c3.277.074 6.553.129 9.826.15l-.922-107.941Z" fill-opacity=".1"/><path d="m733.835 520.871-3.531-9.7c-23.422 7.776-47.017 13.869-70.657 18.27l-17.03-96.981c14.254-2.686 28.484-6.17 42.652-10.38-10.407-5.261-22.873-6.399-34.625-2.122l-49.919 18.167a431.071 431.071 0 0 0 31.708-3.989l17.052 97.108a529.895 529.895 0 0 1-77.629 7.077l-.764-89.412-10.287 3.744.732 85.732a530.625 530.625 0 0 1-60.023-3.554l3.942 10.833a541.645 541.645 0 0 0 56.17 3.04l.988 115.672c-3.521 0-7.037-.04-10.552-.102a43.924 43.924 0 0 0 10.232 8.304c2.41 1.42 4.96 2.61 7.6 3.54 1.32.47 2.66.88 4.02 1.22a43.36 43.36 0 0 0 25.46-1.3l46.695-16.994c-24.429 3.143-48.841 4.908-73.135 5.286l-.989-115.688a540.012 540.012 0 0 0 79.325-7.233L670.374 650.2l9.849-3.584-18.79-107.01c24.225-4.506 48.403-10.752 72.402-18.734Z" fill="url(#d)"/><path d="m741.346 559.705.883 3.007-4.967 45.976-5.24 1.535 5.458-42.098-16.219 4.765c-1.124.329-1.894.842-2.308 1.544-.416.698-.532 1.578-.356 2.633l.547 3.206-3.698 1.09-3.496-13.029 29.396-8.629Zm-92.626 44.918c.414 3.509.5 6.74.263 9.694-.237 2.954-.868 5.535-1.893 7.742-1.02 2.205-2.453 3.985-4.294 5.337-1.839 1.357-4.149 2.201-6.93 2.529-2.908.346-5.425.077-7.552-.811-2.125-.883-3.925-2.282-5.407-4.19-1.478-1.909-2.66-4.281-3.539-7.112-.886-2.835-1.537-6.015-1.953-9.545-.421-3.529-.527-6.757-.33-9.687.204-2.927.8-5.484 1.792-7.664.997-2.181 2.427-3.938 4.305-5.277 1.871-1.342 4.269-2.18 7.198-2.528 2.761-.325 5.191-.058 7.295.811 2.102.865 3.905 2.241 5.401 4.128s2.707 4.232 3.63 7.037c.919 2.807 1.59 5.985 2.013 9.534Zm-9.141 9.357c-.124-2.404-.37-5.134-.734-8.186-.36-3.053-.762-5.76-1.196-8.118-.439-2.357-.962-4.331-1.568-5.923-.611-1.59-1.341-2.775-2.192-3.548-.849-.768-1.856-1.091-3.02-.951-1.18.14-2.099.684-2.755 1.638-.658.949-1.104 2.272-1.349 3.963-.239 1.694-.302 3.736-.186 6.133.116 2.396.355 5.123.715 8.177.363 3.047.767 5.758 1.216 8.127.449 2.37.984 4.35 1.606 5.953.619 1.598 1.357 2.791 2.211 3.573.85.784 1.866 1.103 3.048.968 1.185-.142 2.1-.696 2.744-1.656.644-.96 1.081-2.291 1.308-3.991.231-1.702.286-3.752.155-6.159Zm70.98-11.958-.078 2.043c-.039 1.489-.429 2.712-1.167 3.663-.736.956-1.744 1.58-3.025 1.873l-14.582 3.352 4.895-7.4a303.506 303.506 0 0 0 4.315-6.622 134.33 134.33 0 0 0 3.203-5.325c.896-1.59 1.63-3.02 2.197-4.301.563-1.279.982-2.465 1.254-3.555.276-1.092.413-2.124.419-3.088 0-.967-.109-1.939-.333-2.918-.371-1.606-1.009-2.984-1.916-4.127-.907-1.143-2.07-2.025-3.49-2.64-1.417-.621-3.071-.96-4.968-1.031-1.89-.068-4.008.169-6.352.704-2.283.525-4.231 1.215-5.847 2.071-1.616.855-2.907 1.799-3.869 2.84-.964 1.036-1.615 2.127-1.965 3.283a6.568 6.568 0 0 0-.124 3.438c.258 1.122.67 2.029 1.238 2.726a5.097 5.097 0 0 0 2.076 1.531c.816.326 1.74.49 2.78.485 1.042 0 2.152-.142 3.334-.411-.825-3.567-1.012-6.361-.578-8.38.434-2.019 1.711-3.273 3.831-3.762 1.528-.349 2.854-.075 3.969.823 1.121.902 1.955 2.547 2.504 4.929.373 1.611.577 3.153.615 4.636.039 1.483-.13 3.029-.511 4.639-.377 1.609-1.009 3.356-1.885 5.227-.875 1.876-2.054 4.026-3.538 6.448l-7.086 11.57 1.482 6.451 29.583-6.803-2.687-13.219-3.697.85Zm-101.171 26.493c-.67.04-1.219-.017-1.657-.167a2.18 2.18 0 0 1-1.053-.739c-.26-.341-.454-.769-.577-1.282a9.782 9.782 0 0 1-.25-1.777l-2.327-38.437-7.17.433-4.309 3.589a39.924 39.924 0 0 1-2.851 2.169 31.039 31.039 0 0 1-2.498 1.564c-.781.437-1.52.795-2.211 1.077a27.78 27.78 0 0 1-2.001.735 6 6 0 0 0 .418 1.921c.231.576.53 1.058.889 1.454.36.396.77.695 1.232.884.459.195.952.272 1.475.242a4.238 4.238 0 0 0 1.893-.601c.62-.364 1.242-.856 1.875-1.482a23.654 23.654 0 0 0 1.956-2.221 97.142 97.142 0 0 0 2.135-2.862l1.944 32.116c.052.81.029 1.486-.063 2.027-.097.542-.269.977-.521 1.307-.252.33-.573.572-.96.73-.386.163-.854.26-1.394.29l-5.26.318.204 3.413 26.454-1.601-.208-3.411-5.166.311Z" fill="#fff"/><circle cx="608.409" cy="490.065" r="22.828" fill="url(#e)"/><ellipse cx="608.572" cy="485.717" rx="17.904" ry="15.364" fill="url(#f)"/><path d="m565.385 613.548-25.78-70.82c-2.03-5.57-8.18-8.44-13.75-6.41l-27.29 9.93 33.12 90.98 27.29-9.93c5.56-2.03 8.43-8.19 6.41-13.75Z"/><path d="M525.875 568.198c-1.21-.36-2.38-1.48-3.93-3.23l-5.98-6.86c-.44-.5-1.14-1.14-1.66-1.39-.74-.35-1.55-.37-3.57.37l-1.1.4 4.42 12.13 4.93-1.79 1.48 4.07-8.58 3.12-7.37-20.26 4.17-1.52c3.8-1.38 5.21-1.41 6.92-.57 1 .48 1.85 1.19 3.26 2.8l6.06 6.96c.9 1.04 1.39 1.22 1.85 1.32.61.13 1.1.18 2.93-.49 1.74-.63 2.38-1.13 2.61-1.66.15-.31.2-.87-.17-1.88l-2.19-6.02c-.43-1.17-.78-1.44-1.15-1.62-.36-.18-.99-.26-4.13.8l-1.57-4.31c4.47-1.53 5.72-2.27 7.24-1.54 1.09.53 1.92 1.31 2.74 3.58l3.02 8.29c.87 2.39.83 3.82.32 4.98-.69 1.54-1.88 2.5-4.96 3.62-2.89 1.04-4 1.18-5.59.7Zm19.12 15.12 1.98 5.44-15.4 5.61-3.26 1.19-4.44 1.62 1.75 4.81-3.46 1.26-5.14-14.12 3.46-1.26 1.91 5.24 4.44-1.62-4.62-12.7 3.15-1.12c.99-.36 1.71-.36 2.91-.04l14.23 3.78c1.42.35 2.08.77 2.49 1.91Zm-3 1.89-15.26-4.15 3.36 9.23 12.14-4.42-.24-.66Zm-10.32 19.1c-.13.31-.09.57.09 1.08l.55 1.5c.18.5.32.73.62.88.36.2.74.2 1.95-.24s1.49-.68 1.65-1.07c.12-.31.09-.57-.1-1.07l-.55-1.5c-.18-.5-.33-.73-.62-.88-.37-.2-.74-.2-1.95.24-1.2.43-1.49.68-1.64 1.06Zm-2.85 17.09 9.92-3.62 12.36 1.71 5.06-1.84.73-1.63-6.3-17.32-8.38 3.05 1.5 4.11 4.86-1.77 3.57 9.82-2.69 1.04-12.17-1.83-10.12 3.7 1.66 4.58Z" fill="#fff"/><path d="M285.011 388.639c-11.646-.116-22.434-2.644-32.062-7.515-4.58-2.292-9.124-5.247-13.535-8.799-4.547-3.661-8.729-7.573-12.431-11.628-3.857-4.224-7.411-8.396-10.563-12.399a12862.352 12862.352 0 0 1-16.819-21.379c-1.913-2.439-4.224-5.245-6.874-8.348-2.527-2.958-5.479-6.117-8.787-9.402 4.355-2.02 8.446-4.866 12.25-8.528 8.496-8.186 12.803-18.849 12.803-31.693 0-13.094-4.561-23.481-13.555-30.871-10.398-8.638-24.907-13.031-43.092-13.031H87.099a7.95 7.95 0 0 0-7.95 7.95v1.902a7.95 7.95 0 0 0 7.95 7.95h2.472c1.189 0 1.987.335 2.848 1.195.899.9 1.305 1.785 1.376 3.022v105.209c-.067 1.162-.444 1.951-1.322 2.783-.934.885-1.774 1.246-2.902 1.246h-2.472a7.95 7.95 0 0 0-7.95 7.95v1.902a7.95 7.95 0 0 0 7.95 7.95h57.828a7.95 7.95 0 0 0 7.95-7.95v-1.902a7.95 7.95 0 0 0-7.95-7.95h-2.473c-1.22 0-2.092-.365-3.01-1.261-.876-.852-1.215-1.628-1.215-2.774v-38.873a77.335 77.335 0 0 1 2.275 3.387c.075.118.153.234.235.348 2.478 3.472 8.062 11.722 16.596 24.521 8.695 13.043 14.491 21.644 17.715 26.287 13.184 20.087 29.514 33.835 48.538 40.865 8.935 3.353 18.963 5.06 29.767 5.06 12.354 0 24.174-2.779 35.133-8.259a7.95 7.95 0 0 0 4.394-7.11v-1.902a7.95 7.95 0 0 0-7.871-7.95ZM154.437 287.838c-4.305 2.292-8.911 3.406-14.077 3.406h-2.132v-41.929h6.507c5.01 0 9.18 1.669 12.751 5.103 3.477 3.349 5.169 8.289 5.169 15.1 0 12.285-4.676 16.344-8.219 18.319Zm996.415 39.509c0 .693-.089 1.364-.255 2.005l-8.693 38.549a7.949 7.949 0 0 1-7.755 6.201h-98.537a7.95 7.95 0 0 1-7.95-7.95v-1.902a7.95 7.95 0 0 1 7.95-7.95h2.473c1.189 0 1.986-.334 2.843-1.191.905-.905 1.31-1.789 1.382-3.028V246.654c-.113-1.141-.326-1.668-.404-1.828-1.04-.93-2.504-1.98-3.821-1.98h-2.473a7.92 7.92 0 0 1-5.176-1.916v21.55a7.95 7.95 0 0 1-7.95 7.95h-1.903a7.95 7.95 0 0 1-7.95-7.95v-2.283c0-6.26-2.447-8.459-4.841-9.785a7.075 7.075 0 0 1-.189-.108c-1.592-.939-3.671-1.464-6.18-1.56h-17.402v103.534c.067 1.188.449 2.02 1.305 2.852.865.842 1.683 1.17 2.919 1.17h2.282a7.95 7.95 0 0 1 7.911 7.16l.19 1.902a7.95 7.95 0 0 1-7.91 8.74H932.89a7.95 7.95 0 0 1-7.95-7.95v-1.902a7.95 7.95 0 0 1 7.95-7.95h2.473c.916 0 1.731-.2 2.731-1.172.898-.874 1.354-1.744 1.494-2.869V248.743h-17.633c-4.855.124-7.04 1.819-8.26 3.083-1.249 1.296-2.91 3.574-2.91 8.369v2.283a7.95 7.95 0 0 1-7.95 7.95h-1.902a7.942 7.942 0 0 1-6.563-3.462 7.94 7.94 0 0 1-6.563 3.462h-1.903a7.95 7.95 0 0 1-7.95-7.95v-2.283c0-6.26-2.447-8.459-4.841-9.785a5.789 5.789 0 0 1-.189-.108c-1.592-.939-3.67-1.464-6.18-1.56h-17.402v103.534c.067 1.188.449 2.02 1.305 2.852.865.842 1.683 1.17 2.919 1.17h2.283a7.95 7.95 0 0 1 7.911 7.16l.19 1.902a7.95 7.95 0 0 1-7.91 8.74h-57.829a7.95 7.95 0 0 1-7.95-7.95v-1.902a7.95 7.95 0 0 1 7.95-7.95h2.473c.916 0 1.73-.2 2.731-1.172.898-.874 1.354-1.744 1.494-2.869V248.741h-17.634c-4.855.124-7.04 1.819-8.26 3.083-1.249 1.296-2.91 3.574-2.91 8.37v2.283a7.95 7.95 0 0 1-7.95 7.95h-1.902a7.94 7.94 0 0 1-6.434-3.279 7.952 7.952 0 0 1-7.481 3.62l-1.903-.19a7.95 7.95 0 0 1-7.161-7.911v-2.092c0-6.304-2.383-8.502-4.713-9.819a5.334 5.334 0 0 1-.128-.074c-1.616-.954-3.577-1.465-5.992-1.56h-23.866v39.455h17.041c2.594-.086 4.46-.847 6.045-2.466 1.586-1.618 2.293-3.452 2.293-5.944v-1.712a7.95 7.95 0 0 1 7.95-7.95h1.903a7.95 7.95 0 0 1 7.95 7.95v43.942a7.95 7.95 0 0 1-7.95 7.95h-1.903a7.95 7.95 0 0 1-7.95-7.95v-1.521c0-2.624-.679-4.488-2.199-6.041-1.518-1.549-3.299-2.282-5.766-2.368h-17.414v37.553h16.97c7.381 0 13.32-1.996 18.159-6.101 5.081-4.311 8.962-10.684 11.535-18.94a7.95 7.95 0 0 1 7.59-5.585h1.907a7.948 7.948 0 0 1 7.948 7.95c0 .693-.089 1.364-.255 2.005l-8.693 38.549a7.95 7.95 0 0 1-7.755 6.201h-98.537a7.95 7.95 0 0 1-7.95-7.95v-1.902a7.95 7.95 0 0 1 7.95-7.95h2.473c1.19 0 1.986-.334 2.843-1.191.905-.905 1.31-1.789 1.381-3.028V246.651c-.113-1.14-.326-1.667-.404-1.828-1.04-.93-2.504-1.98-3.821-1.98h-2.473a7.95 7.95 0 0 1-7.95-7.95v-1.902a7.95 7.95 0 0 1 7.95-7.95H730.3c5.576 0 10.15-.409 13.591-1.215 4.661-1.094 5.924-1.507 6.182-1.599a7.945 7.945 0 0 1 9.553 2.761 7.951 7.951 0 0 1 9.677-2.952c2.907 1.207 8.64 2.674 19.452 2.817h76.607c3.484 0 7.371-.348 11.551-1.036 5.555-.914 7.35-1.568 7.768-1.747a7.94 7.94 0 0 1 7.506.672 7.95 7.95 0 0 1 2.186 2.15 7.95 7.95 0 0 1 9.612-2.856c2.907 1.207 8.64 2.674 19.452 2.817h76.606c3.484 0 7.371-.348 11.551-1.036 5.555-.914 7.35-1.568 7.768-1.747a7.94 7.94 0 0 1 7.506.672 7.953 7.953 0 0 1 3.276 4.484 7.924 7.924 0 0 1 5.473-2.184h72.857c5.576 0 10.15-.409 13.591-1.215 4.661-1.094 5.924-1.507 6.182-1.599a7.945 7.945 0 0 1 7.428.702 7.95 7.95 0 0 1 3.576 6.638v33.29a7.95 7.95 0 0 1-8.74 7.911l-1.903-.19a7.95 7.95 0 0 1-7.161-7.911v-2.092c0-6.304-2.383-8.502-4.713-9.819a5.334 5.334 0 0 1-.128-.074c-1.616-.954-3.577-1.465-5.992-1.56h-23.866v39.455h17.041c2.594-.086 4.46-.847 6.045-2.466 1.586-1.618 2.293-3.452 2.293-5.944v-1.712a7.95 7.95 0 0 1 7.95-7.95h1.903a7.95 7.95 0 0 1 7.95 7.95v43.942a7.95 7.95 0 0 1-7.95 7.95h-1.903a7.95 7.95 0 0 1-7.95-7.95v-1.521c0-2.624-.679-4.488-2.199-6.041-1.518-1.549-3.299-2.282-5.766-2.368h-17.414v37.553h16.969c7.381 0 13.321-1.996 18.159-6.101 5.081-4.311 8.962-10.684 11.535-18.94a7.95 7.95 0 0 1 7.59-5.585h1.907a7.948 7.948 0 0 1 7.948 7.95Zm-497.368 2.004-8.693 38.549a7.95 7.95 0 0 1-7.755 6.201h-98.537a7.95 7.95 0 0 1-7.95-7.95v-1.902a7.95 7.95 0 0 1 7.95-7.95h2.473c1.19 0 1.986-.334 2.843-1.191.905-.905 1.31-1.789 1.381-3.028V247.064c-.071-1.238-.478-2.124-1.378-3.026-.86-.859-1.658-1.194-2.846-1.194h-2.473a7.942 7.942 0 0 1-6.563-3.462 7.94 7.94 0 0 1-6.563 3.462h-3.234c-.79 0-1.159.194-1.529.527-.304.274-.384.423-.413.717v73.935c0 17.814-5.776 32.248-17.168 42.903-11.242 10.509-26.573 15.837-45.567 15.837-21.864 0-39.072-5.138-51.145-15.271-12.487-10.48-18.819-25.041-18.819-43.28V244.56c-.042-.88-.214-1.11-.832-1.457-.388-.177-.804-.259-1.3-.259h-3.043a7.95 7.95 0 0 1-7.95-7.95v-1.902a7.95 7.95 0 0 1 7.95-7.95h54.785a7.95 7.95 0 0 1 7.95 7.95v1.902a7.95 7.95 0 0 1-7.95 7.95h-3.044c-1.134 0-1.501.33-1.721.528-.209.188-.365.328-.411.889v72.431c0 11.462 2.702 20.495 8.034 26.85 5.05 6.024 11.955 8.952 21.11 8.952 9.274 0 16.308-2.786 21.501-8.516 5.412-5.974 8.099-14.102 8.214-24.849v-74.777c-.086-.824-.296-.97-.782-1.225-.402-.193-.832-.283-1.35-.283h-3.044a7.95 7.95 0 0 1-7.95-7.95v-1.902a7.95 7.95 0 0 1 7.95-7.95h39.757a7.942 7.942 0 0 1 6.563 3.462 7.94 7.94 0 0 1 6.563-3.462h57.834a7.948 7.948 0 0 1 7.883 8.974l-.166 1.668a7.95 7.95 0 0 1-7.911 7.16h-2.282c-1.219 0-2.092.366-3.012 1.263-.872.85-1.212 1.627-1.212 2.772v103.142h16.97c7.381 0 13.32-1.996 18.159-6.101 5.081-4.311 8.962-10.684 11.535-18.941a7.95 7.95 0 0 1 7.59-5.585h1.907a7.948 7.948 0 0 1 7.948 7.95c0 .693-.089 1.364-.255 2.005Zm-296.496-86.227c-14.96-13.764-35.14-20.742-59.979-20.742s-45.019 6.978-59.977 20.741c-15.147 13.942-22.827 32.934-22.827 56.451s7.68 42.513 22.827 56.451c14.954 13.763 35.133 20.741 59.977 20.741s45.023-6.978 59.979-20.742c15.146-13.936 22.825-32.929 22.825-56.45s-7.679-42.51-22.825-56.45Zm-34.578 96.615c-6.337 8.84-14.677 13.137-25.497 13.137s-19.111-4.289-25.384-13.111c-6.787-9.543-10.228-23.065-10.228-40.191s3.441-30.646 10.228-40.191c6.274-8.822 14.577-13.111 25.384-13.111s19.158 4.297 25.497 13.138c6.837 9.541 10.305 23.055 10.305 40.165s-3.467 30.627-10.305 40.166Zm97.419-157.876a22.086 22.086 0 0 0 20.093 12.97 21.89 21.89 0 0 0 8.835-1.855c4.964-2.174 12.425-4.037 15.05-4.037 4.041 0 6.399.837 10.665 2.357 5.534 2.012 13.109 4.762 24.222 4.762 16.378 0 29.907-3.9 40.326-11.608a22.08 22.08 0 0 0 17.514 8.66h52.553a22.464 22.464 0 0 0 7.687 1.336c4.877 0 9.536-1.503 14.722-4.808a44.699 44.699 0 0 0 12.243 1.696c13.974 0 27.887-6.286 39.655-17.625a39.91 39.91 0 0 0 7.574 10.48c7.827 7.764 18.438 11.868 30.685 11.868 14.296 0 26.122-5.763 34.201-16.665 5.712-7.709 8.822-16.859 12.115-26.547 4.722-13.9 9.602-28.269 22.822-42.013l.183-.192c5.672-6.04 12.316-11.506 20.31-16.708a21.977 21.977 0 0 0 6.909-29.759l-12.948-21.719a22.022 22.022 0 0 0-18.932-10.754 22.096 22.096 0 0 0-13.964 4.988c-1.689 1.383-2.852 1.666-4.079 1.666-2.339 0-7.291-1.401-11.659-2.637l-.29-.082c-7.085-2.039-15.948-4.59-25.166-4.59-11.037 0-27.347 2.718-39.472 10.171a51.225 51.225 0 0 0-9.43-4.466 51.457 51.457 0 0 0-10.424-2.48 22.097 22.097 0 0 0-3.409-.265h-52.583a22.145 22.145 0 0 0-13.519 4.633l-37.849 29.394c-3.416-9.268-9.508-17.377-17.835-23.543-11.725-8.683-27.428-13.273-45.411-13.273-17.68 0-35.645 6.565-49.289 18.011-14.742 12.368-23.198 29.26-23.198 46.344 0 10.071 3.731 19.529 10.177 26.625-8.457 5.271-15.43 9.088-18.568 10.759-10.221 5.443-14.493 17.974-9.725 28.527l9.206 20.378Z" fill-opacity=".25"/><path d="M1160.852 317.347c0 .693-.089 1.364-.255 2.005l-8.693 38.549a7.95 7.95 0 0 1-7.755 6.201h-98.537a7.95 7.95 0 0 1-7.95-7.95v-1.902a7.95 7.95 0 0 1 7.95-7.95h2.473c1.19 0 1.986-.334 2.843-1.191.905-.905 1.31-1.789 1.381-3.028V236.654c-.113-1.141-.326-1.668-.404-1.828-1.04-.93-2.504-1.98-3.821-1.98h-2.473a7.918 7.918 0 0 1-5.176-1.916v21.55a7.95 7.95 0 0 1-7.95 7.95h-1.903a7.95 7.95 0 0 1-7.95-7.95v-2.283c0-6.26-2.447-8.459-4.841-9.785a7.075 7.075 0 0 1-.189-.108c-1.592-.939-3.671-1.464-6.18-1.56H994.02v103.534c.067 1.188.449 2.02 1.305 2.852.865.842 1.683 1.17 2.919 1.17h2.282a7.95 7.95 0 0 1 7.911 7.16l.19 1.902a7.95 7.95 0 0 1-7.91 8.74h-57.828a7.95 7.95 0 0 1-7.95-7.95v-1.902a7.95 7.95 0 0 1 7.95-7.95h2.473c.916 0 1.731-.2 2.731-1.172.898-.874 1.354-1.744 1.494-2.869V238.743h-17.633c-4.855.124-7.04 1.819-8.26 3.083-1.249 1.296-2.91 3.574-2.91 8.369v2.283a7.95 7.95 0 0 1-7.95 7.95h-1.902a7.942 7.942 0 0 1-6.563-3.462 7.94 7.94 0 0 1-6.563 3.462h-1.903a7.95 7.95 0 0 1-7.95-7.95v-2.283c0-6.26-2.447-8.459-4.841-9.785a5.789 5.789 0 0 1-.189-.108c-1.592-.939-3.67-1.464-6.18-1.56h-17.402v103.534c.067 1.188.449 2.02 1.305 2.852.865.842 1.683 1.17 2.919 1.17h2.283a7.95 7.95 0 0 1 7.911 7.16l.19 1.902a7.95 7.95 0 0 1-7.91 8.74H808.21a7.95 7.95 0 0 1-7.95-7.95v-1.902a7.95 7.95 0 0 1 7.95-7.95h2.473c.916 0 1.73-.2 2.731-1.172.898-.874 1.354-1.744 1.494-2.869V238.741h-17.634c-4.855.124-7.04 1.819-8.26 3.083-1.249 1.296-2.91 3.574-2.91 8.37v2.283a7.95 7.95 0 0 1-7.95 7.95h-1.902a7.94 7.94 0 0 1-6.434-3.279 7.952 7.952 0 0 1-7.481 3.62l-1.903-.19a7.95 7.95 0 0 1-7.161-7.911v-2.092c0-6.304-2.383-8.502-4.713-9.819a5.334 5.334 0 0 1-.128-.074c-1.616-.954-3.577-1.465-5.992-1.56h-23.866v39.455h17.041c2.594-.086 4.46-.847 6.045-2.466 1.586-1.618 2.293-3.452 2.293-5.944v-1.712a7.95 7.95 0 0 1 7.95-7.95h1.903a7.95 7.95 0 0 1 7.95 7.95v43.942a7.95 7.95 0 0 1-7.95 7.95h-1.903a7.95 7.95 0 0 1-7.95-7.95v-1.521c0-2.624-.679-4.488-2.199-6.041-1.518-1.549-3.299-2.282-5.766-2.368h-17.414v37.553h16.97c7.381 0 13.32-1.996 18.159-6.101 5.081-4.311 8.962-10.684 11.535-18.94a7.95 7.95 0 0 1 7.59-5.585h1.907a7.948 7.948 0 0 1 7.948 7.95c0 .693-.089 1.364-.255 2.005l-8.693 38.549a7.95 7.95 0 0 1-7.755 6.201h-98.537a7.95 7.95 0 0 1-7.95-7.95v-1.902a7.95 7.95 0 0 1 7.95-7.95h2.473c1.19 0 1.986-.334 2.843-1.191.905-.905 1.31-1.789 1.381-3.028V236.651c-.113-1.14-.326-1.667-.404-1.828-1.04-.93-2.504-1.98-3.821-1.98h-2.473a7.95 7.95 0 0 1-7.95-7.95v-1.902a7.95 7.95 0 0 1 7.95-7.95h72.857c5.576 0 10.15-.409 13.591-1.215 4.661-1.094 5.924-1.507 6.182-1.599a7.945 7.945 0 0 1 9.553 2.761 7.951 7.951 0 0 1 9.677-2.952c2.907 1.207 8.64 2.674 19.452 2.817h76.607c3.484 0 7.371-.348 11.551-1.036 5.555-.914 7.35-1.568 7.768-1.747a7.94 7.94 0 0 1 7.506.672 7.95 7.95 0 0 1 2.186 2.15 7.95 7.95 0 0 1 9.612-2.856c2.907 1.207 8.64 2.674 19.452 2.817h76.606c3.484 0 7.371-.348 11.551-1.036 5.555-.914 7.35-1.568 7.768-1.747a7.94 7.94 0 0 1 7.506.672 7.953 7.953 0 0 1 3.276 4.484 7.924 7.924 0 0 1 5.473-2.184h72.857c5.576 0 10.15-.409 13.591-1.215 4.661-1.094 5.924-1.507 6.182-1.599a7.945 7.945 0 0 1 7.429.702 7.95 7.95 0 0 1 3.576 6.638v33.29a7.95 7.95 0 0 1-8.74 7.911l-1.903-.19a7.95 7.95 0 0 1-7.161-7.911v-2.092c0-6.304-2.383-8.502-4.713-9.819a5.334 5.334 0 0 1-.128-.074c-1.616-.954-3.578-1.465-5.992-1.56h-23.866v39.455h17.041c2.594-.086 4.46-.847 6.045-2.466 1.586-1.618 2.293-3.452 2.293-5.944v-1.712a7.95 7.95 0 0 1 7.95-7.95h1.903a7.95 7.95 0 0 1 7.95 7.95v43.942a7.95 7.95 0 0 1-7.95 7.95h-1.903a7.95 7.95 0 0 1-7.95-7.95v-1.521c0-2.624-.679-4.488-2.199-6.041-1.518-1.549-3.299-2.282-5.766-2.368h-17.414v37.553h16.969c7.381 0 13.321-1.996 18.159-6.101 5.081-4.311 8.962-10.684 11.535-18.94a7.95 7.95 0 0 1 7.59-5.585h1.907a7.948 7.948 0 0 1 7.948 7.95Zm-771.039-27.774c0 23.521-7.68 42.514-22.825 56.45-14.955 13.763-35.135 20.742-59.979 20.742s-45.023-6.979-59.977-20.741c-15.147-13.937-22.827-32.93-22.827-56.451s7.68-42.509 22.827-56.451c14.958-13.763 35.137-20.741 59.977-20.741s45.019 6.978 59.979 20.742c15.146 13.94 22.825 32.932 22.825 56.45Zm-47.097 0c0-17.11-3.468-30.624-10.305-40.165-6.339-8.84-14.68-13.138-25.497-13.138s-19.109 4.289-25.384 13.111c-6.787 9.546-10.228 23.068-10.228 40.191s3.441 30.648 10.228 40.191c6.272 8.823 14.575 13.111 25.384 13.111s19.16-4.297 25.497-13.137c6.838-9.539 10.305-23.053 10.305-40.166Zm-39.834 97.016v1.902a7.948 7.948 0 0 1-4.394 7.11c-10.959 5.48-22.78 8.259-35.133 8.259-10.804 0-20.832-1.707-29.767-5.06-19.024-7.03-35.354-20.778-48.538-40.865-3.224-4.643-9.021-13.245-17.715-26.287-8.534-12.799-14.118-21.049-16.596-24.521a9.21 9.21 0 0 1-.235-.348 77.335 77.335 0 0 0-2.275-3.387v38.873c0 1.146.339 1.922 1.215 2.774.918.896 1.79 1.261 3.01 1.261h2.473a7.95 7.95 0 0 1 7.95 7.95v1.902a7.95 7.95 0 0 1-7.95 7.95H97.099a7.95 7.95 0 0 1-7.95-7.95v-1.902a7.95 7.95 0 0 1 7.95-7.95h2.472c1.128 0 1.968-.361 2.902-1.246.878-.832 1.255-1.621 1.322-2.783V237.062c-.071-1.237-.477-2.122-1.376-3.022-.861-.86-1.66-1.195-2.848-1.195h-2.472a7.95 7.95 0 0 1-7.95-7.95v-1.902a7.95 7.95 0 0 1 7.95-7.95h65.247c18.185 0 32.694 4.393 43.092 13.031 8.995 7.39 13.555 17.777 13.555 30.871 0 12.844-4.307 23.507-12.803 31.693-3.804 3.663-7.895 6.509-12.25 8.528 3.308 3.285 6.26 6.444 8.787 9.402 2.65 3.104 4.96 5.909 6.874 8.348 1.833 2.344 4.272 5.443 7.31 9.304 3.042 3.867 6.208 7.889 9.509 12.075 3.152 4.003 6.706 8.174 10.563 12.399 3.702 4.055 7.884 7.967 12.431 11.628 4.411 3.553 8.954 6.508 13.535 8.799 9.628 4.871 20.416 7.4 32.062 7.515a7.95 7.95 0 0 1 7.871 7.95ZM172.656 259.518c0-6.811-1.692-11.751-5.169-15.1-3.571-3.434-7.741-5.103-12.751-5.103h-6.507v41.929h2.132c5.166 0 9.771-1.114 14.077-3.406 3.543-1.975 8.219-6.034 8.219-18.319Zm491.083 57.829a7.948 7.948 0 0 0-7.948-7.95h-1.907a7.95 7.95 0 0 0-7.59 5.585c-2.573 8.257-6.454 14.629-11.535 18.941-4.838 4.105-10.778 6.101-18.159 6.101h-16.97V236.882c0-1.144.34-1.922 1.212-2.772.921-.897 1.794-1.263 3.012-1.263h2.282a7.95 7.95 0 0 0 7.911-7.16l.166-1.668a7.948 7.948 0 0 0-7.883-8.974h-57.834a7.942 7.942 0 0 0-6.563 3.462 7.94 7.94 0 0 0-6.563-3.462h-39.757a7.95 7.95 0 0 0-7.95 7.95v1.902a7.95 7.95 0 0 0 7.95 7.95h3.044c.517 0 .948.09 1.35.283.487.255.697.401.782 1.225v74.777c-.115 10.747-2.802 18.875-8.214 24.849-5.194 5.73-12.227 8.516-21.501 8.516-9.155 0-16.06-2.928-21.11-8.952-5.331-6.355-8.034-15.387-8.034-26.85v-72.431c.046-.561.202-.701.411-.889.22-.198.586-.528 1.721-.528h3.044a7.95 7.95 0 0 0 7.95-7.95v-1.902a7.95 7.95 0 0 0-7.95-7.95h-54.785a7.95 7.95 0 0 0-7.95 7.95v1.902a7.95 7.95 0 0 0 7.95 7.95h3.043c.496 0 .912.083 1.3.259.619.347.791.576.832 1.457v73.652c0 18.238 6.332 32.8 18.819 43.28 12.073 10.133 29.281 15.271 51.145 15.271 18.994 0 34.325-5.328 45.567-15.837 11.392-10.655 17.168-25.089 17.168-42.903v-73.935c.028-.294.109-.444.413-.717.37-.333.74-.527 1.529-.527h3.234a7.942 7.942 0 0 0 6.563-3.462 7.94 7.94 0 0 0 6.563 3.462h2.473c1.188 0 1.986.335 2.846 1.194.9.902 1.307 1.788 1.378 3.026v105.016c-.071 1.239-.477 2.124-1.381 3.028-.857.857-1.654 1.191-2.843 1.191h-2.473a7.95 7.95 0 0 0-7.95 7.95v1.902a7.95 7.95 0 0 0 7.95 7.95h98.537a7.949 7.949 0 0 0 7.755-6.201l8.693-38.549c.166-.64.255-1.312.255-2.005Z"/><path d="M294.932 388.491c-9.891 4.946-20.419 7.42-31.577 7.42-9.891 0-18.897-1.522-27.011-4.567-17.501-6.467-32.404-19.086-44.703-37.854-3.172-4.565-9.069-13.315-17.692-26.251-8.626-12.936-14.204-21.176-16.74-24.729-4.441-6.973-7.989-10.777-10.652-11.413v-1.902h3.804c6.468 0 12.427-1.457 17.881-4.375 8.242-4.565 12.364-12.999 12.364-25.3 0-9.004-2.538-15.947-7.609-20.83-5.074-4.88-11.161-7.323-18.262-7.323h-14.457v110.9c0 3.299 1.204 6.121 3.614 8.466 2.408 2.348 5.261 3.519 8.561 3.519h2.473v1.902H97.097v-1.902h2.472c3.168 0 5.96-1.141 8.37-3.424 2.408-2.282 3.677-5.07 3.805-8.369V236.883c-.127-3.296-1.364-6.117-3.709-8.466-2.348-2.345-5.169-3.519-8.466-3.519h-2.472v-1.902h65.247c16.359 0 29.039 3.742 38.045 11.224 7.101 5.834 10.652 14.077 10.652 24.729s-3.457 19.308-10.368 25.966c-6.913 6.657-14.808 9.986-23.683 9.986-.761 0-1.587-.062-2.473-.19 5.199 2.791 9.541 5.897 13.031 9.322 3.487 3.424 6.53 6.657 9.131 9.701 2.598 3.043 4.818 5.739 6.658 8.084a12653.236 12653.236 0 0 0 16.836 21.4c3.296 4.185 6.943 8.466 10.938 12.841 3.995 4.375 8.432 8.527 13.315 12.459 4.881 3.93 9.859 7.163 14.933 9.701 10.778 5.453 22.637 8.242 35.572 8.371v1.902Zm-42.517-149.518c13.505-12.426 31.702-18.642 54.594-18.642s41.089 6.216 54.595 18.642c13.506 12.431 20.259 29.296 20.259 50.6s-6.753 38.173-20.259 50.6c-13.506 12.429-31.706 18.642-54.595 18.642s-41.089-6.212-54.594-18.642c-13.506-12.428-20.26-29.294-20.26-50.6s6.754-38.169 20.26-50.6Zm22.636 95.398c7.799 10.971 18.419 16.455 31.863 16.455s24.093-5.484 31.958-16.455c7.862-10.967 11.794-25.9 11.794-44.798s-3.932-33.827-11.794-44.798c-7.864-10.967-18.517-16.455-31.958-16.455s-24.064 5.488-31.863 16.455c-7.799 10.971-11.698 25.903-11.698 44.798s3.899 33.831 11.698 44.798Zm260.322-109.475h-3.233c-2.663 0-4.946.856-6.848 2.568-1.902 1.712-2.919 3.837-3.044 6.374v74.187c0 15.599-4.883 27.963-14.647 37.095-9.767 9.13-23.145 13.695-40.138 13.695-20.039 0-35.382-4.47-46.034-13.41-10.652-8.94-15.979-21.335-15.979-37.19v-73.807c-.127-3.804-1.84-6.592-5.135-8.369-1.522-.761-3.172-1.143-4.946-1.143h-3.043v-1.902h54.785v1.902h-3.044c-2.791 0-5.136.856-7.038 2.568-1.903 1.712-2.919 3.901-3.044 6.564v72.666c0 13.444 3.296 24.096 9.891 31.957 6.593 7.864 15.661 11.795 27.202 11.795s20.669-3.711 27.393-11.129c6.72-7.418 10.144-17.467 10.272-30.15v-75.139c-.255-3.677-1.967-6.34-5.135-7.989-1.522-.761-3.172-1.143-4.946-1.143h-3.044v-1.902h39.757v1.902Zm15.6 129.354c3.296 0 6.117-1.171 8.465-3.519 2.345-2.345 3.582-5.166 3.71-8.466V236.881c-.128-3.296-1.365-6.117-3.71-8.466-2.348-2.345-5.169-3.519-8.465-3.519H548.5v-1.902h57.829l-.19 1.902h-2.283c-3.299 0-6.153 1.174-8.561 3.519-2.41 2.348-3.614 5.17-3.614 8.466v111.092h24.92c9.256 0 17.025-2.663 23.302-7.989s10.938-12.871 13.982-22.637h1.902l-8.75 38.805H548.5v-1.902h2.473Zm118.94 0c3.296 0 6.117-1.171 8.465-3.519 2.345-2.345 3.582-5.166 3.71-8.466V236.309c-.256-3.296-1.207-5.706-2.854-7.228-3.044-2.788-6.152-4.185-9.321-4.185h-2.473v-1.902h72.857c6.212 0 11.348-.475 15.408-1.426 4.057-.953 6.53-1.617 7.419-1.999v33.289l-1.903-.19v-2.092c0-7.863-2.918-13.442-8.75-16.74-2.791-1.647-6.086-2.537-9.891-2.663h-31.958v55.355h25.109c4.691-.125 8.561-1.742 11.604-4.852 3.044-3.106 4.565-6.943 4.565-11.508v-1.712h1.903v43.942H751.9v-1.521c0-4.692-1.492-8.561-4.47-11.605-2.981-3.043-6.753-4.627-11.319-4.755h-25.49v53.453h24.92c9.256 0 17.025-2.663 23.302-7.989s10.938-12.871 13.982-22.637h1.902l-8.75 38.805H667.44v-1.902h2.473ZM851.39 230.794v111.663c.125 3.299 1.361 6.087 3.709 8.369 2.345 2.283 5.166 3.424 8.466 3.424h2.283l.19 1.902h-57.829v-1.902h2.473c3.168 0 5.926-1.141 8.275-3.424 2.345-2.282 3.644-5.008 3.9-8.179V230.794h-25.681c-5.835.128-10.463 1.967-13.887 5.516-3.424 3.553-5.136 8.181-5.136 13.887v2.283h-1.902v-33.1c5.199 2.159 12.68 3.299 22.446 3.424h76.661c3.93 0 8.21-.38 12.841-1.141 4.627-.761 7.828-1.522 9.606-2.283v33.1h-1.903v-2.283c0-7.861-2.981-13.44-8.94-16.74-2.791-1.647-6.152-2.535-10.082-2.663h-25.49Zm134.681 0v111.663c.125 3.299 1.361 6.087 3.709 8.369 2.345 2.283 5.166 3.424 8.466 3.424h2.283l.19 1.902H942.89v-1.902h2.473c3.168 0 5.926-1.141 8.275-3.424 2.345-2.282 3.644-5.008 3.9-8.179V230.794h-25.681c-5.835.128-10.463 1.967-13.887 5.516-3.424 3.553-5.136 8.181-5.136 13.887v2.283h-1.902v-33.1c5.199 2.159 12.68 3.299 22.446 3.424h76.661c3.93 0 8.21-.38 12.841-1.141 4.627-.761 7.828-1.522 9.606-2.283v33.1h-1.903v-2.283c0-7.861-2.981-13.44-8.94-16.74-2.791-1.647-6.152-2.535-10.082-2.663h-25.49Zm62.015 123.456c3.296 0 6.117-1.171 8.465-3.519 2.345-2.345 3.582-5.166 3.71-8.466V236.309c-.256-3.296-1.207-5.706-2.854-7.228-3.044-2.788-6.152-4.185-9.321-4.185h-2.473v-1.902h72.857c6.212 0 11.348-.475 15.408-1.426 4.057-.953 6.53-1.617 7.419-1.999v33.289l-1.903-.19v-2.092c0-7.863-2.918-13.442-8.75-16.74-2.791-1.647-6.086-2.537-9.891-2.663h-31.958v55.355h25.109c4.691-.125 8.561-1.742 11.604-4.852 3.044-3.106 4.565-6.943 4.565-11.508v-1.712h1.903v43.942h-1.903v-1.521c0-4.692-1.492-8.561-4.47-11.605-2.981-3.043-6.753-4.627-11.319-4.755h-25.49v53.453h24.92c9.256 0 17.025-2.663 23.302-7.989s10.938-12.871 13.982-22.637h1.902l-8.75 38.805h-98.537v-1.902h2.473Z" fill="url(#g)"/><path d="M895.555 222.471v16.389c-1.682-3.065-4.178-5.524-7.475-7.356-3.102-1.823-6.845-2.819-11.126-2.959l-.073-.001h-25.49a2.25 2.25 0 0 0-2.25 2.25v111.663c0 .028 0 .057.002.085.147 3.879 1.623 7.209 4.388 9.896.557.542 1.137 1.03 1.742 1.464h-36.482c.6-.434 1.179-.922 1.736-1.463 2.735-2.661 4.274-5.895 4.573-9.611.005-.06.007-.12.007-.181V230.794a2.25 2.25 0 0 0-2.25-2.25h-25.73c-6.421.142-11.621 2.229-15.457 6.205a19.712 19.712 0 0 0-3.168 4.323v-16.506c5.165 1.565 11.81 2.382 20.196 2.489h76.661c4.036 0 8.479-.394 13.206-1.171 2.848-.468 5.165-.936 6.991-1.413m134.68 0v16.389c-1.682-3.065-4.178-5.524-7.475-7.356-3.102-1.823-6.845-2.819-11.126-2.959l-.073-.001h-25.49a2.25 2.25 0 0 0-2.25 2.25v111.663c0 .028 0 .057.002.085.147 3.879 1.623 7.209 4.388 9.896.557.542 1.137 1.03 1.742 1.464h-36.482c.6-.434 1.179-.922 1.736-1.463 2.735-2.661 4.274-5.895 4.573-9.611.005-.06.007-.12.007-.181V230.794a2.25 2.25 0 0 0-2.25-2.25h-25.73c-6.421.142-11.621 2.229-15.457 6.205a19.712 19.712 0 0 0-3.168 4.323v-16.506c5.165 1.565 11.811 2.382 20.196 2.489h76.661c4.036 0 8.479-.394 13.206-1.171 2.848-.468 5.165-.936 6.991-1.413m-723.228.11c22.199 0 40.055 6.072 53.071 18.047 12.961 11.929 19.533 28.397 19.533 48.945s-6.572 37.019-19.532 48.945c-13.013 11.975-30.868 18.047-53.071 18.047s-40.059-6.072-53.071-18.047c-12.961-11.926-19.533-28.394-19.533-48.945s6.572-37.015 19.533-48.945c13.016-11.975 30.871-18.047 53.071-18.047m-.096 130.495c14.145 0 25.513-5.852 33.787-17.394 8.105-11.307 12.215-26.82 12.215-46.109s-4.11-34.798-12.216-46.109c-8.277-11.542-19.644-17.394-33.786-17.394s-25.485 5.855-33.697 17.401c-8.039 11.307-12.115 26.818-12.115 46.102s4.076 34.799 12.114 46.102c8.209 11.547 19.546 17.401 33.697 17.401m832.133-130.464v16.533c-1.647-3.02-4.072-5.442-7.26-7.244-3.109-1.835-6.797-2.836-10.96-2.974l-.075-.001h-31.958a2.25 2.25 0 0 0-2.25 2.25v55.355a2.25 2.25 0 0 0 2.25 2.25h25.169c5.275-.14 9.7-2 13.151-5.526a18.475 18.475 0 0 0 2.611-3.344v21.027a17.753 17.753 0 0 0-2.516-3.237c-3.388-3.458-7.716-5.285-12.862-5.429h-25.553a2.25 2.25 0 0 0-2.25 2.25v53.453a2.25 2.25 0 0 0 2.25 2.25h24.92c9.763 0 18.093-2.868 24.758-8.524 3.502-2.972 6.539-6.619 9.09-10.91l-5.212 23.112h-86.055a15.33 15.33 0 0 0 1.846-1.58c2.747-2.747 4.217-6.101 4.367-9.969l.002-.087V236.311c0-.058-.002-.116-.007-.174-.3-3.865-1.501-6.794-3.577-8.713a22.183 22.183 0 0 0-2.771-2.178h62.314c6.357 0 11.714-.5 15.922-1.485 2.043-.48 3.542-.853 4.654-1.147m-378.17-.002v16.533c-1.647-3.02-4.071-5.442-7.259-7.244-3.109-1.835-6.797-2.836-10.96-2.974l-.075-.001h-31.958a2.25 2.25 0 0 0-2.25 2.25v55.355a2.25 2.25 0 0 0 2.25 2.25h25.169c5.275-.14 9.7-2 13.151-5.526a18.475 18.475 0 0 0 2.611-3.344v21.027a17.753 17.753 0 0 0-2.516-3.237c-3.388-3.458-7.716-5.285-12.863-5.429h-25.553a2.25 2.25 0 0 0-2.25 2.25v53.453a2.25 2.25 0 0 0 2.25 2.25h24.92c9.763 0 18.093-2.868 24.758-8.524 3.502-2.971 6.539-6.62 9.09-10.91l-5.212 23.112h-86.055a15.33 15.33 0 0 0 1.846-1.58c2.748-2.747 4.217-6.102 4.367-9.969l.002-.087V236.311c0-.058-.002-.116-.007-.174-.3-3.865-1.501-6.794-3.577-8.713a22.183 22.183 0 0 0-2.771-2.178h62.314c6.357 0 11.714-.5 15.922-1.485 2.043-.48 3.542-.853 4.654-1.147m-165.285 2.631c-.646.46-1.267.979-1.862 1.56-2.849 2.776-4.294 6.167-4.294 10.077v111.092a2.25 2.25 0 0 0 2.25 2.25h24.92c9.763 0 18.093-2.868 24.758-8.524 3.502-2.971 6.539-6.619 9.09-10.909l-5.212 23.112h-86.055a15.33 15.33 0 0 0 1.846-1.58c2.748-2.747 4.217-6.102 4.367-9.969l.002-.087V236.883c0-.029 0-.058-.002-.087-.15-3.863-1.619-7.217-4.368-9.97a15.316 15.316 0 0 0-1.847-1.579h36.407m-71.151-.002c-.221.174-.437.356-.65.548-2.357 2.122-3.631 4.792-3.786 7.936a2.056 2.056 0 0 0-.003.111v74.187c0 14.877-4.688 26.804-13.934 35.451-9.291 8.685-22.278 13.089-38.601 13.089-19.4 0-34.402-4.335-44.588-12.884-10.07-8.451-15.176-20.384-15.176-35.467v-73.807l-.001-.075c-.128-3.815-1.667-6.918-4.481-9.088h32.956c-.222.174-.439.356-.651.547-2.359 2.123-3.633 4.858-3.786 8.131-.002.035-.002.07-.002.105v72.666c0 13.926 3.505 25.164 10.417 33.402 7.008 8.36 16.741 12.599 28.926 12.599s21.922-3.993 29.06-11.868c7.07-7.804 10.722-18.449 10.854-31.661v-75.139c0-.052-.002-.104-.005-.156-.252-3.635-1.773-6.576-4.45-8.628h17.9m-362.09.001c15.74 0 28.057 3.601 36.617 10.712 6.615 5.435 9.831 12.955 9.831 22.991 0 10.107-3.166 18.071-9.678 24.346-6.539 6.296-13.775 9.357-22.122 9.357-.663 0-1.387-.056-2.151-.167a2.252 2.252 0 0 0-2.46 1.523 2.25 2.25 0 0 0 1.073 2.686c4.987 2.678 9.199 5.687 12.519 8.945 3.429 3.368 6.456 6.584 8.997 9.557 2.56 2.998 4.78 5.693 6.596 8.009 1.838 2.35 4.283 5.458 7.328 9.327 3.044 3.87 6.213 7.896 9.512 12.079 3.306 4.198 7.022 8.56 11.044 12.966 4.052 4.438 8.616 8.709 13.566 12.695 4.978 4.009 10.138 7.36 15.328 9.957 9.443 4.777 19.812 7.588 30.892 8.383-8.185 3.354-16.869 5.052-25.882 5.052-9.576 0-18.398-1.488-26.231-4.427-16.96-6.267-31.629-18.708-43.601-36.977l-.034-.051c-3.136-4.513-9.08-13.333-17.667-26.216-8.557-12.833-14.19-21.155-16.745-24.739-2.902-4.551-5.43-7.783-7.702-9.819 6.432-.148 12.461-1.704 17.959-4.645 8.974-4.97 13.524-14.145 13.524-27.269 0-9.594-2.792-17.148-8.299-22.452-5.486-5.276-12.155-7.951-19.821-7.951h-14.457a2.25 2.25 0 0 0-2.25 2.25v110.9c0 3.914 1.445 7.305 4.293 10.076.595.58 1.216 1.101 1.861 1.56h-36.444a16.087 16.087 0 0 0 1.748-1.443c2.839-2.69 4.355-6.026 4.506-9.915l.002-.087V236.882c0-.029 0-.058-.002-.087-.149-3.863-1.618-7.217-4.367-9.971a15.407 15.407 0 0 0-1.847-1.579h54.567m870.138-5.865c-1.778.761-4.979 1.522-9.606 2.283-4.631.761-8.911 1.141-12.841 1.141h-76.661c-9.766-.125-17.248-1.266-22.446-3.424v33.1h1.902v-2.283c0-5.706 1.712-10.334 5.136-13.887 3.424-3.549 8.052-5.388 13.887-5.516h25.681v111.853c-.256 3.171-1.555 5.897-3.9 8.179-2.348 2.283-5.106 3.424-8.275 3.424h-2.473v1.902h57.828l-.19-1.902h-2.283c-3.299 0-6.121-1.141-8.466-3.424-2.347-2.282-3.584-5.07-3.709-8.369V230.794h25.49c3.93.128 7.291 1.016 10.082 2.663 5.959 3.299 8.94 8.879 8.94 16.74v2.283h1.903v-33.1Zm-134.681 0c-1.778.761-4.979 1.522-9.607 2.283-4.631.761-8.911 1.141-12.841 1.141h-76.661c-9.766-.125-17.248-1.266-22.446-3.424v33.1h1.902v-2.283c0-5.706 1.712-10.334 5.136-13.887 3.424-3.549 8.052-5.388 13.887-5.516h25.681v111.853c-.256 3.171-1.555 5.897-3.9 8.179-2.348 2.283-5.106 3.424-8.275 3.424h-2.473v1.902h57.829l-.19-1.902h-2.283c-3.299 0-6.121-1.141-8.466-3.424-2.347-2.282-3.584-5.07-3.709-8.369V230.794h25.49c3.93.128 7.291 1.016 10.082 2.663 5.959 3.299 8.94 8.879 8.94 16.74v2.283h1.903v-33.1Zm243.491.19c-.889.381-3.362 1.046-7.419 1.999-4.061.951-9.196 1.426-15.408 1.426h-72.857v1.902h2.473c3.168 0 6.277 1.397 9.321 4.185 1.647 1.522 2.598 3.932 2.854 7.228v105.956c-.128 3.299-1.365 6.121-3.71 8.466-2.348 2.348-5.169 3.519-8.465 3.519h-2.473v1.902h98.537l8.75-38.805h-1.902c-3.044 9.766-7.704 17.311-13.982 22.637-6.277 5.326-14.047 7.989-23.302 7.989h-24.92v-53.453h25.49c4.566.128 8.337 1.712 11.318 4.755 2.979 3.045 4.47 6.913 4.47 11.605v1.521h1.903V268.46h-1.903v1.712c0 4.565-1.521 8.402-4.565 11.508-3.044 3.11-6.914 4.727-11.604 4.852h-25.109v-55.355h31.958c3.805.127 7.101 1.016 9.891 2.663 5.832 3.298 8.75 8.877 8.75 16.74v2.092l1.903.19v-33.289Zm-378.172 0c-.888.381-3.362 1.046-7.419 1.999-4.061.951-9.196 1.426-15.408 1.426H667.44v1.902h2.473c3.168 0 6.277 1.397 9.321 4.185 1.647 1.522 2.598 3.932 2.854 7.228v105.956c-.128 3.299-1.365 6.121-3.71 8.466-2.348 2.348-5.169 3.519-8.465 3.519h-2.473v1.902h98.537l8.75-38.805h-1.902c-3.044 9.766-7.705 17.311-13.982 22.637-6.277 5.326-14.047 7.989-23.302 7.989h-24.92v-53.453h25.49c4.566.128 8.337 1.712 11.319 4.755 2.979 3.045 4.47 6.913 4.47 11.605v1.521h1.903V268.46H751.9v1.712c0 4.565-1.521 8.402-4.565 11.508-3.044 3.11-6.914 4.727-11.604 4.852h-25.109v-55.355h31.958c3.805.127 7.101 1.016 9.891 2.663 5.832 3.298 8.75 8.877 8.75 16.74v2.092l1.903.19v-33.289Zm-456.115.761c-22.892 0-41.089 6.216-54.594 18.642-13.506 12.431-20.26 29.296-20.26 50.6s6.753 38.173 20.26 50.6c13.505 12.429 31.702 18.642 54.594 18.642s41.089-6.212 54.595-18.642c13.506-12.428 20.259-29.294 20.259-50.6s-6.753-38.169-20.259-50.6c-13.506-12.426-31.706-18.642-54.595-18.642Zm-.095 130.495c-13.444 0-24.064-5.484-31.863-16.455-7.799-10.967-11.698-25.9-11.698-44.798s3.899-33.827 11.698-44.798c7.799-10.967 18.419-16.455 31.863-16.455s24.093 5.488 31.958 16.455c7.862 10.971 11.794 25.903 11.794 44.798s-3.932 33.831-11.794 44.798c-7.865 10.971-18.517 16.455-31.958 16.455Zm299.414-127.831h.005-.005Zm0 0h-57.829v1.902h2.473c3.296 0 6.117 1.174 8.465 3.519 2.345 2.348 3.582 5.17 3.71 8.466v105.384c-.128 3.299-1.365 6.121-3.71 8.466-2.348 2.348-5.169 3.519-8.465 3.519h-2.473v1.902h98.537l8.75-38.805h-1.902c-3.044 9.766-7.705 17.311-13.982 22.637-6.277 5.326-14.047 7.989-23.302 7.989h-24.92V236.882c0-3.296 1.204-6.117 3.614-8.466 2.407-2.345 5.261-3.519 8.561-3.519h2.283l.19-1.902Zm-70.955 0h-39.757v1.902h3.044c1.775 0 3.424.381 4.947 1.143 3.168 1.649 4.881 4.312 5.135 7.989v75.139c-.127 12.683-3.552 22.732-10.272 30.15-6.724 7.418-15.854 11.129-27.393 11.129s-20.609-3.93-27.202-11.795c-6.595-7.861-9.891-18.513-9.891-31.957v-72.666c.125-2.663 1.141-4.852 3.044-6.564 1.902-1.712 4.247-2.568 7.038-2.568h3.044v-1.902h-54.785v1.902h3.043c1.775 0 3.424.381 4.946 1.143 3.296 1.777 5.008 4.565 5.135 8.369v73.807c0 15.855 5.327 28.25 15.979 37.19 10.652 8.94 25.995 13.41 46.034 13.41 16.993 0 30.371-4.565 40.138-13.695 9.764-9.132 14.647-21.496 14.647-37.095v-74.187c.125-2.537 1.142-4.662 3.044-6.374 1.903-1.712 4.185-2.568 6.848-2.568h3.234v-1.902Zm-373.028 0H97.098v1.902h2.472c3.297 0 6.117 1.174 8.466 3.519 2.345 2.348 3.582 5.17 3.709 8.466v105.576c-.127 3.299-1.397 6.087-3.805 8.369-2.41 2.283-5.201 3.424-8.37 3.424h-2.472v1.902h57.829v-1.902h-2.473c-3.299 0-6.152-1.171-8.561-3.519-2.41-2.345-3.614-5.166-3.614-8.466v-110.9h14.457c7.101 0 13.188 2.443 18.262 7.323 5.07 4.883 7.609 11.827 7.609 20.83 0 12.301-4.122 20.735-12.364 25.3-5.455 2.918-11.413 4.375-17.881 4.375h-3.804v1.902c2.663.636 6.211 4.44 10.652 11.414 2.536 3.552 8.114 11.793 16.74 24.729 8.623 12.936 14.52 21.686 17.692 26.251 12.299 18.768 27.202 31.387 44.703 37.855 8.114 3.045 17.12 4.567 27.011 4.567 11.159 0 21.686-2.473 31.577-7.42v-1.902c-12.935-.128-24.794-2.918-35.572-8.371-5.074-2.538-10.052-5.771-14.933-9.701-4.883-3.932-9.321-8.084-13.315-12.459-3.995-4.375-7.642-8.655-10.938-12.841-3.299-4.184-6.468-8.209-9.511-12.078a4087.589 4087.589 0 0 1-7.324-9.322c-1.839-2.345-4.06-5.041-6.658-8.084-2.601-3.045-5.644-6.277-9.131-9.701-3.489-3.424-7.832-6.53-13.031-9.322.886.128 1.712.19 2.473.19 8.875 0 16.769-3.329 23.683-9.986 6.911-6.659 10.368-15.314 10.368-25.966s-3.552-18.895-10.652-24.729c-9.006-7.481-21.686-11.224-38.045-11.224Zm988.555 94.352h.005-.005Zm-376.173 0h.005-.005Zm-118.94 0h.005-.005Z" fill="url(#h)"/><path d="M741.155 29.046c8.078 0 16 2.276 22.991 4.288l.287.081c5.343 1.512 10.389 2.939 13.838 2.939 3.344 0 6.25-1.105 9.147-3.477a14.041 14.041 0 0 1 20.954 3.674L821.32 58.27c3.861 6.476 1.918 14.845-4.401 18.957-8.538 5.557-15.662 11.424-21.78 17.939l-.115.121c-14.456 15.03-19.861 30.942-24.63 44.983-3.22 9.474-6 17.655-10.969 24.36-6.603 8.91-15.947 13.428-27.774 13.428-21.724 0-33.551-15.174-34.579-30.859-11.499 16.073-27.451 26.136-43.335 26.136-4.097 0-8.111-.666-11.93-1.98-.527-.181-1.041-.393-1.558-.599-5.31 4.015-9.314 5.69-13.477 5.69-2.151 0-4.223-.455-6.122-1.336h-54.119a14.04 14.04 0 0 1-13.997-15.139 42.785 42.785 0 0 1-3.878 4.315c-9.411 9.138-22.857 13.771-39.964 13.771-9.719 0-16.28-2.386-21.509-4.288-4.613-1.644-7.946-2.831-13.378-2.831-4.423 0-13.173 2.482-18.259 4.709a13.987 13.987 0 0 1-5.625 1.183c-5.352 0-10.46-3.077-12.802-8.263l-9.206-20.378c-3.047-6.744-.336-14.694 6.195-18.173 4.124-2.196 15.686-8.535 28.432-17.11-9.494-5.226-15.802-15.394-15.802-27.334 0-14.713 7.413-29.371 20.339-40.215 12.227-10.257 28.318-16.14 44.147-16.14 16.256 0 30.313 4.046 40.65 11.702 10.349 7.664 16.497 18.607 17.588 31.131l47.763-37.093a14.039 14.039 0 0 1 8.612-2.951h52.583c.764 0 1.519.062 2.259.183 3.11.403 6.106 1.111 8.906 2.104a43.601 43.601 0 0 1 12.213 6.693c.355-.332.728-.646 1.118-.941 10.044-7.598 26.442-10.999 38.238-10.999m.001-8c-11.037 0-27.347 2.718-39.472 10.171a51.225 51.225 0 0 0-9.43-4.466 51.457 51.457 0 0 0-10.424-2.48 22.097 22.097 0 0 0-3.409-.265h-52.583a22.145 22.145 0 0 0-13.519 4.633l-37.849 29.394c-3.416-9.268-9.508-17.377-17.835-23.543-11.725-8.683-27.428-13.273-45.411-13.273-17.68 0-35.645 6.565-49.289 18.011-14.742 12.368-23.198 29.26-23.198 46.344 0 10.071 3.731 19.529 10.177 26.625-8.457 5.271-15.43 9.088-18.568 10.759-10.221 5.443-14.493 17.974-9.725 28.527l9.206 20.378a22.086 22.086 0 0 0 20.093 12.97 21.89 21.89 0 0 0 8.835-1.855c4.964-2.174 12.425-4.037 15.05-4.037 4.041 0 6.399.837 10.665 2.357 5.534 2.012 13.109 4.762 24.222 4.762 16.378 0 29.907-3.9 40.326-11.608a22.08 22.08 0 0 0 17.514 8.66h52.553a22.464 22.464 0 0 0 7.687 1.336c4.877 0 9.536-1.503 14.722-4.808a44.699 44.699 0 0 0 12.243 1.696c13.974 0 27.887-6.286 39.655-17.625a39.91 39.91 0 0 0 7.574 10.48c7.827 7.764 18.438 11.868 30.685 11.868 14.296 0 26.122-5.763 34.201-16.665 5.712-7.709 8.822-16.859 12.115-26.547 4.722-13.9 9.602-28.269 22.822-42.013l.183-.192c5.672-6.04 12.316-11.506 20.31-16.708a21.977 21.977 0 0 0 6.909-29.759l-12.948-21.719A22.022 22.022 0 0 0 796.31 21.7a22.096 22.096 0 0 0-13.964 4.988c-1.689 1.383-2.852 1.666-4.079 1.666-2.339 0-7.291-1.401-11.659-2.637l-.29-.082c-7.085-2.039-15.948-4.589-25.166-4.589Z"/><path d="m821.321 58.271-12.948-21.719a14.042 14.042 0 0 0-20.954-3.674c-2.897 2.372-5.803 3.477-9.147 3.477-3.448 0-8.495-1.428-13.838-2.939l-.287-.081c-6.991-2.012-14.913-4.288-22.991-4.288-11.796 0-28.194 3.401-38.238 10.999-.39.295-.763.609-1.118.941-3.741-2.899-7.834-5.144-12.213-6.693a43.391 43.391 0 0 0-8.906-2.104 13.995 13.995 0 0 0-2.259-.183H625.84a14.039 14.039 0 0 0-8.612 2.951l-47.763 37.093c-1.092-12.525-7.24-23.468-17.588-31.131-10.337-7.655-24.394-11.702-40.65-11.702-15.83 0-31.921 5.883-44.147 16.14-12.926 10.844-20.339 25.502-20.339 40.215 0 11.94 6.309 22.109 15.802 27.334-12.746 8.575-24.308 14.914-28.432 17.11-6.531 3.478-9.242 11.429-6.195 18.173l9.206 20.378c2.343 5.186 7.451 8.263 12.802 8.263 1.882 0 3.793-.38 5.625-1.183 5.086-2.227 13.835-4.709 18.259-4.709 5.432 0 8.765 1.187 13.378 2.831 5.229 1.902 11.79 4.288 21.509 4.288 17.107 0 30.553-4.633 39.964-13.771a42.785 42.785 0 0 0 3.878-4.315 14.04 14.04 0 0 0 13.997 15.139h54.119a14.48 14.48 0 0 0 6.122 1.336c4.163 0 8.167-1.675 13.477-5.69.517.205 1.031.417 1.558.599a36.578 36.578 0 0 0 11.93 1.98c15.884 0 31.836-10.063 43.335-26.136 1.028 15.685 12.855 30.859 34.579 30.859 11.826 0 21.171-4.518 27.774-13.428 4.968-6.704 7.749-14.886 10.969-24.36 4.77-14.041 10.175-29.953 24.63-44.983l.115-.121c6.118-6.514 13.242-12.382 21.78-17.939 6.319-4.112 8.262-12.481 4.401-18.957Z" fill="url(#i)"/><path d="M741.155 34.546c7.315 0 14.835 2.164 21.494 4.08l.286.081c5.72 1.618 11.123 3.147 15.335 3.147 4.62 0 8.752-1.544 12.632-4.722a8.564 8.564 0 0 1 6.885-1.805 8.534 8.534 0 0 1 5.861 4.039l12.948 21.72a8.515 8.515 0 0 1-2.677 11.531c-8.912 5.8-16.366 11.944-22.784 18.778l-.075.079c-15.305 15.913-20.92 32.443-25.874 47.028-3.071 9.036-5.723 16.84-10.179 22.853-5.586 7.538-13.226 11.203-23.355 11.203-18.931 0-28.252-12.917-29.09-25.719l-1.006-15.358-8.955 12.517c-10.678 14.926-25.206 23.836-38.862 23.836-3.487 0-6.899-.565-10.141-1.68-.31-.107-.665-.249-1.041-.399l-.274-.109-2.878-1.145-2.471 1.868c-5.334 4.033-8.129 4.577-10.16 4.577a8.984 8.984 0 0 1-3.807-.825l-1.101-.511h-55.332a8.554 8.554 0 0 1-6.959-3.59 8.56 8.56 0 0 1-1.555-5.619l1.424-18.17-11.238 14.349a37.226 37.226 0 0 1-3.38 3.76c-8.349 8.107-20.506 12.217-36.133 12.217-8.75 0-14.53-2.102-19.663-3.969-4.744-1.69-8.841-3.15-15.224-3.15-5.348 0-14.787 2.684-20.465 5.171a8.478 8.478 0 0 1-3.419.721 8.561 8.561 0 0 1-7.79-5.028l-9.206-20.378c-1.847-4.089-.192-8.945 3.768-11.054 4.401-2.344 16.03-8.732 28.917-17.402l7.482-5.034-7.9-4.348c-8.112-4.465-12.955-12.882-12.955-22.516 0-13.083 6.697-26.205 18.374-36.001 11.252-9.44 26.055-14.854 40.612-14.854 15.069 0 27.994 3.673 37.377 10.622 9.1 6.739 14.42 16.141 15.382 27.189l.877 10.061 7.976-6.194L620.599 39.3a8.58 8.58 0 0 1 5.238-1.795h52.583c.459 0 .921.037 1.373.111l.089.014.089.012c2.725.354 5.341.971 7.781 1.835a38.208 38.208 0 0 1 10.677 5.854l3.703 2.871 3.423-3.2c.216-.201.444-.394.68-.572 8.978-6.792 24.395-9.885 34.92-9.885m0-5.499c-11.796 0-28.194 3.401-38.238 10.999-.39.295-.763.609-1.118.941-3.741-2.899-7.834-5.144-12.213-6.693a43.391 43.391 0 0 0-8.906-2.104 13.995 13.995 0 0 0-2.259-.183h-52.583a14.039 14.039 0 0 0-8.612 2.951L569.463 72.05c-1.091-12.525-7.24-23.468-17.588-31.131-10.337-7.655-24.394-11.702-40.651-11.702-15.83 0-31.921 5.883-44.147 16.14-12.926 10.844-20.339 25.502-20.339 40.215 0 11.94 6.309 22.109 15.802 27.334-12.746 8.575-24.308 14.914-28.432 17.11-6.531 3.478-9.242 11.429-6.195 18.173l9.206 20.378c2.343 5.186 7.451 8.263 12.802 8.263 1.882 0 3.793-.38 5.625-1.183 5.086-2.227 13.835-4.709 18.259-4.709 5.432 0 8.765 1.187 13.378 2.831 5.229 1.902 11.79 4.288 21.509 4.288 17.107 0 30.553-4.633 39.964-13.771a42.785 42.785 0 0 0 3.878-4.315 14.04 14.04 0 0 0 13.997 15.139h54.119a14.48 14.48 0 0 0 6.122 1.336c4.163 0 8.167-1.675 13.477-5.69.517.206 1.031.417 1.558.599a36.578 36.578 0 0 0 11.93 1.98c15.884 0 31.836-10.063 43.335-26.136 1.028 15.685 12.855 30.859 34.579 30.859 11.826 0 21.171-4.518 27.774-13.428 4.968-6.704 7.749-14.886 10.969-24.36 4.77-14.041 10.174-29.953 24.63-44.983l.115-.121c6.118-6.514 13.242-12.382 21.78-17.939 6.319-4.112 8.262-12.481 4.401-18.957l-12.948-21.719a14.042 14.042 0 0 0-20.954-3.674c-2.897 2.372-5.803 3.477-9.147 3.477-3.448 0-8.495-1.428-13.838-2.939l-.287-.081c-6.991-2.012-14.913-4.288-22.991-4.288Z" fill="url(#j)"/><path d="m698.878 116.774-7.217-2.401c-.036-.011-.075-.023-.111-.028a.66.66 0 0 0-.546.211.99.99 0 0 0-.255.764l.029.343c.079.937.167 1.881.196 2.822a66 66 0 0 1 .007 3.386c-.007.375.19.703.484.801l4.737 1.583a79.058 79.058 0 0 1-1.662 3.741l6.514 2.267a97.973 97.973 0 0 0 3.059-7.565c2.889-8.115 4.59-16.384 5.146-24.374h-7.122c-.298 6.024-1.381 12.262-3.258 18.449Zm-71.175-17.02 7.194 2.398a.638.638 0 0 0 .658-.189c.19-.188.281-.483.258-.766a71.336 71.336 0 0 1-.262-3.515c-.029-1.035-.013-2.035 0-3.038.007-.379-.19-.703-.484-.801l-4.695-1.567c9.023-21.88 26.208-36.845 42.811-36.845 1.907 0 3.779.227 5.598.636l-3.514 10.665a.952.952 0 0 0 .118.859c.108.16.265.249.435.268a.546.546 0 0 0 .255-.023c.9-.289 1.852-.599 2.777-.792.89-.196 1.802-.326 2.794-.388.285-.021.54-.245.641-.566l2.562-7.775a25.93 25.93 0 0 1 3.187 2.02 201.63 201.63 0 0 1 3.271-2.88c.936-.811 1.874-1.623 2.823-2.472.468-.414.932-.72 1.348-.957-3.118-2.908-6.661-5.112-10.573-6.495-2.09-.741-4.266-1.217-6.491-1.474l.007-.01h-52.583l-74.381 57.765-5.705 16.624h-17.447c-.595 10.827-10.38 15.533-15.451 15.533-4.217 0-6.635-1.331-8.974-2.611-2.558-1.405-5.188-2.844-10.623-2.844h-7.632l5.558-1.79c40.936-13.214 64.416-32.385 64.416-52.602 0-19.966-17.421-32.864-44.374-32.864-26.401 0-50.446 20.179-50.446 42.315 0 9.744 7.129 17.059 16.6 17.059 8.522 0 17.336-6.317 17.336-16.909 0-1.662-.455-4.034-1.138-5.872-.723-2.104-.02-5.038 1.861-7.65 2.179-3.074 5.365-4.902 8.512-4.902 6.33 0 9.53 3.55 9.53 10.531 0 20.494-47.149 50.935-72.771 64.581l9.206 20.378c5.722-2.506 16.567-5.889 23.892-5.889 7.881 0 13.092 1.865 18.134 3.661 4.956 1.803 9.641 3.458 16.753 3.458 26.794 0 40.112-12.965 40.753-39.538.016-.317.036-.612.036-.919 0-.043.007-.432.007-.923h44.073l-3.625 10.375h-13.662l-9.742 28.056h54.663c.039-.389.101-.779.219-1.165l.484-1.547c.344-1.08.684-2.164.998-3.247 1.289-4.47 3.278-8.388 5.598-12.001-5.241-11.948-5.512-27.814-.792-43.357Zm-27.516 4.421h-22.285l31.622-27.237-9.337 27.237Zm196.126-60.434c-5.401 4.423-11.47 6.654-18.042 6.654-5.486 0-11.552-1.742-17.977-3.559-6.451-1.857-13.106-3.749-19.138-3.749-9.51 0-22.721 2.825-29.767 8.156L697.616 93.3h27.121l4.482-14.161.249-.198c2.755-2.099 6.026-2.956 11.251-2.956 2.061 0 3.749.608 5.539 1.282 2.022.738 4.112 1.495 7.08 1.495 5.349 0 10.551-1.194 15.013-3.461l.975 1.556c-43.167 33.194-58.291 46.719-58.291 68.109 0 9.487 6.396 19.053 20.62 19.053 15.837 0 19.662-11.238 25.449-28.266 4.989-14.687 11.202-32.936 27.804-50.198 6.834-7.277 14.8-13.876 24.356-20.095l-12.948-21.719ZM668.695 106.98c.6.975.963 2.11.963 3.339a6.396 6.396 0 0 1-6.397 6.396 6.41 6.41 0 0 1-1.232-.124c-4.027 6.489-19.57 31.504-22.02 35.085-2.818 4.121-12.302 11.576-13.524 10.654-1.222-.924 2.089-10.086 4.982-14.625 3.326-5.897 21.476-28.329 26.268-34.218-.538-.937-.87-2.009-.87-3.167a6.397 6.397 0 0 1 6.396-6.397c.363 0 .713.049 1.06.108 3.783-6.096 19.686-31.694 22.166-35.321 2.818-4.12 12.302-11.576 13.524-10.652 1.222.923-2.089 10.084-4.982 14.624-3.34 5.923-21.639 28.531-26.334 34.3Z" fill="url(#k)"/><path d="M741.155 44.947c5.848 0 12.635 1.953 18.632 3.679l.317.09c6.434 1.82 12.512 3.54 18.166 3.54 6.334 0 12.217-1.937 17.517-5.763l10.966 18.393c-8.966 5.974-16.568 12.331-23.188 19.381-16.912 17.583-23.185 36.05-28.225 50.889-5.723 16.84-9.178 27.004-23.688 27.004-12.959 0-18.76-8.635-18.76-17.193 0-20.537 14.922-33.843 57.565-66.635a1.86 1.86 0 0 0 .442-2.462l-.975-1.556a1.859 1.859 0 0 0-2.418-.67c-4.197 2.132-9.097 3.259-14.17 3.259-2.653 0-4.494-.672-6.424-1.376-1.745-.657-3.722-1.402-6.194-1.402-5.682 0-9.268.967-12.409 3.36l-.249.198c-.289.23-.503.541-.615.894l-4.071 12.862h-23.192l12.789-39.051c6.858-4.887 19.264-7.442 28.185-7.442m-229.931.172c25.827 0 42.514 12.17 42.514 31.004 0 19.355-23.009 37.883-63.126 50.832l-5.558 1.79a1.86 1.86 0 0 0 .571 3.63h7.632c4.967 0 7.279 1.27 9.758 2.632 2.42 1.323 5.163 2.823 9.838 2.823 5.422 0 15.57-4.583 17.136-15.533h15.763a1.86 1.86 0 0 0 1.759-1.256l5.525-16.099 73.439-57.033h51.746c2.149.249 4.188.713 6.063 1.377 2.947 1.042 5.71 2.599 8.24 4.639-.733.65-1.46 1.281-2.185 1.909l-.249.216c-.672.582-1.425 1.236-2.197 1.92a25.604 25.604 0 0 0-2.175-1.298 1.86 1.86 0 0 0-2.636 1.063l-2.349 7.131c-.779.078-1.527.197-2.26.359-.272.057-.544.122-.814.193l2.888-8.767a1.863 1.863 0 0 0-1.358-2.397 27.453 27.453 0 0 0-6.006-.682c-17.263 0-35.158 15.269-44.53 37.996a1.859 1.859 0 0 0 1.131 2.473l3.898 1.301c-.009.777-.013 1.578.011 2.423.032.712.079 1.412.132 2.07l-5.534-1.845a1.856 1.856 0 0 0-1.442.113c-.446.23-.78.631-.926 1.112-4.747 15.628-4.562 31.496.479 43.729-2.431 3.926-4.165 7.747-5.291 11.652a135.344 135.344 0 0 1-.986 3.21l-.44 1.407H569.15l8.451-24.336h12.339c.791 0 1.495-.5 1.756-1.247l3.625-10.375a1.858 1.858 0 0 0-1.756-2.473h-44.073a1.86 1.86 0 0 0-1.86 1.86c0 .369-.004.679-.006.82v.103c0 .217-.013.427-.025.647l-.009.177-.002.051c-.311 12.905-3.584 22.209-10.006 28.444-6.43 6.243-15.879 9.279-28.888 9.279-6.918 0-11.387-1.625-16.118-3.346a1.252 1.252 0 0 1-.056-.02c-5.179-1.845-10.535-3.753-18.714-3.753-7.206 0-17.033 2.97-22.941 5.336l-7.747-17.148c7.61-4.123 27.289-15.254 44.739-29.081 18.236-14.45 27.482-26.668 27.482-36.317 0-7.99-4.045-12.391-11.39-12.391-3.756 0-7.506 2.126-10.022 5.676-2.256 3.133-3.045 6.625-2.095 9.386.602 1.618 1.022 3.766 1.022 5.224 0 9.42-7.868 15.049-15.476 15.049-8.403 0-14.74-6.534-14.74-15.199 0-21.173 23.158-40.455 48.586-40.455m66.676 60.912h22.285a1.86 1.86 0 0 0 1.76-1.257l9.337-27.237a1.86 1.86 0 0 0-2.973-2.013l-31.622 27.237a1.862 1.862 0 0 0 1.214 3.27M699.839 59.83h.005-.005m-1.703.867c-.715 2.825-2.678 7.85-4.676 10.984a2.452 2.452 0 0 0-.052.086c-2.568 4.553-15.195 20.569-26.156 34.04a1.86 1.86 0 0 0-.141 2.149c.456.741.687 1.536.687 2.363a4.542 4.542 0 0 1-4.537 4.536c-.281 0-.567-.029-.873-.089a1.86 1.86 0 0 0-1.939.844c-3.233 5.209-19.486 31.378-21.975 35.016-2.045 2.989-7.242 7.243-10.114 9.063.715-2.825 2.677-7.85 4.676-10.985l.052-.086c3.32-5.887 22.316-29.32 26.091-33.958a1.859 1.859 0 0 0 .17-2.1c-.413-.72-.623-1.474-.623-2.241a4.542 4.542 0 0 1 4.536-4.537c.234 0 .499.039.749.082a1.861 1.861 0 0 0 1.891-.853c3.254-5.244 19.615-31.588 22.121-35.251 2.045-2.99 7.242-7.243 10.114-9.062m9.104 39.486c-.684 7.35-2.323 14.705-4.881 21.89a96.645 96.645 0 0 1-2.313 5.87l-2.961-1.031c.3-.673.577-1.319.837-1.95a1.86 1.86 0 0 0-1.131-2.471l-3.94-1.317c.012-.874.014-1.792-.019-2.748a36.298 36.298 0 0 0-.103-1.738l5.561 1.85a1.85 1.85 0 0 0 1.442-.113c.446-.231.779-.632.925-1.112 1.725-5.686 2.809-11.439 3.228-17.13h3.356m33.913-57.097c-9.51 0-22.721 2.825-29.767 8.156L697.615 93.3h27.121l4.482-14.161.249-.198c2.755-2.099 6.026-2.956 11.251-2.956 2.061 0 3.749.608 5.539 1.282 2.022.738 4.112 1.495 7.08 1.495 5.349 0 10.551-1.194 15.013-3.461l.975 1.556c-43.167 33.194-58.291 46.718-58.291 68.109 0 9.487 6.396 19.053 20.62 19.053 15.837 0 19.662-11.238 25.449-28.266 4.989-14.687 11.202-32.936 27.804-50.198 6.834-7.277 14.8-13.876 24.356-20.095l-12.948-21.719c-5.401 4.423-11.47 6.654-18.042 6.654-5.486 0-11.552-1.742-17.977-3.559-6.451-1.857-13.106-3.749-19.138-3.749Zm-229.93.171c-26.401 0-50.446 20.179-50.446 42.315 0 9.744 7.129 17.059 16.6 17.059 8.522 0 17.336-6.317 17.336-16.909 0-1.662-.455-4.034-1.138-5.872-.723-2.104-.02-5.038 1.861-7.65 2.179-3.074 5.365-4.902 8.512-4.902 6.33 0 9.53 3.55 9.53 10.531 0 20.494-47.149 50.936-72.771 64.581l9.206 20.378c5.722-2.506 16.567-5.889 23.892-5.889 7.881 0 13.092 1.865 18.134 3.661 4.956 1.803 9.641 3.458 16.753 3.458 26.794 0 40.112-12.965 40.753-39.538.016-.317.036-.612.036-.919 0-.043.007-.432.007-.923h44.073l-3.625 10.375h-13.662l-9.742 28.056h54.663c.039-.389.101-.779.219-1.165l.484-1.547c.344-1.08.684-2.164.998-3.247 1.289-4.47 3.278-8.388 5.598-12.001-5.241-11.948-5.512-27.814-.792-43.357l7.194 2.398a.544.544 0 0 0 .185.029c.169 0 .34-.075.472-.218.19-.188.281-.483.258-.766a71.336 71.336 0 0 1-.262-3.515c-.029-1.035-.013-2.035 0-3.038.007-.379-.19-.703-.484-.801l-4.695-1.567c9.023-21.88 26.208-36.845 42.811-36.845 1.907 0 3.779.227 5.598.636l-3.514 10.665a.952.952 0 0 0 .118.859c.108.16.265.249.435.268a.532.532 0 0 0 .255-.023c.9-.289 1.852-.599 2.778-.792.89-.196 1.802-.326 2.794-.388.285-.021.54-.245.641-.566l2.562-7.775a25.93 25.93 0 0 1 3.187 2.02 201.63 201.63 0 0 1 3.271-2.88c.936-.811 1.875-1.623 2.823-2.472.468-.414.932-.72 1.348-.957-3.118-2.908-6.661-5.112-10.573-6.495-2.09-.741-4.266-1.217-6.491-1.474l.007-.01h-52.583l-74.381 57.765-5.705 16.624h-17.447c-.595 10.827-10.38 15.533-15.451 15.533-4.217 0-6.635-1.331-8.974-2.611-2.558-1.405-5.188-2.845-10.622-2.845h-7.632l5.558-1.79c40.936-13.214 64.416-32.384 64.416-52.602 0-19.966-17.421-32.864-44.374-32.864Zm66.677 60.917 31.622-27.237-9.337 27.237h-22.285Zm121.82-46.197c-2.001 0-10.578 6.847-13.235 10.731-2.48 3.627-18.382 29.224-22.166 35.321a6.285 6.285 0 0 0-1.06-.108 6.397 6.397 0 0 0-6.396 6.397c0 1.158.332 2.23.87 3.167-4.793 5.889-22.943 28.321-26.268 34.218-2.894 4.539-6.204 13.701-4.982 14.625a.47.47 0 0 0 .289.078c1.999 0 10.579-6.848 13.235-10.732 2.45-3.581 17.993-28.596 22.02-35.085.399.078.81.124 1.232.124a6.396 6.396 0 0 0 6.397-6.396 6.337 6.337 0 0 0-.964-3.339c4.695-5.769 22.994-28.377 26.334-34.3 2.894-4.539 6.204-13.701 4.982-14.624a.471.471 0 0 0-.29-.079Zm9.536 40.346h.005-.005Zm0 0h-7.122c-.298 6.024-1.38 12.261-3.258 18.45l-7.217-2.401c-.036-.011-.075-.023-.111-.028-.022-.002-.044-.004-.066-.004a.668.668 0 0 0-.48.215.99.99 0 0 0-.255.764l.029.343c.079.937.167 1.881.196 2.822a66 66 0 0 1 .007 3.386c-.007.375.19.703.484.801l4.737 1.583a79.058 79.058 0 0 1-1.662 3.741l6.514 2.267a97.973 97.973 0 0 0 3.059-7.565c2.889-8.115 4.59-16.384 5.146-24.374Z" fill="url(#l)"/></svg>