<svg xmlns="http://www.w3.org/2000/svg" viewBox="0 0 145.38 162.52" width="145.38" height="162.52"><g data-name="Layer 2"><g data-name="Layer 1"><path fill="#444" d="M14.07 0C5.26 0 0 7 0 18.75v125c0 11.74 5.26 18.75 14.07 18.75a24.71 24.71 0 0 0 12-3.7l108.26-62.49c7.12-4.11 11-9.46 11-15s-3.93-10.93-11-15.05L26.06 3.7a24.65 24.65 0 0 0-12-3.7Z"/><path fill="#aaa" d="M35.08 115.53V51.84l55.16 31.84-55.16 31.85z"/><path fill="#444" d="m32.65 117.31 62.43-36h46.71c0 4.26-3.28 8.5-9.25 11.94L24.27 155.72a21.22 21.22 0 0 1-10.2 3.22c-9.46 0-10.49-10.61-10.49-15.17V81.26h29.07Z"/><path d="M14.07 3.58a21.14 21.14 0 0 1 10.2 3.23l108.27 62.51c6 3.44 9.25 7.68 9.25 11.94h-46.7l-62.44-36v36H3.58V18.75c0-4.56 1.03-15.17 10.49-15.17Z" fill="#555"/></g></g></svg>