<svg xmlns="http://www.w3.org/2000/svg" width="64" height="62" viewBox="0 0 64 62"><path d="M62.937 14.28c-.58-1.04-1.62-1.64-2.86-1.64-.82 0-1.7.26-2.62.76l-1.8 1a29.821 29.821 0 0 0-16.68-12.22c-2.7-.78-5.5-1.18-8.3-1.18-13.28 0-25.14 8.94-28.82 21.72-4.56 15.9 4.64 32.54 20.54 37.1 2.7.78 5.5 1.18 8.28 1.18 5.36 0 10.66-1.46 15.3-4.22 1.28-.8 2.22-2.56 1.4-4.64-.72-1.84-3.88-7.68-4.92-8.96-.7-.88-1.68-1.36-2.78-1.36-.94 0-1.64.36-1.84.48-2.16 1.3-4.58 1.98-7.06 1.98-1.28 0-2.54-.18-3.78-.54-7.16-2.06-11.36-9.46-9.34-16.48 1.62-5.62 6.9-9.56 12.86-9.56 1.28 0 2.56.18 3.8.54 2.6.74 4.9 2.24 6.62 4.26l-3.24 1.8c-3.26 1.8-2.14 4.24-1.88 4.72.36.66.98 1.28 1.78 1.74 1.36.8 15.24 6.08 16.82 6.58.54.18 1.08.26 1.6.26.76 0 1.46-.18 2.08-.54.82-.46 1.9-1.46 2.4-3.58.38-1.56 2.66-15.44 2.8-17.06.06-.8-.08-1.54-.42-2.16l.06.02Z"/><path d="M58.597 35.04c-.26 1.12-.76 1.92-1.44 2.3-.72.4-1.54.28-2.1.1-2-.62-15.4-5.8-16.4-6.4-.46-.28-.86-.64-1.04-.98-.4-.72-.04-1.38 1.1-2l5.22-2.9c-1.96-3.2-5.1-5.72-9.02-6.84-8.24-2.36-16.8 2.28-19.14 10.38-2.32 8.1 2.46 16.6 10.7 18.96 4.36 1.26 8.82.52 12.4-1.64 0 0 1.18-.68 2.04.4.86 1.06 3.94 6.74 4.62 8.44.58 1.48-.56 2.18-.56 2.18-6.4 3.8-14.28 5.06-22.02 2.84-14.86-4.24-23.44-19.76-19.16-34.6 4.28-14.84 19.76-23.46 34.62-19.18 7.28 2.1 13.04 6.88 16.54 12.96l3.46-1.92c1.3-.72 2.32-.68 2.76.1.16.28.22.62.18 1.02-.14 1.52-2.4 15.32-2.76 16.78Z" fill="#fff"/></svg>