<svg xmlns="http://www.w3.org/2000/svg" viewBox="0 0 64.3 64.3" xml:space="preserve" width="64.3" height="64.3"><switch><g><path d="M37.7 55.6c0 5.4-3.3 8.5-9.2 8.5-5.8 0-9.2-3.1-9.2-8.5s3.3-8.5 9.2-8.5c5.9 0 9.2 3.1 9.2 8.5zm12.5-51A37 37 0 0 0 30.8 0c-4 0-8.3.5-12.6 1.4-4.4.9-8.2 2.3-11.2 4-.6.4-1.1 1.1-1.1 1.9v2c0 1.1.2 2.9.7 5.3C7.2 17 8 19.2 9 20.8c.4.6 1.1 1 1.8 1h9.6c.7 0 1.4-.4 1.8-1 1.1-1.7 1.8-3.9 2.1-6.6 1.9-.6 4-.8 6.1-.8 8.2 0 8.2 3.1 8.2 4.3 0 1.4-.6 2.8-1.9 4.1a21.1 21.1 0 0 1-5.3 4 40 40 0 0 0-6.7 4.6c-2.3 2-3.8 3.7-4.5 5.3-.6 1.5-1 3.1-1 4.5 0 1.5.4 3.2 1.1 5.3.3.8 1.1 1.4 2 1.4H34c.6 0 1.3-.3 1.7-.8.4-.5.5-1.2.4-1.8V44c0-2 1.4-3.8 4.3-5.5l5.5-3.4c2-1.3 3.9-2.5 5.6-3.8 1.9-1.4 3.6-3.2 4.9-5.4 1.4-2.3 2.1-4.8 2.1-7.5a15.8 15.8 0 0 0-8.3-13.8z"/><path fill="#FFF" d="M22.2 47.3c-.7-1.9-1-3.4-1-4.6 0-1.2.3-2.4.8-3.7.5-1.3 1.8-2.8 3.9-4.5 2-1.7 4.2-3.2 6.3-4.4 2.2-1.2 4.1-2.7 5.8-4.4a8 8 0 0 0 2.5-5.6c0-4.2-3.4-6.4-10.3-6.4-2.8 0-5.5.5-8.1 1.4a15 15 0 0 1-1.9 7h-9.6c-.9-1.5-1.5-3.4-2-5.6-.5-2.3-.7-3.9-.7-4.9v-2c2.9-1.6 6.4-2.9 10.6-3.8 4.2-.9 8.2-1.4 12.1-1.4 7.4 0 13.6 1.4 18.3 4.3C53.7 11.6 56 15.6 56 21c0 2.3-.6 4.5-1.8 6.4-1.2 2-2.6 3.5-4.3 4.8l-5.5 3.7-5.5 3.4c-3.6 2-5.3 4.5-5.3 7.3l.1.8H22.2zm6.3 17c-4.7 0-7.1-2.1-7.1-6.4 0-4.3 2.4-6.4 7.1-6.4s7.1 2.1 7.1 6.4c0 4.3-2.4 6.4-7.1 6.4z"/></g></switch></svg>