<svg xmlns="http://www.w3.org/2000/svg" viewBox="0 0 57.14 57.14" width="57.14" height="57.14"><g data-name="Layer 2"><g data-name="Layer 1"><path d="M26.84 3.46A26.84 26.84 0 1 0 53.69 30.3 26.87 26.87 0 0 0 26.84 3.46Zm0 49.36A22.52 22.52 0 1 1 49.37 30.3a22.52 22.52 0 0 1-22.53 22.52Zm1.57-18.88 8.17 8.17L34 44.75l-9.27-9.26V14.67h3.73Z" opacity=".25"/><path d="M30.3 0a26.85 26.85 0 1 0 26.84 26.84A26.87 26.87 0 0 0 30.3 0Zm0 49.37a22.53 22.53 0 1 1 22.52-22.53A22.53 22.53 0 0 1 30.3 49.37Zm1.57-18.88L40 38.66l-2.6 2.63L28.14 32V11.21h3.73Z" fill="#fff"/></g></g></svg>