<svg xmlns="http://www.w3.org/2000/svg" viewBox="0 0 54.18 52" width="54.18" height="52"><g data-name="Layer 2"><g data-name="Layer 1"><path d="m27.09 2-3 6.13-4.8 9.67-10.67 1.55-6.77 1 4.9 4.77 7.72 7.53-1.82 10.62L11.49 50l6.05-3.18 9.55-5 9.54 5L42.69 50l-1.16-6.74-1.82-10.62 7.72-7.53 4.9-4.77-6.77-1-10.67-1.54-4.74-9.67L27.09 2Z" stroke="#000" stroke-width="4" stroke-linejoin="round"/><path d="m27.09 4-3 6.13-4.8 9.67-10.67 1.55-6.77 1 4.9 4.77 7.72 7.53-1.82 10.62L11.49 52l6.05-3.18 9.55-5 9.54 5L42.69 52l-1.16-6.74-1.82-10.62 7.72-7.53 4.9-4.77-6.77-1-10.67-1.54-4.74-9.67L27.09 4Z" fill="#fff"/></g></g></svg>