<svg xmlns="http://www.w3.org/2000/svg" viewBox="0 0 64.3 64.3" xml:space="preserve" width="64.3" height="64.3"><switch><g><path d="M42.8 20.6v41.5c0 1.2-1 2.2-2.2 2.2H23.8c-1.2 0-2.2-1-2.2-2.2V20.6c0-1.2 1-2.2 2.2-2.2h16.7c1.3-.1 2.3.9 2.3 2.2zM19.1 33.7H2.4c-1.2 0-2.2 1-2.2 2.2v26.2c0 1.2 1 2.2 2.2 2.2h16.7c1.2 0 2.2-1 2.2-2.2V35.9c0-1.2-1-2.2-2.2-2.2zM62 0H45.2C44 0 43 1 43 2.2V62c0 1.2 1 2.2 2.2 2.2H62c1.2 0 2.2-1 2.2-2.2V2.2C64.2 1 63.2 0 62 0z"/><path fill="#FFF" d="M45.2 4.5H62v59.8H45.2V4.5zM23.8 64.3h16.7V22.8H23.8v41.5zm-21.4 0h16.7V38.1H2.4v26.2z"/></g></switch></svg>