<svg xmlns="http://www.w3.org/2000/svg" viewBox="0 0 64.32 64.32" width="64.32" height="64.32"><g data-name="Layer 2"><g data-name="Layer 1"><path d="m60.49 42-.09-.08-13.75-13.77A23.63 23.63 0 0 0 40.21 6.9 23.39 23.39 0 0 0 23.56 0a23.71 23.71 0 0 0-6.49.91A2.56 2.56 0 0 0 16 5.18l11.6 11.64-2.28 8.5-8.5 2.28L5.18 16a2.55 2.55 0 0 0-1.81-.75 2.74 2.74 0 0 0-.64.08 2.57 2.57 0 0 0-1.82 1.74 23.54 23.54 0 0 0 22.63 30 23.88 23.88 0 0 0 4.62-.45l13.66 13.69.17.18A13.08 13.08 0 0 0 60.49 42Z"/><path d="m58.68 46.36-.13-.12-14.72-14.72A21 21 0 0 0 17.77 5.93l12.68 12.68L27.41 30l-11.36 3L3.37 20.33A21 21 0 0 0 29 46.39l14.63 14.67.17.18a10.52 10.52 0 0 0 14.88-14.88ZM50.2 57.92l-3-3 1.09-4.07 4.07-1.09 3 3-1.09 4.07Z" fill="#fff"/></g></g></svg>