<svg xmlns="http://www.w3.org/2000/svg" viewBox="0 0 38.11 41.64" width="38.11" height="41.64"><g data-name="Layer 2"><g data-name="Layer 1"><path d="M14.3 2.56v36.52a2.56 2.56 0 0 1-2.56 2.56H2.56A2.56 2.56 0 0 1 0 39.08V2.56A2.56 2.56 0 0 1 2.56 0h9.18a2.56 2.56 0 0 1 2.56 2.56ZM35.55 0h-9.17a2.56 2.56 0 0 0-2.56 2.56v36.52a2.55 2.55 0 0 0 2.56 2.56h9.17a2.55 2.55 0 0 0 2.56-2.56V2.56A2.56 2.56 0 0 0 35.55 0Z"/><path d="M11.74 41.64H2.56V5.12h9.18ZM35.55 5.12h-9.18v36.52h9.18Z" fill="#fff"/></g></g></svg>