<svg xmlns="http://www.w3.org/2000/svg" viewBox="0 0 68.07 64.91" width="68.07" height="64.91"><g data-name="Layer 2"><g data-name="Layer 1"><path d="m32.31 13.22 7.11 14.41 15.91 2.31-11.51 11.22L46.53 57l-14.22-7.47L18.08 57l2.71-15.85L9.28 29.94l15.91-2.31 7.12-14.41m0-9.76-3.88 7.85-6.11 12.37-13.66 2L0 26.93 6.27 33l9.88 9.63-2.33 13.65-1.48 8.63 7.75-4.08 12.22-6.42 12.21 6.42 7.75 4.08-1.48-8.63-2.33-13.61L58.34 33l6.27-6.11L56 25.67l-13.66-2-6.16-12.36-3.87-7.85Z" opacity=".25"/><path d="m35.76 9.76 7.12 14.42 15.9 2.31-11.51 11.22L50 53.55l-14.24-7.48-14.23 7.48 2.72-15.84-11.51-11.22 15.91-2.31 7.11-14.42m0-9.76-3.87 7.85-6.11 12.38-13.66 2-8.66 1.24 6.26 6.11 9.89 9.64-2.33 13.6-1.48 8.63 7.74-4.07L35.76 51 48 57.38l7.75 4.07-1.48-8.63-2.33-13.6 9.88-9.64 6.27-6.11-8.66-1.26-13.66-2-6.13-12.36L35.76 0Z" fill="#fff"/></g></g></svg>