<svg xmlns="http://www.w3.org/2000/svg" viewBox="0 0 63 74.5" width="54.39" height="64.32"><defs><path d="M74.1 48.1c0-13.5-7.4-21.6-16.1-24-.2-3.1-2.8-5.6-6-5.6s-5.8 2.5-6 5.6c-8.7 2.5-16.1 10.5-16.1 24 0 0 0 12.5-5.4 20.6 0 0-2.7 5.4 2.7 6.3h49.5c5.4-.9 2.7-6.3 2.7-6.3-5.3-8-5.3-20.6-5.3-20.6z" transform="translate(-23.05 -18)" id="a"/><path d="M52 87c5 0 9-4 9-9H43c0 4.9 4 9 9 9z" transform="translate(-23.05 -18)" id="b"/></defs><use href="#a" transform-origin="50% 109%" transform="matrix(1.11 0 0 1.09 2.75 7)"/><use href="#b" transform-origin="50% 109%" transform="matrix(1.36 0 0 1.4 3 9.75)"/><use href="#a" fill="#FFF" transform="translate(2.4 5)"/><use href="#b" fill="#FFF" transform="translate(2.4 5)"/></svg>