<svg xmlns="http://www.w3.org/2000/svg" viewBox="0 0 64.16 50.7" width="64.16" height="50.7"><g data-name="Layer 2"><g data-name="Layer 1"><path fill="#444" d="M50.67 4.36A29.08 29.08 0 0 0 35.46 0a27.35 27.35 0 0 0-22.58 11.78L6.72 6.71a3.59 3.59 0 0 0-2.24-.8A3.63 3.63 0 0 0 3 6.22a3.52 3.52 0 0 0-2 3.09L0 35.58a3.52 3.52 0 0 0 3.53 3.66 3.82 3.82 0 0 0 .75-.08l26-5.64a3.53 3.53 0 0 0 1.49-6.18l-6.42-5.27a18.19 18.19 0 0 1 11.32-4.21 15.59 15.59 0 0 1 8.15 2.29c7.88 4.85 9.77 16.14 4.21 25.18a3.53 3.53 0 0 0 5.31 4.52A27.84 27.84 0 0 0 60 43.31a28.35 28.35 0 0 0-9.33-38.95Z"/><path d="M49.64 8a27.11 27.11 0 0 0-14.18-4.07 25.39 25.39 0 0 0-21.77 12.18c-.12.19-.22.38-.33.58L5.47 10.2a1.59 1.59 0 0 0-1-.36 1.57 1.57 0 0 0-1.56 1.51L2 37.62a1.57 1.57 0 0 0 .56 1.26 1.59 1.59 0 0 0 1 .36 1.24 1.24 0 0 0 .33 0l26-5.64a1.54 1.54 0 0 0 1.19-1.16 1.57 1.57 0 0 0-.53-1.57l-8.17-6.77a20.49 20.49 0 0 1 14.33-6.24 17.55 17.55 0 0 1 9.19 2.59c8.79 5.41 11 17.92 4.85 27.87a1.57 1.57 0 0 0 2.35 2 26 26 0 0 0 5.2-6.09A26.38 26.38 0 0 0 49.64 8Z" fill="#aaa"/></g></g></svg>