<svg xmlns="http://www.w3.org/2000/svg" width="200" height="75" viewBox="3.817 8.388 45.314 8.459"><defs><linearGradient id="a" x1="257.204" y1="47.49" x2="257.204" y2="23.49" gradientUnits="userSpaceOnUse"><stop offset=".343" stop-color="#ff6"/><stop offset=".428" stop-color="#fff858"/><stop offset="1" stop-color="#fc0"/></linearGradient><linearGradient id="b" x1="257.253" y1="47.49" x2="257.253" y2="35.727" gradientUnits="userSpaceOnUse"><stop offset="0" stop-color="#ff0"/><stop offset="1" stop-color="#fc0"/></linearGradient></defs><path d="m48.966 11.93-.575.56-1.31 1.276.31 1.802.135.791a.34.34 0 0 1-.493.36l-.712-.374-1.617-.851-1.618.85-.711.374a.339.339 0 0 1-.358-.026.34.34 0 0 1-.135-.333l.135-.791.31-1.802-1.31-1.276-.575-.56a.34.34 0 0 1 .189-.58l.795-.117 1.809-.262.809-1.64.355-.72a.34.34 0 0 1 .61 0l.356.72.809 1.64 1.81.262.794.116a.34.34 0 0 1 .189.58Zm-9.33-.581-.794-.116-1.81-.262-.808-1.64-.356-.72a.34.34 0 0 0-.61 0l-.356.72-.808 1.64-1.809.262-.796.116a.34.34 0 0 0-.188.58l.576.561 1.308 1.276-.309 1.802-.136.791a.34.34 0 0 0 .494.36l.711-.374 1.618-.851 1.617.85.711.374a.34.34 0 0 0 .359-.026.34.34 0 0 0 .135-.333l-.136-.791-.309-1.802 1.31-1.276.575-.56a.34.34 0 0 0-.188-.58Zm-9.14 0-.796-.116-1.81-.262-.808-1.64-.356-.72a.34.34 0 0 0-.61 0l-.355.72-.809 1.64-1.808.262-.796.116a.34.34 0 0 0-.189.58l.576.56 1.308 1.277-.309 1.802-.135.791a.34.34 0 0 0 .493.359l.711-.373 1.618-.851 1.618.85.71.374a.34.34 0 0 0 .36-.026.34.34 0 0 0 .134-.333l-.135-.791-.31-1.802 1.31-1.276.576-.56a.34.34 0 0 0-.189-.581Zm-9.142 0-.795-.116-1.809-.262-.809-1.64-.356-.72a.34.34 0 0 0-.61 0l-.355.72-.809 1.64-1.808.262-.796.116a.34.34 0 0 0-.189.58l.576.561 1.309 1.276-.31 1.802-.135.791a.34.34 0 0 0 .493.36l.711-.374 1.618-.851 1.617.85.712.374a.34.34 0 0 0 .358-.026.34.34 0 0 0 .135-.333l-.135-.791-.31-1.802 1.31-1.276.575-.56a.34.34 0 0 0-.188-.58Zm-9.141 0-.795-.116-1.81-.262L8.8 9.33l-.356-.72a.34.34 0 0 0-.61 0l-.356.72-.809 1.64-1.808.262-.796.116a.34.34 0 0 0-.188.58l.575.56 1.309 1.277-.31 1.802-.135.791a.34.34 0 0 0 .493.359l.712-.373 1.618-.851 1.617.85.711.374a.34.34 0 0 0 .359-.026.34.34 0 0 0 .135-.333l-.136-.791-.309-1.802 1.309-1.276.576-.56a.34.34 0 0 0-.188-.581Z"/><path d="m44.704 9.102-.355.72-.888 1.8-1.986.288-.796.116.576.56 1.437 1.402-.34 1.978-.135.791.711-.373 1.776-.934 1.776.934.71.373-.135-.791-.34-1.978 1.438-1.401.576-.561-.795-.116-1.986-.288-.888-1.8-.356-.72Zm-9.14 0-.357.72-.888 1.8-1.985.288-.796.116.576.56 1.437 1.402-.34 1.978-.135.791.71-.373 1.777-.934 1.775.934.711.373-.135-.791-.34-1.978 1.438-1.401.576-.561-.795-.116-1.987-.288-.888-1.8-.355-.72Zm-9.142 0-.356.72-.888 1.8-1.986.288-.795.116.575.56 1.437 1.402-.34 1.978-.135.791.711-.373 1.776-.934 1.776.934.711.373-.135-.791-.34-1.978 1.437-1.401.576-.561-.795-.116-1.986-.288-.888-1.8-.356-.72Zm-9.142 0-.355.72-.888 1.8-1.986.288-.795.116.575.56 1.437 1.402-.34 1.978-.135.791.711-.373 1.776-.934 1.776.934.71.373-.135-.791-.34-1.978 1.438-1.401.576-.561-.795-.116-1.986-.288-.888-1.8-.356-.72Zm-9.141 0-.356.72-.888 1.8-1.985.288-.796.116.576.56 1.436 1.402-.339 1.978-.136.791.712-.373 1.776-.934 1.775.934.711.373-.135-.791-.34-1.978 1.437-1.401.576-.561-.795-.116-1.986-.288-.888-1.8-.355-.72Z" fill="#fc0"/><path d="m46.29 13.85.375 2.182-1.96-1.03-1.96 1.03.373-2.183-1.587-1.546 2.192-.319.981-1.986.98 1.986 2.192.319-1.585 1.546Zm-7.555-1.547-2.192-.319-.98-1.986-.98 1.986-2.193.319 1.588 1.546-.375 2.183 1.96-1.03 1.961 1.03-.374-2.183 1.585-1.546Zm-9.141 0-2.192-.319-.98-1.986-.981 1.986-2.192.319 1.587 1.546-.374 2.183 1.96-1.03 1.96 1.03-.374-2.183 1.586-1.546Zm-9.141 0-2.193-.319-.98-1.986-.98 1.986-2.193.319 1.588 1.546-.375 2.183 1.96-1.03 1.962 1.03-.375-2.183 1.586-1.546Zm-9.142 0-2.192-.319-.98-1.986-.98 1.986-2.193.319 1.587 1.546-.374 2.183 1.96-1.03 1.961 1.03-.374-2.183 1.585-1.546Z" fill="#f90"/><path d="m335.375 38.534 1.287 7.516-6.75-3.549-6.75 3.549 1.29-7.516-5.463-5.325 7.549-1.095 3.374-6.841 3.377 6.841 7.547 1.095-5.461 5.325Zm-30.893-5.325-7.547-1.095-3.377-6.841-3.374 6.841-7.549 1.095 5.463 5.325-1.29 7.516 6.75-3.549 6.75 3.549-1.287-7.516 5.461-5.325Zm-36.354 0-7.547-1.095-3.377-6.841-3.374 6.841-7.549 1.095 5.463 5.325-1.29 7.516 6.75-3.549 6.75 3.549-1.287-7.516 5.461-5.325Zm-36.355 0-7.547-1.095-3.377-6.841-3.374 6.841-7.549 1.095 5.463 5.325-1.29 7.516 6.75-3.549 6.75 3.549-1.287-7.516 5.461-5.325Zm-36.354 0-7.547-1.095-3.377-6.841-3.374 6.841-7.549 1.095 5.463 5.325-1.29 7.516 6.75-3.549 6.75 3.549-1.287-7.516 5.461-5.325Z" fill="url(#a)" transform="translate(-38.252 4.091) scale(.25145)"/><path d="M329.556 36.424c2.887 0 5.754-.191 8.532-.536l-2.713 2.645 1.287 7.516-6.75-3.549-6.75 3.549 1.29-7.516-2.615-2.549c2.522.282 5.11.44 7.72.44Zm-44.074-.44 2.615 2.549-1.29 7.516 6.75-3.549 6.75 3.549-1.287-7.516 2.713-2.645a69.62 69.62 0 0 1-8.532.536c-2.61 0-5.197-.158-7.72-.44Zm-36.354 0 2.615 2.549-1.29 7.516 6.75-3.549 6.75 3.549-1.287-7.516 2.713-2.645a69.62 69.62 0 0 1-8.532.536c-2.61 0-5.197-.158-7.72-.44Zm-36.355 0 2.615 2.549-1.29 7.516 6.75-3.549 6.75 3.549-1.287-7.516 2.713-2.645a69.62 69.62 0 0 1-8.532.536c-2.61 0-5.197-.158-7.72-.44Zm-36.354 0 2.615 2.549-1.29 7.516 6.75-3.549 6.75 3.549-1.287-7.516 2.713-2.645a69.62 69.62 0 0 1-8.532.536c-2.61 0-5.197-.158-7.72-.44Z" fill="url(#b)" transform="translate(-38.252 4.091) scale(.25145)"/></svg>