<svg xmlns="http://www.w3.org/2000/svg" viewBox="0 0 43.69 49.83" width="43.69" height="49.83"><g data-name="Layer 2"><g data-name="Layer 1"><path d="M22.66 24.92a.9 2 0 0 1-.45 1.73l-8.928 11.46L4.35 49.57a.923 2.05 0 0 1-.9 0A.9 2 0 0 1 3 47.83V2A.9 2 0 0 1 3.45.27a.9 2 0 0 1 .9 0l8.933 11.46 8.928 11.45a.9 2 0 0 1 .45 1.74Z"/><path d="M39.76 24.92a.9 2 0 0 1-.45 1.73l-8.928 11.46-8.932 11.46a.923 2.05 0 0 1-.9 0 .9 2 0 0 1-.45-1.74V2a.9 2 0 0 1 .45-1.73.9 2 0 0 1 .9 0l8.933 11.46 8.928 11.45a.9 2 0 0 1 .45 1.74Z"/><path fill="#fff" d="m21.76 26.92-8.928 11.46L3.9 49.83V4l8.933 11.46 8.928 11.46z"/><path fill="#fff" d="m38.86 26.92-8.927 11.46L21 49.83V4l8.933 11.46 8.928 11.46z"/></g></g></svg>