<svg xmlns="http://www.w3.org/2000/svg" viewBox="0 0 55.66 68.53" width="55.66" height="68.53"><defs><linearGradient id="a" x1="29.11" y1="63" x2="29.11" y2="45.04" gradientUnits="userSpaceOnUse"><stop offset="0" stop-color="#600"/><stop offset=".52" stop-color="#900"/><stop offset="1" stop-color="red"/></linearGradient><linearGradient id="b" x1="29.11" y1="63" x2="29.11" y2="45.04" gradientUnits="userSpaceOnUse"><stop offset="0" stop-color="red"/><stop offset=".9" stop-color="#900"/></linearGradient><linearGradient id="c" x1="29.11" y1="50.59" x2="29.11" y2="2.43" gradientUnits="userSpaceOnUse"><stop offset="0" stop-color="#fc0"/><stop offset="1" stop-color="#ff0"/></linearGradient><linearGradient id="d" x1="29.11" y1="50.59" x2="29.11" y2="2.43" gradientUnits="userSpaceOnUse"><stop offset="0" stop-color="#ff0"/><stop offset="1" stop-color="#fc0"/></linearGradient><linearGradient id="f" x1="29.55" y1="38.17" x2="29.55" y2="13.79" gradientUnits="userSpaceOnUse"><stop offset="0" stop-color="#330"/><stop offset="1"/></linearGradient><linearGradient id="g" x1="29.55" y1="39.49" x2="29.55" y2="12.16" gradientUnits="userSpaceOnUse"><stop offset="0" stop-color="#ff6"/><stop offset="1" stop-color="#f90"/></linearGradient><linearGradient id="h" x1="29.11" y1="28.11" x2="29.11" y2="10.82" gradientUnits="userSpaceOnUse"><stop offset="0" stop-color="#fff" stop-opacity=".35"/><stop offset=".88" stop-color="#fff"/></linearGradient><radialGradient id="e" cx="29.11" cy="26.51" r="18.54" gradientUnits="userSpaceOnUse"><stop offset="0" stop-color="#ff0"/><stop offset=".32" stop-color="#fffc00"/><stop offset=".57" stop-color="#fff200"/><stop offset=".8" stop-color="#ffe100"/><stop offset="1" stop-color="#fc0"/></radialGradient></defs><g data-name="Layer 2"><g data-name="Layer 1"><path fill-opacity=".25" d="m48.85 30.57 2.59-1.87 1.66-1.21-1.8-.98-2.8-1.53 2.04-2.46 1.31-1.58-1.98-.5-3.1-.79 1.37-2.89.87-1.85h-2.05l-3.19.01.61-3.13.38-2.02-1.98.52-3.09.8-.2-3.19-.12-2.05-1.8.99-2.79 1.55-.98-3.04-.63-1.95-1.49 1.4-2.33 2.19-1.7-2.7-1.1-1.73-1.09 1.73-1.71 2.7-2.32-2.19-1.49-1.4-.63 1.95-.99 3.04-2.79-1.55-1.8-.99-.12 2.05-.19 3.19-3.09-.8-1.99-.52.39 2.02.6 3.13-3.19-.01H4.09l.88 1.85 1.36 2.89-3.09.79-1.99.5 1.31 1.58 2.04 2.46-2.8 1.53-1.8.98 1.66 1.21 2.59 1.87-2.33 2.18-1.5 1.4 1.91.75 2.97 1.17-1.72 2.69-1.1 1.73 2.03.25 3.17.4-.99 3.03-.64 1.95 2.04-.26 3.16-.41-.2 3.19-.14 2.05 1.91-.76 2.97-1.18.23 1.26-5.53 10.81-1.18 2.31 2.52-.57 5.45-1.22 2.34 4.76 1.2 2.43 1.02-2.51 4.71-11.63 4.72 11.63 1.01 2.51 1.2-2.43 2.34-4.76 5.45 1.22 2.53.57-1.18-2.31-5.54-10.81.24-1.26 2.96 1.18 1.91.76-.13-2.05-.21-3.19 3.17.41 2.03.26-.64-1.95-.99-3.03 3.17-.4 2.03-.25-1.1-1.73-1.72-2.69 2.98-1.17 1.9-.75-1.49-1.4-2.34-2.18z"/><path d="m21.18 45 7.93 3.55L23.27 63l-2.76-5.62-6.38 1.44 7-13.78m-.56-1.57-.52 1-7 13.77-1.18 2.31 2.52-.55 5.45-1.22 2.34 4.76 1.2 2.46 1-2.51 5.84-14.41.46-1.08-1.07-.48-7.93-3.54-1.06-.47Z"/><path d="m37 45 7.05 13.78-6.38-1.44L35 63l-5.89-14.41L37 45m.56-1.57-1.05.47-7.93 3.54-1.03.56.45 1.05 5.83 14.41 1 2.51L36 63.54l2.34-4.76L43.83 60l2.53.57-1.18-2.31-7-13.77-.53-1Z"/><path d="M29.11 48.59 23.27 63l-2.76-5.62-6.38 1.44 7-13.78Zm0 0L35 63l2.76-5.62 6.38 1.44L37 45Z" fill="url(#a)"/><path d="m21.51 46 6.67 3-5 12.28-2.05-4.17-.25-.51-.56.12-4.88 1.1 6-11.8M21.18 45l-7 13.78 6.38-1.44L23.27 63l5.84-14.41L21.18 45Zm15.53 1 6 11.8-4.88-1.1-.55-.12-.25.51L35 61.24 30 49l6.67-3m.33-1-7.93 3.55L35 63l2.76-5.62 6.38 1.44L37 45Z" fill="url(#b)"/><path d="m29.11 2.43 2.55 4 3.46-3.26 1.47 4.53 4.17-2.3.29 4.75L45.66 9l-.9 4.68h4.77l-2 4.31 4.62 1.17-3 3.67 4.18 2.29-3.86 2.79 3.48 3.25-4.43 1.75 2.56 4-4.73.59 1.39 4.5-4.74-.59.31 4.75-4.41-1.76-.9 4.68-3.85-2.8-2 4.31-3-3.68-3 3.68-2-4.31-3.85 2.8-.88-4.68-4.52 1.76.31-4.75-4.73.59L12 37.49l-4.77-.59 2.57-4-4.44-1.77 3.48-3.25L5 25.09l4.16-2.29-3-3.67L10.74 18l-2-4.31h4.76L12.56 9l4.61 1.19.29-4.75 4.18 2.3 1.46-4.55 3.47 3.26 2.54-4m0-2.43L28 1.73l-1.71 2.7L24 2.24 22.5.84l-.63 2-1 3-2.78-1.56-1.8-1-.12 2.05L16 8.52l-3.09-.8-2-.51.39 2 .6 3.14H6.65l.88 1.85 1.36 2.89-3.09.79-2 .5L5.12 20l2 2.46L4.36 24l-1.8 1 1.66 1.21L6.81 28l-2.33 2.19L3 31.59l1.91.75 3 1.17-1.77 2.69L5 37.93l2 .25 3.16.4-1 3-.64 2 2-.26 3.16-.41-.2 3.19-.14 2.05 1.91-.76 3-1.18.59 3.13.38 2L21 50.13l2.57-1.88 1.36 2.89.85 1.86 1.3-1.58 2-2.47 2 2.47L32.45 53l.87-1.86 1.35-2.89 2.58 1.88 1.66 1.21.38-2 .59-3.13 3 1.18 1.91.76-.13-2.05-.21-3.19 3.17.41 2 .26-.64-2-1-3 3.17-.4 2-.25-1.1-1.73-1.71-2.69 3-1.17 1.9-.75-1.49-1.4L51.42 28 54 26.14l1.66-1.21-1.8-1-2.8-1.53 2-2.46 1.31-1.58-2-.5-3.1-.79 1.43-2.87.87-1.85h-5.24l.61-3.14.38-2-2 .51-3.09.8-.2-3.18-.12-2-1.8 1-2.77 1.49-1-3-.61-1.99-1.49 1.4-2.33 2.19-1.7-2.7L29.11 0Z"/><path fill="url(#c)" d="m29.11 2.43 2.55 4.03 3.46-3.27 1.47 4.53 4.17-2.3.29 4.75 4.61-1.19-.9 4.68 4.77-.01-2.04 4.31 4.62 1.17-3.05 3.67 4.18 2.29-3.86 2.79 3.48 3.26-4.43 1.74 2.56 4.02-4.73.59 1.48 4.53-4.73-.61.31 4.75-4.42-1.76-.89 4.68-3.85-2.81-2.02 4.32-3.03-3.68-3.03 3.68-2.02-4.32-3.85 2.81-.88-4.68-4.43 1.76.31-4.75-4.73.61 1.48-4.53-4.72-.59 2.56-4.02-4.44-1.74 3.48-3.26-3.86-2.79 4.18-2.29-3.04-3.67 4.61-1.17-2.03-4.31 4.76.01-.9-4.68 4.61 1.19.29-4.75 4.18 2.3 1.46-4.53 3.47 3.27 2.54-4.03z"/><path d="m29.11 3.77 1.94 3.07.47.74.63-.6 2.64-2.49 1.11 3.45.27.83.77-.42 3.17-1.75.22 3.62.05.87.85-.22 3.51-.87-.69 3.56-.16.86h4.5l-1.55 3.28-.38.79.85.21 3.51.9-2.31 2.79L48 23l.77.42 3.18 1.74L49 27.3l-.71.51.64.6 2.65 2.47-3.38 1.33-.81.32.47.74 2 3-3.6.45-.87.11.28.83 1.12 3.45-3.59-.47-.87-.11.06.88.23 3.61-3.37-1.34-.81-.32-.16.86-.67 3.56-2.93-2.14-.71-.51-.37.79-1.6 3.33-2.3-2.79-.56-.68-.55.68-2.31 2.79L24.71 46l-.37-.79-.7.51-2.93 2.14-.71-3.59-.17-.86-.81.32-3.37 1.34.24-3.61.05-.88-.86.11-3.6.47 1.13-3.45.27-.83-.87-.11-3.6-.45 2-3 .47-.74-.81-.32-3.38-1.38 2.64-2.47.64-.6-.71-.51-2.93-2.13 3.18-1.74.76-.42-.55-.67-2.32-2.79 3.51-.9.85-.21-.37-.79-1.55-3.28h4.5l-.17-.86-.69-3.51 3.51.91.85.22.05-.87.22-3.62 3.18 1.75.76.42.27-.83 1.11-3.45L26.07 7l.64.6.46-.74 1.94-3.07m0-1.34-2.54 4-3.47-3.26-1.46 4.53-4.18-2.3-.29 4.75L12.56 9l.9 4.68H8.7l2 4.31-4.58 1.14 3 3.67L5 25.09l3.86 2.79-3.5 3.25 4.44 1.75-2.57 4 4.73.59L10.48 42l4.73-.61-.31 4.75 4.43-1.76.88 4.68 3.85-2.8 2 4.31 3-3.68 3 3.68 2-4.31L38 49.08l.89-4.68 4.42 1.76-.31-4.75 4.73.61-1.48-4.53L51 36.9l-2.56-4 4.43-1.75-3.48-3.25 3.86-2.79-4.19-2.31 3-3.67L47.49 18l2-4.31h-4.73l.9-4.69-4.61 1.19-.29-4.75-4.17 2.3-1.47-4.55-3.46 3.26-2.55-4Z" fill="url(#d)"/><circle cx="29.11" cy="26.51" r="18.54" fill="url(#e)"/><path d="M29.11 7.41A19.1 19.1 0 1 1 10 26.51a19.12 19.12 0 0 1 19.11-19.1m0-.27a19.37 19.37 0 1 0 19.38 19.37A19.37 19.37 0 0 0 29.11 7.14Z" opacity=".1"/><path d="M29.11 7.41a19.1 19.1 0 1 0 19.1 19.1 19.12 19.12 0 0 0-19.1-19.1Zm0 37.91a18.82 18.82 0 1 1 18.82-18.81 18.83 18.83 0 0 1-18.82 18.81Z" opacity=".25"/><path d="M29.11 7.69a18.82 18.82 0 1 0 18.82 18.82A18.84 18.84 0 0 0 29.11 7.69Zm0 37.35a18.54 18.54 0 1 1 18.54-18.53A18.55 18.55 0 0 1 29.11 45Z" opacity=".45"/><path fill="url(#f)" d="m29.55 13.79 3.96 8.02 8.86 1.29-6.41 6.25 1.52 8.82-7.93-4.16-7.92 4.16 1.51-8.82-6.41-6.25 8.86-1.29 3.96-8.02z"/><path d="m29.55 13.79 4 8 8.86 1.29L36 29.35l1.52 8.82L29.55 34l-7.92 4.16 1.51-8.82-6.41-6.24 8.86-1.29 4-8m0-1.63-.64 1.31-3.8 7.69-8.48 1.23-1.45.21 1.05 1 6.14 6-1.45 8.45-.25 1.44 1.29-.7 7.59-4 7.59 4 1.29.68-.24-1.44-1.49-8.45 6.14-6 1-1-1.44-.21L34 21.16l-3.8-7.69-.65-1.31Z" fill="url(#g)"/><ellipse cx="29.11" cy="19.47" rx="12.38" ry="8.64" fill="url(#h)" opacity=".45"/></g></g></svg>