<svg xmlns="http://www.w3.org/2000/svg" viewBox="0 0 67.84 63.95" width="67.84" height="63.95"><g data-name="Layer 2"><g data-name="Layer 1"><path d="M67.07 29.67 65 32.32a3.59 3.59 0 0 1-2.81 1.36 3.65 3.65 0 0 1-2.19-.77l-.24-.19V53c0 .51 0 1.36.06 1.87a9.29 9.29 0 0 1-2.27 6.52A8.6 8.6 0 0 1 51 64h-9.57a3.58 3.58 0 0 1-3.58-3.58v-17.2H30v17.15A3.58 3.58 0 0 1 26.41 64h-9.54a8.61 8.61 0 0 1-6.56-2.55A9.29 9.29 0 0 1 8 54.88c0-.51.07-1.36.07-1.87V32.68l-.24.19a3.6 3.6 0 0 1-2.21.77 3.56 3.56 0 0 1-2.81-1.36L.77 29.67a3.58 3.58 0 0 1 .59-5L27.18 4.26l.53-.43L28.77 3 31.54.81a3.92 3.92 0 0 1 4.77 0L39.07 3l1.6 1.27 5.25 4.15a3.58 3.58 0 0 1 2.75-1.29h4.55a3.58 3.58 0 0 1 3.58 3.57V17l9.68 7.65a3.57 3.57 0 0 1 .59 5.02Z"/><path d="M51 64h-9.57a1 1 0 0 1-1-1V44.23a1 1 0 0 0-1-1H28.45a1 1 0 0 0-1 1v18.7a1 1 0 0 1-1 1h-9.58c-6.69 0-6.27-6.35-6.27-6.35 0-.56.07-1.47.07-2v-20a2.35 2.35 0 0 1 .8-1.64l21.64-16.56a1.41 1.41 0 0 1 1.62 0L56.37 34a2.36 2.36 0 0 1 .81 1.64v20c0 .56 0 1.47.06 2 0-.04.42 6.36-6.24 6.36Zm4-42.57a2.39 2.39 0 0 1-.8-1.65v-6.52a1 1 0 0 0-1-1h-4.53a1 1 0 0 0-1 1v1.32c0 .56-.36.73-.8.38l-7.79-6.14-1.6-1.26-2.76-2.18a1.35 1.35 0 0 0-1.6 0l-2.76 2.18-1.6 1.26L3 29.22a1 1 0 0 0-.17 1.43l2.09 2.64a1 1 0 0 0 1.43.17l26.77-21.19a1.35 1.35 0 0 1 1.6 0l26.83 21.19a1 1 0 0 0 1.45-.17l2.09-2.64a1 1 0 0 0-.17-1.43Z" fill="#fff"/></g></g></svg>