<svg xmlns="http://www.w3.org/2000/svg" width="68" height="62" viewBox="0 0 68 62"><path d="M.716 33.178c3.306-7.041 9.519-13.131 17.502-17.152 6.512-3.234 13.259-5.235 20.572-6.094V5.511c0-3.048 1.968-4.412 3.918-4.412.748 0 1.53.195 2.258.563 1.94.976 18.008 10.373 19.757 11.554 2.253 1.511 2.736 3.064 2.744 4.091.012.938-.348 2.321-2.134 3.58C63.41 22.244 46.94 32.51 45.172 33.283c-.927.405-1.903.628-2.749.628-2.242 0-3.635-1.508-3.635-3.935v-4.543a53.06 53.06 0 0 0-8.326-.669c-7.806 0-18.729 1.837-26.437 10.588A1.999 1.999 0 0 1 .714 33.18Zm64.773-7.204h-.02c-.029 0-.058 0-.087.002a1.98 1.98 0 0 0-1.384.642 1.504 1.504 0 0 0-.036.041c-7.706 8.743-18.624 10.578-26.428 10.578-2.744 0-5.538-.225-8.327-.669v-4.541c0-2.427-1.393-3.935-3.635-3.935-.846 0-1.822.223-2.749.628-1.758.765-18.235 11.033-20.163 12.394C.879 42.37.516 43.751.526 44.689c.008 1.031.491 2.583 2.743 4.097 1.756 1.186 17.827 10.581 19.762 11.553a5.058 5.058 0 0 0 2.257.562c1.95 0 3.918-1.365 3.918-4.413v-4.422c7.304-.855 14.051-2.856 20.572-6.095 7.938-3.995 14.126-10.039 17.446-17.034a1.996 1.996 0 0 0-1.735-2.964Z"/><path d="M40.79 25.75v6.223c0 1.735.933 1.935 1.635 1.935.565 0 1.275-.166 1.948-.46 1.481-.648 17.594-10.635 19.808-12.198.592-.418 1.298-1.091 1.287-1.92-.006-.793-.648-1.643-1.859-2.455-1.641-1.108-17.711-10.507-19.542-11.428a3.057 3.057 0 0 0-1.36-.349c-1.217 0-1.918.878-1.918 2.412v6.224c-7.918.718-14.936 2.732-21.682 6.083-7.193 3.623-13.353 9.335-16.581 16.211 9.955-11.303 25.763-12.654 38.263-10.277Zm-13.583 14.5v-6.221c0-1.735-.933-1.935-1.635-1.935-.565 0-1.275.166-1.948.46-1.483.646-17.594 10.631-19.81 12.195-.593.418-1.296 1.091-1.287 1.92.006.795.65 1.645 1.858 2.457 1.641 1.108 17.711 10.505 19.544 11.426.452.228.921.349 1.36.349 1.217 0 1.918-.878 1.918-2.413v-6.225c7.918-.714 14.936-2.732 21.682-6.083 7.191-3.619 13.351-9.331 16.58-16.207-9.953 11.3-25.761 12.652-38.261 10.275Z" fill="#fff"/></svg>