<svg xmlns="http://www.w3.org/2000/svg" viewBox="0 0 56.32 56.32" width="56.32" height="56.32"><g data-name="Layer 2"><g data-name="Layer 1"><path d="m41.17 28.16 14.4-14.4a2.56 2.56 0 0 0 0-3.62L46.18.75a2.56 2.56 0 0 0-3.62 0l-14.4 14.4L13.76.75a2.56 2.56 0 0 0-3.62 0L.75 10.14a2.56 2.56 0 0 0 0 3.62l14.4 14.4-14.4 14.4a2.56 2.56 0 0 0 0 3.62l9.39 9.39a2.56 2.56 0 0 0 3.62 0l14.4-14.4 14.4 14.4a2.56 2.56 0 0 0 3.62 0l9.39-9.39a2.56 2.56 0 0 0 0-3.62Z" fill="#c00"/><path fill="#fff" d="m53.76 14.51-9.39-9.39-16.21 16.21L11.95 5.12l-9.39 9.39 16.21 16.21L2.56 46.93l9.39 9.39 16.21-16.21 16.21 16.21 9.39-9.39-16.21-16.21 16.21-16.21z" data-name="X Fill"/></g></g></svg>