<svg xmlns="http://www.w3.org/2000/svg" viewBox="0 0 42.95 64.32" width="42.95" height="64.32"><g data-name="Layer 2"><g data-name="Layer 1"><path d="M21.47 0C9.63 0 0 9 0 20.08a19 19 0 0 0 4.34 12 2.61 2.61 0 0 0 .22.24c.87.85 7.13 8.14 7.46 13a2.23 2.23 0 0 0 .82 1.57 3.28 3.28 0 0 0-.9 2.2v.38a3.34 3.34 0 0 0 1.53 2.73 3.29 3.29 0 0 0-.77 2.06v.38A3.47 3.47 0 0 0 15.49 58a2.17 2.17 0 0 0 0 1.38c.8 2.06 3.35 4.92 6.06 4.92s5.12-2.67 6-4.71a2.24 2.24 0 0 0 .25-1 2.14 2.14 0 0 0-.13-.62 3.45 3.45 0 0 0 2.53-3.27v-.38a3.35 3.35 0 0 0-.77-2.06A3.36 3.36 0 0 0 31 49.52v-.38a3.29 3.29 0 0 0-.91-2.2 2.19 2.19 0 0 0 .83-1.57c.33-4.91 6.59-12.2 7.47-13.07a2.09 2.09 0 0 0 .2-.22 18.93 18.93 0 0 0 4.35-12C43 9 33.32 0 21.47 0Z"/><path d="M21.47 4.43c-10.6 0-19.22 8-19.22 17.83A16.71 16.71 0 0 0 6.1 32.84c.55.52 7.76 8.53 8.17 14.55h14.41c.41-6 7.62-14 8.17-14.55a16.71 16.71 0 0 0 3.85-10.58c0-9.84-8.62-17.83-19.23-17.83ZM7.94 28.49C.43 13.23 18.27 7.83 18.27 7.83 6.1 18.16 7.94 28.49 7.94 28.49Zm9.68 32.27h8c-.64 1.57-2.58 3.48-4 3.48s-3.39-1.91-4-3.48ZM28 56.49v.38a1.27 1.27 0 0 1-1.31 1.22H16.26A1.27 1.27 0 0 1 15 56.87v-.38a1.27 1.27 0 0 1 1.31-1.23h10.37A1.27 1.27 0 0 1 28 56.49Zm.76-5.18v.38a1.36 1.36 0 0 1-1.46 1.23H15.66a1.37 1.37 0 0 1-1.47-1.23v-.38a1.37 1.37 0 0 1 1.47-1.22h11.63a1.36 1.36 0 0 1 1.46 1.22Z" fill="#fff"/></g></g></svg>