<svg xmlns="http://www.w3.org/2000/svg" width="248" height="248" viewBox="0 0 248 248"><path d="M81.231 131.685s7.939 6.496 16.6 6.496 16.6-6.496 16.6-6.496-.241 13.954-15.638 13.954-17.563-13.232-17.563-13.232m-4.482-19.622c-4.921.929-3.25 3.621-3.25 3.621 3.528 5.107 16.875-1.322 16.875-1.322 12.029-6.977 11.067-13.954 11.067-13.954-6.255 6.255-14.435 9.142-14.435 9.142s-5.335 1.584-10.256 2.512Zm62.027 53.206a2.878 2.878 0 0 0-2.878-2.878h-24.328a2.878 2.878 0 1 0 0 5.756h24.328a2.878 2.878 0 0 0 2.878-2.878Zm27.994-34.306s-7.939 6.496-16.6 6.496c-8.661 0-16.6-6.496-16.6-6.496s.241 13.954 15.638 13.954 17.563-13.232 17.563-13.232m-5.775-22.134s-8.18-2.887-14.435-9.142c0 0-.962 6.977 11.067 13.954 0 0 13.346 6.429 16.875 1.322 0 0 1.671-2.693-3.25-3.621-4.921-.929-10.256-2.512-10.256-2.512Z" fill="#fff"/><path d="M81.231 129.685s7.939 6.496 16.6 6.496 16.6-6.496 16.6-6.496-.241 13.954-15.638 13.954-17.563-13.232-17.563-13.232m-4.482-19.622c-4.921.929-3.25 3.621-3.25 3.621 3.528 5.107 16.875-1.322 16.875-1.322 12.029-6.977 11.067-13.954 11.067-13.954-6.255 6.255-14.435 9.142-14.435 9.142s-5.335 1.584-10.256 2.512Zm62.027 53.206a2.878 2.878 0 0 0-2.878-2.878h-24.328a2.878 2.878 0 1 0 0 5.756h24.328a2.878 2.878 0 0 0 2.878-2.878Zm27.994-34.306s-7.939 6.496-16.6 6.496c-8.661 0-16.6-6.496-16.6-6.496s.241 13.954 15.638 13.954 17.563-13.232 17.563-13.232m-5.775-22.134s-8.18-2.887-14.435-9.142c0 0-.962 6.977 11.067 13.954 0 0 13.346 6.429 16.875 1.322 0 0 1.671-2.693-3.25-3.621-4.921-.929-10.256-2.512-10.256-2.512Z"/></svg>