<svg xmlns="http://www.w3.org/2000/svg" viewBox="0 0 168.11 159.89" width="168.11" height="159.89"><defs><linearGradient id="a" x1="84.05" y1="132.17" x2="84.05" y2="34.18" gradientUnits="userSpaceOnUse"><stop offset=".34" stop-color="#ff6"/><stop offset=".43" stop-color="#fff858"/><stop offset="1" stop-color="#fc0"/></linearGradient><linearGradient id="b" x1="84.28" y1="132.17" x2="84.28" y2="84.14" gradientUnits="userSpaceOnUse"><stop offset="0" stop-color="#ff0"/><stop offset="1" stop-color="#fc0"/></linearGradient><radialGradient id="c" cx="83.78" cy="81.78" r="63.78" gradientTransform="translate(.28)" gradientUnits="userSpaceOnUse"><stop offset="0" stop-color="#fc6"/><stop offset="1" stop-color="#fc0"/></radialGradient></defs><g data-name="Layer 2"><g data-name="Layer 1"><path d="m84.05 14.11 1.3 2.64 6 12.09L105.2 57l.68 1.37 1.51.22 31.05 4.5L151.78 65l2.91.42-2.11 2.06-9.65 9.4-22.47 21.92-1.09 1.07.26 1.5 5.3 30.92 2.28 13.28.49 2.9-.79-.41v.13l-2.62-1.38-14.58-7.67-24.3-12.79-1.36-.71-1.35.71-24.34 12.79-14.57 7.67-2.62 1.38v-.13l-.8.42.5-2.91 2.27-13.28 5.31-30.92.26-1.5-1.1-1.07-22.44-21.91-9.65-9.4-2.1-2.06 2.91-.43 13.34-1.94 31-4.5 1.51-.22.72-1.34 13.88-28.16 6-12.09 1.3-2.64m0-6.57-3.91 7.92-6 12.09-13.88 28.14-31 4.51-13.38 1.93-8.74 1.27 6.33 6.17L23.15 79l22.46 21.91-5.3 30.92L38 145.08l-1.49 8.71.82-.43v.13l7.8-4.11 14.57-7.66 24.34-12.8 24.34 12.8 14.62 7.66 7.83 4.12v-.12l.78.41-1.49-8.71-2.28-13.28-5.3-30.92L145 79l9.65-9.4 6.33-6.17-8.75-1.27-13.38-1.96-31-4.51-13.93-28.14L88 15.46l-3.95-7.92Z" opacity=".3"/><path d="m142.93 76.89 9.65-9.4 2.11-2.06-2.91-.43-13.34-1.94-31-4.5-1.51-.22-.73-1.34-13.88-28.16-6-12.09-1.3-2.64-1.3 2.64-6 12.09L62.9 57l-.68 1.37-1.51.22-31 4.5L16.33 65l-2.91.42 2.1 2.06 9.65 9.4L47.64 98.8l1.1 1.07-.26 1.5-5.31 30.92-2.27 13.28-.5 2.91.8-.42v.13l2.62-1.38 14.57-7.67 24.31-12.79 1.35-.71 1.36.71 24.33 12.79 14.58 7.67 2.62 1.38v-.13l.79.41-.49-2.9-2.28-13.28-5.3-30.92-.26-1.5 1.09-1.07Zm-26.17 25 5.3 30.92 1.78 10.38-.79-.42v.13l-12-6.3-24.29-12.82-2.71-1.42-2.7 1.42L57 136.57l-12 6.32v-.13l-.77.41L46 132.78l5.3-30.92.52-3-2.19-2.13L27.2 74.81l-7.54-7.35L30.08 66l31.05-4.51 3-.44 1.35-2.74 13.91-28.19 4.66-9.45 4.66 9.45 13.89 28.14L104 61l3 .44L138 66l10.43 1.51-7.55 7.35-22.45 21.86-2.18 2.13Z" opacity=".2"/><path d="m140.9 74.81 7.55-7.35L138 66l-31-4.51-3-.49-1.35-2.74-13.94-28.14-4.66-9.45-4.66 9.45L65.5 58.26 64.15 61l-3 .44L30.08 66l-10.42 1.46 7.54 7.35 22.47 21.91 2.19 2.13-.52 3L46 132.78l-1.78 10.39.77-.41v.13l12-6.32 24.34-12.79 2.7-1.42 2.71 1.42 24.33 12.79 12 6.3v-.13l.79.42-1.78-10.38-5.3-30.92-.51-3 2.18-2.13Zm-27.78 23 .78 4.51 5.3 30.92.79 4.58-.8-.42v.13l-6.75-3.53-24.33-12.79-4.06-2.13-4 2.13L55.65 134l-6.8 3.58v-.12l-.76.4.79-4.59 5.3-30.92.82-4.51-3.28-3.2-22.49-21.91-3.33-3.24 4.6-.67 31-4.5 4.54-.66 2-4.11L82 31.41l2-4.17 2.06 4.17L100 59.55l2 4.11 4.54.66 31 4.5 4.6.67-3.32 3.24-22.41 21.91Z" opacity=".1"/><path d="m106.56 64.32-4.56-.66-2-4.11-13.89-28.14-2.06-4.17-2 4.17-13.94 28.14-2 4.11-4.54.66-31 4.5-4.6.67 3.33 3.24 22.4 21.91 3.3 3.2-.78 4.51-5.3 30.92-.79 4.59.76-.4v.12l6.8-3.58L80 121.21l4-2.13 4.06 2.13L112.44 134l6.77 3.56v-.13l.8.42-.79-4.58-5.3-30.92-.78-4.51 3.29-3.2 22.47-21.91 3.32-3.24-4.6-.67Zm7.82 28.24L110 96.82l1 6 5.09 29.7-.82-.43v.13l-1.54-.81-24.27-12.77-5.4-2.85-5.41 2.84-24.35 12.8-1.62.85v-.12l-.74.38 5.1-29.7 1-6-4.37-4.26-21.58-21L62 67.19l6-.87 2.7-5.48 13.34-27 13.34 27 2.7 5.49 6 .87L136 71.52Z" opacity=".05"/><path d="M84.05 7.54 88 15.46l6 12.09 13.89 28.14 31 4.51 13.34 1.93 8.75 1.27-6.33 6.17L145 79l-22.47 21.91 5.3 30.92 2.28 13.28 1.49 8.71-.78-.41v.13l-7.82-4.16-14.58-7.66-24.34-12.8-24.34 12.8-14.57 7.66-7.8 4.11v-.13l-.82.43 1.45-8.71 2.28-13.28 5.3-30.92L23.15 79l-9.65-9.4-6.33-6.2 8.74-1.27 13.34-1.93 31-4.51 13.93-28.14 6-12.09 3.91-7.92m0-7.54-3 6.07L77.15 14l-6 12.09-13.07 26.55-29.31 4.25-13.34 1.94-8.74 1.27-6.69.97 4.84 4.72L11.17 72l9.65 9.41L42 102l-5 29.2-2.28 13.28-1.49 8.7-1.14 6.67.82-.43v.13l6-3.15 7.8-4.1 14.58-7.67 22.78-12 22.79 12 14.58 7.67 7.83 4.12 6 3.16v-.12l.74.39-1.14-6.67-1.49-8.7-2.28-13.28-5-29.2 21.21-20.68 9.63-9.32 6.32-6.16 4.85-4.72-6.7-1-8.74-1.27-13.34-1.94L110 52.64 96.92 26.08 91 14l-4-7.94L84.05 0Z" fill="#fff"/><path fill="url(#a)" d="m84.05 34.18 15.92 32.26 35.59 5.17-25.75 25.11 6.08 35.45-31.84-16.74-31.83 16.74 6.08-35.45-25.77-25.11 35.6-5.17 15.92-32.26z"/><path d="m52.22 132.17 31.83-16.74 31.85 16.74-6.09-35.45 12.9-12.58A283.69 283.69 0 0 1 82.6 87a286 286 0 0 1-36.74-2.4l12.45 12.12Z" fill="url(#b)"/><path d="m120.16 138.06-36.11-19-36.11 19 6.89-40.22-29.21-28.49L66 63.5l18-36.6 18.06 36.6 40.38 5.85-29.17 28.49Zm-80.71-64.2L61.76 95.6l-5.27 30.69 27.56-14.49 27.57 14.49-5.26-30.69 22.3-21.74-30.82-4.47-13.79-27.94-13.77 27.94Z" fill="#f90"/><path d="M84.05 34.18 100 66.44l35.59 5.17-25.78 25.11 6.09 35.45-31.85-16.74-31.83 16.74 6.09-35.45-25.78-25.11 35.6-5.17 15.92-32.26m0-14.56-5.77 11.71-14.42 29.23-32.24 4.67-12.92 1.88 9.35 9.11L51.38 99l-5.51 32.12-2.21 12.85 11.56-6.06 28.83-15.16 28.84 15.16 11.54 6.06-2.2-12.85L116.72 99l23.34-22.74 9.35-9.11-12.91-1.92-32.25-4.67-14.42-29.23-5.78-11.71Z" fill="url(#c)"/></g></g></svg>