<svg xmlns="http://www.w3.org/2000/svg" viewBox="0 0 600 160" preserveAspectRatio="xMinYMin"><defs><linearGradient id="a" x1="-467.113" y1="104.83" x2="-410.767" y2="259.651" gradientTransform="matrix(1 0 0 -1 518.938 262.253)" gradientUnits="userSpaceOnUse"><stop offset="0" stop-color="#d09c31"/><stop offset="1" stop-color="#f8dda3"/></linearGradient><linearGradient id="b" x1="1363.907" y1="-648.12" x2="1474.845" y2="-343.241" gradientTransform="matrix(.483 0 0 -.483 -605.708 -159.526)" gradientUnits="userSpaceOnUse"><stop offset="0" stop-color="#f66"/><stop offset="1" stop-color="red"/></linearGradient><linearGradient id="c" x1="-329.49" y1="-582.692" x2="-329.49" y2="-720.764" gradientTransform="rotate(20 -2200.493 867.674)" gradientUnits="userSpaceOnUse"><stop offset="0" stop-color="#404040"/><stop offset="1"/></linearGradient><linearGradient id="d" x1="-331.324" y1="-574.098" x2="-331.324" y2="-730.84" gradientTransform="rotate(20 -2200.493 867.674)" gradientUnits="userSpaceOnUse"><stop offset="0" stop-color="#f8dda3"/><stop offset="1" stop-color="#d09c31"/></linearGradient><linearGradient id="f" x1="-336.785" y1="-680.611" x2="-336.785" y2="-699.041" gradientTransform="rotate(90 -492.311 -113.999)" gradientUnits="userSpaceOnUse"><stop offset=".1" stop-color="#fff" stop-opacity="0"/><stop offset=".166" stop-color="#fff" stop-opacity=".058"/><stop offset=".292" stop-color="#fff" stop-opacity=".212"/><stop offset=".467" stop-color="#fff" stop-opacity=".46"/><stop offset=".68" stop-color="#fff" stop-opacity=".797"/><stop offset=".8" stop-color="#fff"/></linearGradient><linearGradient id="g" x1="384.03" y1="79.311" x2="384.03" y2="149.73" gradientUnits="userSpaceOnUse"><stop offset="0" stop-color="#d09c31"/><stop offset=".55" stop-color="#eac985"/><stop offset=".55" stop-color="#9c7525"/><stop offset="1" stop-color="#d09c31"/></linearGradient><linearGradient id="h" x1="384.03" y1="149.73" x2="384.03" y2="80.753" gradientUnits="userSpaceOnUse"><stop offset="0" stop-color="#f8dda3"/><stop offset="1" stop-color="#9c7525"/></linearGradient><linearGradient id="i" x1="384.024" y1="6.382" x2="384.024" y2="64.607" gradientUnits="userSpaceOnUse"><stop offset="0" stop-color="#ebebeb"/><stop offset=".5" stop-color="#fff"/><stop offset=".5" stop-color="#d6d6d6"/><stop offset="1" stop-color="#ebebeb"/></linearGradient><linearGradient id="j" x1="384.024" y1="64.607" x2="384.024" y2="6.382" gradientUnits="userSpaceOnUse"><stop offset="0" stop-color="#fff"/><stop offset="1" stop-color="#ccc"/></linearGradient><linearGradient id="k" x1="384.025" y1="59.121" x2="384.025" y2="11.868" gradientUnits="userSpaceOnUse"><stop offset="0" stop-color="#131313"/><stop offset=".5"/><stop offset=".5" stop-color="#393939"/><stop offset="1" stop-color="#131313"/></linearGradient><linearGradient id="l" x1="384.025" y1="59.121" x2="384.025" y2="11.868" gradientUnits="userSpaceOnUse"><stop offset="0" stop-color="#484848"/><stop offset="1"/></linearGradient><radialGradient id="e" cx="-336.882" cy="-687.218" fx="-336.882" fy="-687.218" r="13.692" gradientTransform="rotate(20 -2200.493 867.674)" gradientUnits="userSpaceOnUse"><stop offset="0" stop-color="#f0f0f0"/><stop offset=".179" stop-color="#e7e7e7"/><stop offset=".471" stop-color="#cecece"/><stop offset=".5" stop-color="#ccc"/><stop offset=".583" stop-color="#c3c3c3"/><stop offset=".719" stop-color="#aaa"/><stop offset=".889" stop-color="#838383"/><stop offset="1" stop-color="#666"/></radialGradient></defs><path d="M120.718.003 39.284 0C17.626 0 .003 17.624.003 39.282L0 120.716c0 21.658 17.624 39.281 39.282 39.281l81.434.003c21.658 0 39.281-17.624 39.281-39.282L160 39.284C160 17.626 142.381.005 120.718.003Zm37.829 120.717c-.003 20.859-16.972 37.827-37.826 37.827l-81.434-.003c-20.859-.003-37.827-16.972-37.827-37.826l.003-81.434C1.467 18.425 18.436 1.457 39.29 1.457h81.428c20.859.004 37.827 16.973 37.827 37.827l.003 81.436Z" opacity=".05"/><path d="m120.718 1.458-81.434-.003C18.425 1.453 1.461 18.423 1.458 39.282l-.003 81.434c-.003 20.859 16.968 37.823 37.827 37.826l81.434.003c20.859.003 37.823-16.968 37.826-37.827l.003-81.434c.003-20.859-16.968-37.823-37.827-37.826Zm36.374 119.262c.002 20.056-16.314 36.369-36.37 36.371l-81.434-.003c-20.056.002-36.369-16.314-36.371-36.37l.003-81.434C2.918 19.228 19.234 2.915 39.29 2.913l81.434.003c20.056-.002 36.369 16.314 36.371 36.37l-.003 81.434Z" opacity=".1"/><path d="m120.718 2.914-81.434-.003c-20.056.002-36.373 16.315-36.37 36.371l-.003 81.434c.002 20.056 16.315 36.373 36.371 36.37l81.434.003c20.056-.002 36.373-16.315 36.37-36.371l.003-81.434c.003-20.054-16.315-36.373-36.371-36.37Zm34.919 117.806c.001 19.252-15.663 34.914-34.915 34.916l-81.434-.003c-19.252.001-34.914-15.663-34.916-34.915l-.003-81.436C4.367 20.03 20.032 4.368 39.284 4.366l81.434.003c19.252-.002 34.914 15.663 34.916 34.915l.003 81.436Z" opacity=".2"/><path d="m120.718 4.369-81.434-.003C20.032 4.368 4.368 20.03 4.369 39.282l-.003 81.434c.001 19.252 15.664 34.917 34.916 34.915l81.434.003c19.252-.001 34.917-15.664 34.915-34.916l.003-81.434c.004-19.25-15.664-34.916-34.916-34.915Z" opacity=".3"/><path d="m120.777 5.717-81.552-.003C20.745 5.713 5.716 20.749 5.717 39.223l-.003 81.552c-.001 18.48 15.035 33.509 33.509 33.508l81.552.003c18.48.001 33.509-15.035 33.508-33.509l.003-81.552c.001-18.48-15.029-33.507-33.509-33.508Z"/><path d="m120.72 9.1-81.434-.003C22.639 9.096 9.099 22.64 9.098 39.286l-.003 81.434c-.001 16.647 13.543 30.187 30.189 30.188l81.434.003c16.647.001 30.187-13.543 30.188-30.189l.003-81.434c-.004-16.649-13.541-30.193-30.19-30.188Z" fill="url(#a)"/><path d="m120.721 13.096-81.434-.003a26.266 26.266 0 0 0-5.263.535 26.053 26.053 0 0 0-9.354 3.955c-6.27 4.248-10.626 11.132-11.434 19.034-.09.88-.139 1.768-.136 2.67l-.003 81.434a25.869 25.869 0 0 0 2.069 10.168 26.367 26.367 0 0 0 7.49 10.022 25.767 25.767 0 0 0 2.016 1.512 26.008 26.008 0 0 0 14.617 4.49l81.434.003c14.4 0 26.188-11.781 26.185-26.189v-81.44c.002-14.406-11.787-26.19-26.187-26.191Z" fill="url(#b)"/><path d="m52.031 63.647 17.912-50.553h18.914a257.933 257.933 0 0 0 18.69 4.257l-10.31 58.232a317.66 317.66 0 0 1-45.206-11.937Zm-2.068 5.835-23.176 65.409a391.452 391.452 0 0 0 42.306 12.024h15.513l11.55-65.237a323.982 323.982 0 0 1-46.194-12.196Z" fill="url(#c)"/><path d="M146.908 89.376V78.54a320.416 320.416 0 0 1-40.877-3.802l9.488-53.591c8.541 1.321 17.351 2.194 26.292 2.661a26.358 26.358 0 0 0-2.01-2.413c-4.787-5.101-11.579-8.299-19.081-8.299H88.857l-18.914-.002h-9.029L44.8 58.572a317.886 317.886 0 0 1-31.701-13.91v12.083a328.318 328.318 0 0 0 28.084 12.039l-21.624 61.029a360.026 360.026 0 0 1-5.508-2.1c.274.98.603 1.937.985 2.867l.13.312a26.367 26.367 0 0 0 7.49 10.022 25.767 25.767 0 0 0 2.016 1.512 26.008 26.008 0 0 0 14.617 4.49h29.805l15.514.002h8.644l10.891-61.511a331.174 331.174 0 0 0 42.765 3.97ZM83.437 14.003a263.897 263.897 0 0 0 21.431 5.19l-9.503 53.676A316.72 316.72 0 0 1 54.998 62.21l17.079-48.203 11.36-.003Zm-7.68 131.995a392.103 392.103 0 0 1-46.005-12.539l21.63-61.046a327.446 327.446 0 0 0 42.095 11.114l-11.06 62.469-6.66.002Z" fill-opacity=".25"/><path d="m20.881 20.698-7.164 12.934a26.227 26.227 0 0 1 7.164-12.934Zm74.484 52.17a316.72 316.72 0 0 1-40.367-10.659l17.079-48.203 11.36-.003a263.897 263.897 0 0 0 21.431 5.19l-9.503 53.676ZM57.971 60.754a314.665 314.665 0 0 0 35.525 9.381l8.697-49.121a266.314 266.314 0 0 1-19.081-4.695l-9.397.003-15.744 44.432Zm48.06 13.984a320.416 320.416 0 0 0 40.877 3.802V39.287c0-2.686-.41-5.281-1.17-7.726l-.444 44.606a318.286 318.286 0 0 1-36.564-3.36l8.681-49.029c8.462 1.23 17.167 2.049 25.992 2.459a26.332 26.332 0 0 0-1.591-2.428c-8.94-.468-17.751-1.34-26.292-2.662l-9.488 53.591Zm-12.554 8.789-11.06 62.469-6.66.002a392.103 392.103 0 0 1-46.005-12.539l21.63-61.046a327.446 327.446 0 0 0 42.095 11.114ZM80.475 143.68 90.8 85.36a330.033 330.033 0 0 1-37.993-10.032l-20.084 56.684a390.02 390.02 0 0 0 43.273 11.668h4.478Zm66.433-22.952V89.376a331.544 331.544 0 0 1-42.766-3.97l-10.891 61.511h2.357l10.423-58.867a333.706 333.706 0 0 0 39.108 3.595l-.393 39.476a25.938 25.938 0 0 0 2.161-10.392ZM60.914 13.094h-2.462L43.405 55.56A315.296 315.296 0 0 1 13.1 42.037v2.625a317.784 317.784 0 0 0 31.701 13.91l16.113-45.478ZM41.182 68.782a328.318 328.318 0 0 1-28.084-12.039v2.578a330.836 330.836 0 0 0 25.137 10.828l-20.076 56.659a360.568 360.568 0 0 1-4.714-1.823c.153.925.356 1.835.605 2.725 1.832.714 3.667 1.417 5.508 2.1l21.624-61.029Z" fill-opacity=".1"/><path d="M146.908 87.04v-6.192c-14.797-.422-29.346-1.828-43.573-4.197l10.297-58.156c8.585 1.41 17.32 2.366 26.17 2.899-4.787-5.101-11.579-8.299-19.081-8.299H88.858a258.987 258.987 0 0 0 18.69 4.255l-10.31 58.232a317.66 317.66 0 0 1-45.206-11.937l17.912-50.553h-6.566L46.203 61.564a318.246 318.246 0 0 1-33.102-14.317v6.915a324.601 324.601 0 0 0 31.035 13.236l-23.173 65.4a365.636 365.636 0 0 1-5.926-2.222l.13.312a26.367 26.367 0 0 0 7.49 10.022 25.767 25.767 0 0 0 2.016 1.512 26.008 26.008 0 0 0 14.617 4.49h29.805a391.22 391.22 0 0 1-42.306-12.023L49.965 69.48a323.85 323.85 0 0 0 46.194 12.196l-11.55 65.238h6.287l11.362-64.169c14.579 2.43 29.488 3.87 44.652 4.294Z" fill="url(#d)"/><path d="m143.174 110.47-.119 1.876-12.231 24.895-3.268-.21 11.713-22.608-10.119-.641c-.701-.045-1.24.086-1.617.397-.377.308-.623.78-.741 1.411l-.349 1.919-2.308-.144.702-8.061 18.339 1.167Zm-61.422 6.315c-.486 2.063-1.101 3.901-1.84 5.518-.74 1.617-1.625 2.942-2.655 3.975-1.028 1.034-2.2 1.743-3.515 2.127-1.315.387-2.79.39-4.425.004-1.71-.402-3.074-1.07-4.09-2.006-1.016-.934-1.744-2.092-2.188-3.471-.441-1.379-.621-2.958-.536-4.735.082-1.78.368-3.705.857-5.78.487-2.075 1.089-3.917 1.801-5.527.715-1.608 1.576-2.927 2.582-3.952 1.009-1.025 2.176-1.722 3.509-2.091 1.33-.372 2.853-.353 4.575.052 1.623.383 2.938 1.032 3.945 1.954 1.008.919 1.741 2.064 2.198 3.435s.657 2.941.603 4.711c-.058 1.771-.331 3.7-.821 5.787Zm-7.072 3.399c.423-1.381.845-2.97 1.266-4.764.424-1.795.752-3.403.991-4.821.236-1.419.346-2.639.331-3.66-.018-1.022-.186-1.839-.508-2.45a2.195 2.195 0 0 0-1.507-1.156c-.694-.163-1.323-.045-1.889.358-.566.4-1.088 1.054-1.574 1.957-.482.906-.937 2.044-1.363 3.419s-.851 2.961-1.275 4.755a72.378 72.378 0 0 0-.982 4.83c-.233 1.428-.338 2.654-.316 3.685.021 1.028.192 1.851.513 2.468.318.616.825 1.005 1.519 1.171.697.163 1.327.039 1.886-.37.56-.409 1.079-1.07 1.556-1.981.479-.912.931-2.056 1.351-3.44Zm42.46 7.821-.463 1.135c-.328.831-.798 1.441-1.409 1.825-.611.388-1.307.533-2.089.435l-8.906-1.102 4.277-3.166a180.112 180.112 0 0 0 3.791-2.847 81.628 81.628 0 0 0 2.898-2.344 30.767 30.767 0 0 0 2.121-1.973 13.405 13.405 0 0 0 1.436-1.746c.38-.559.669-1.112.87-1.655a7.862 7.862 0 0 0 .411-1.713c.12-.981.044-1.889-.233-2.719a5.321 5.321 0 0 0-1.425-2.204c-.671-.641-1.534-1.171-2.588-1.6-1.051-.426-2.294-.727-3.725-.906-1.395-.172-2.634-.183-3.72-.032-1.086.151-2.007.418-2.763.807-.756.386-1.347.868-1.781 1.447a3.938 3.938 0 0 0-.775 1.912c-.085.685-.038 1.281.139 1.791.177.506.463.938.856 1.289.393.351.88.633 1.468.844a9.032 9.032 0 0 0 1.964.452c.267-2.18.734-3.793 1.393-4.842.659-1.049 1.636-1.494 2.931-1.335.933.117 1.624.543 2.068 1.278.447.738.579 1.837.4 3.292-.12.984-.322 1.895-.604 2.739-.282.844-.695 1.68-1.24 2.51-.542.829-1.257 1.685-2.135 2.559-.878.878-1.984 1.848-3.317 2.909l-6.367 5.067-.488 3.94 18.07 2.234 1.197-8.002-2.258-.28Zm-62.458-5.823c-.386-.115-.684-.26-.9-.434a1.309 1.309 0 0 1-.442-.633 2.046 2.046 0 0 1-.062-.841c.033-.317.109-.667.224-1.053l6.574-22.142-4.13-1.227-3.165 1.139c-.746.266-1.428.477-2.052.638a18.36 18.36 0 0 1-1.729.369c-.53.086-1.02.136-1.467.153-.45.017-.877.02-1.278.004-.121.41-.173.799-.158 1.168.012.372.081.705.203 1.002s.291.55.513.751c.219.204.481.349.782.439.371.109.77.128 1.19.05a5.805 5.805 0 0 0 1.361-.451 14.1 14.1 0 0 0 1.558-.851 56.612 56.612 0 0 0 1.79-1.175l-5.493 18.501c-.137.467-.288.844-.451 1.129-.166.286-.352.496-.562.63-.21.134-.44.205-.691.215a2.526 2.526 0 0 1-.845-.122l-3.03-.9-.585 1.966 15.239 4.525.582-1.966-2.975-.884Z" fill="#fff"/><circle cx="82.532" cy="43.946" r="13.692" fill="url(#e)"/><ellipse cx="83.516" cy="41.529" rx="9.215" ry="10.739" transform="rotate(-70 83.516 41.528)" fill="url(#f)"/><path d="m32.95 104.719-.002-45.206a6.432 6.432 0 0 0-6.435-6.434l-17.419-.002.003 58.074 17.419.002a6.444 6.444 0 0 0 6.434-6.435Z"/><path d="M19.984 71.053c-.608-.451-1.038-1.322-1.552-2.627l-1.963-5.093c-.145-.372-.409-.876-.65-1.124-.345-.349-.798-.527-2.088-.524h-.702l.003 7.743 3.146.002v2.598l-5.477-.002.002-12.931h2.662c2.425 0 3.226.273 4.017 1.097.465.476.799 1.05 1.263 2.247l1.988 5.166c.294.771.533.973.772 1.124.317.198.583.327 1.752.325 1.11.002 1.573-.149 1.812-.4.148-.144.291-.449.29-1.095v-3.842c-.002-.748-.144-.972-.315-1.149-.166-.175-.505-.35-2.492-.396v-2.751c2.833.055 3.689-.106 4.396.617.506.522.813 1.132.81 2.58l.002 5.292c0 1.526-.316 2.323-.841 2.873-.705.726-1.573 1.023-3.538 1.023-1.842-.007-2.497-.155-3.294-.752Zm7.675 12.445v3.472l-9.831.003-2.082.002-2.835.002v3.07h-2.209v-9.013h2.208l.002 3.345 2.835-.002v-8.106l2.007.015c.632 0 1.038.148 1.648.574l7.245 5.05c.729.489 1.014.861 1.012 1.587Zm-2.078.45-7.75-5.47v5.892h7.75v-.421Zm-9.735 8.648c-.137.148-.168.303-.171.627l.002.958c-.001.319.031.477.169.623.162.187.376.265 1.148.265s.979-.078 1.15-.265c.131-.15.168-.303.163-.624l-.002-.958c.001-.319-.036-.479-.169-.623-.168-.189-.376-.265-1.148-.265-.765-.004-.979.078-1.142.261Zm-5.113 9.048 6.334-.005 6.616 3.499h3.229l.746-.768.002-11.055h-5.349l.002 2.624h3.102l-.002 6.267-1.73.034-6.484-3.528-6.463.009-.004 2.922Z" fill="#fff"/><path d="M251.183 146.889c-4.551-.045-8.766-1.033-12.528-2.936-1.79-.895-3.565-2.05-5.289-3.438a43.685 43.685 0 0 1-4.857-4.543 87.806 87.806 0 0 1-4.127-4.845c-1.29-1.635-2.527-3.207-3.716-4.718-1.187-1.509-2.14-2.72-2.856-3.636a103.84 103.84 0 0 0-2.686-3.262 62.115 62.115 0 0 0-3.433-3.674c1.702-.789 3.3-1.901 4.787-3.332 3.32-3.199 5.003-7.365 5.003-12.384 0-5.117-1.782-9.175-5.297-12.063-4.063-3.375-9.732-5.092-16.838-5.092h-25.495a3.106 3.106 0 0 0-3.106 3.106v.743a3.106 3.106 0 0 0 3.106 3.106h.966c.464 0 .776.131 1.113.467.351.352.51.698.538 1.181v41.109c-.026.454-.174.762-.517 1.087-.365.346-.693.487-1.134.487h-.966a3.106 3.106 0 0 0-3.106 3.106v.743a3.106 3.106 0 0 0 3.106 3.106h22.596a3.106 3.106 0 0 0 3.106-3.106v-.743a3.106 3.106 0 0 0-3.106-3.106h-.966c-.477 0-.817-.143-1.176-.493-.342-.333-.475-.636-.475-1.084v-15.189c.263.368.559.805.889 1.323.029.046.06.091.092.136.968 1.357 3.15 4.58 6.485 9.581 3.397 5.096 5.662 8.457 6.922 10.272 5.152 7.849 11.532 13.221 18.966 15.968 3.491 1.31 7.41 1.977 11.631 1.977 4.827 0 9.446-1.086 13.728-3.227a3.107 3.107 0 0 0 1.717-2.778v-.743a3.106 3.106 0 0 0-3.076-3.106Zm-51.02-39.387c-1.682.896-3.482 1.331-5.5 1.331h-.833V92.45h2.543c1.957 0 3.587.652 4.982 1.994 1.359 1.309 2.02 3.239 2.02 5.9 0 4.8-1.827 6.386-3.212 7.158Zm389.339 15.438c0 .271-.035.533-.1.783l-3.397 15.063a3.106 3.106 0 0 1-3.03 2.423h-38.502a3.106 3.106 0 0 1-3.106-3.106v-.743a3.106 3.106 0 0 1 3.106-3.106h.966c.465 0 .776-.13 1.111-.465.354-.354.512-.699.54-1.183V91.411c-.044-.446-.127-.652-.158-.714-.406-.364-.978-.774-1.493-.774h-.966a3.094 3.094 0 0 1-2.023-.749v8.42a3.106 3.106 0 0 1-3.106 3.106h-.744a3.106 3.106 0 0 1-3.106-3.106v-.892c0-2.446-.956-3.305-1.892-3.823l-.074-.042c-.622-.367-1.434-.572-2.415-.61h-6.8v40.455c.026.464.175.789.51 1.115.338.329.658.457 1.141.457h.892a3.107 3.107 0 0 1 3.091 2.798l.074.743a3.106 3.106 0 0 1-3.091 3.415h-22.596a3.106 3.106 0 0 1-3.106-3.106v-.743a3.106 3.106 0 0 1 3.106-3.106h.966c.358 0 .676-.078 1.067-.458.351-.341.529-.681.584-1.121V92.228h-6.89c-1.897.048-2.751.711-3.228 1.205-.488.506-1.137 1.396-1.137 3.27v.892a3.106 3.106 0 0 1-3.106 3.106h-.743a3.104 3.104 0 0 1-2.565-1.353 3.103 3.103 0 0 1-2.565 1.353h-.743a3.106 3.106 0 0 1-3.106-3.106v-.892c0-2.446-.956-3.305-1.892-3.823l-.074-.042c-.622-.367-1.434-.572-2.415-.61h-6.8v40.455c.026.464.175.789.51 1.115.338.329.658.457 1.141.457h.892a3.107 3.107 0 0 1 3.091 2.798l.074.743a3.106 3.106 0 0 1-3.091 3.415h-22.596a3.106 3.106 0 0 1-3.106-3.106v-.743a3.106 3.106 0 0 1 3.106-3.106h.966c.358 0 .676-.078 1.067-.458.351-.342.529-.681.584-1.121V92.229h-6.89c-1.897.048-2.751.711-3.228 1.205-.488.506-1.137 1.396-1.137 3.27v.892a3.106 3.106 0 0 1-3.106 3.106h-.743a3.103 3.103 0 0 1-2.514-1.281 3.11 3.11 0 0 1-2.923 1.414l-.743-.074a3.106 3.106 0 0 1-2.798-3.091v-.817c0-2.463-.931-3.322-1.842-3.837l-.05-.029c-.632-.373-1.398-.572-2.341-.609h-9.325v15.417h6.658c1.014-.033 1.743-.331 2.362-.964.62-.632.896-1.349.896-2.323v-.669a3.106 3.106 0 0 1 3.106-3.106h.744a3.106 3.106 0 0 1 3.106 3.106v17.17a3.106 3.106 0 0 1-3.106 3.106h-.744a3.106 3.106 0 0 1-3.106-3.106v-.594c0-1.025-.265-1.754-.859-2.361-.593-.605-1.289-.892-2.253-.925h-6.804v14.674h6.631c2.884 0 5.205-.78 7.095-2.384 1.985-1.684 3.502-4.174 4.507-7.401a3.107 3.107 0 0 1 2.966-2.182h.745a3.105 3.105 0 0 1 3.005 3.889l-3.397 15.063a3.106 3.106 0 0 1-3.03 2.423h-38.502a3.106 3.106 0 0 1-3.106-3.106v-.743a3.106 3.106 0 0 1 3.106-3.106h.966c.465 0 .776-.13 1.111-.465.353-.353.512-.699.54-1.183V91.413c-.044-.445-.127-.652-.158-.714-.406-.364-.979-.774-1.493-.774h-.966a3.106 3.106 0 0 1-3.106-3.106v-.743a3.106 3.106 0 0 1 3.106-3.106h28.468c2.179 0 3.966-.16 5.31-.475 1.821-.428 2.315-.589 2.416-.625a3.097 3.097 0 0 1 2.902.275c.329.217.609.491.83.804a3.108 3.108 0 0 1 3.781-1.154c1.136.472 3.376 1.045 7.601 1.101h29.933c1.361 0 2.88-.136 4.513-.405 2.171-.357 2.872-.613 3.035-.683a3.101 3.101 0 0 1 2.933.262c.342.225.63.512.854.84a3.106 3.106 0 0 1 3.756-1.117c1.136.472 3.376 1.045 7.601 1.101h29.933c1.361 0 2.88-.136 4.513-.405 2.171-.357 2.872-.613 3.035-.683a3.101 3.101 0 0 1 2.933.262 3.107 3.107 0 0 1 1.28 1.752 3.095 3.095 0 0 1 2.138-.853h28.468c2.179 0 3.966-.16 5.31-.475 1.821-.428 2.315-.589 2.416-.625a3.097 3.097 0 0 1 2.902.275 3.107 3.107 0 0 1 1.397 2.594v13.008a3.104 3.104 0 0 1-3.416 3.091l-.744-.074a3.106 3.106 0 0 1-2.798-3.091v-.817c0-2.463-.931-3.322-1.842-3.837l-.05-.029c-.632-.373-1.398-.572-2.341-.609h-9.325v15.417h6.658c1.014-.033 1.743-.331 2.362-.964.62-.632.896-1.349.896-2.323v-.669a3.106 3.106 0 0 1 3.106-3.106h.744a3.106 3.106 0 0 1 3.106 3.106v17.17a3.106 3.106 0 0 1-3.106 3.106h-.744a3.106 3.106 0 0 1-3.106-3.106v-.594c0-1.025-.265-1.754-.859-2.361-.593-.605-1.289-.892-2.253-.925h-6.804v14.674h6.631c2.884 0 5.205-.78 7.095-2.384 1.985-1.684 3.502-4.174 4.507-7.401a3.107 3.107 0 0 1 2.966-2.182h.745a3.105 3.105 0 0 1 3.105 3.106Zm-194.341.783-3.397 15.063a3.106 3.106 0 0 1-3.03 2.423h-38.502a3.106 3.106 0 0 1-3.106-3.106v-.743a3.106 3.106 0 0 1 3.106-3.106h.966c.465 0 .776-.13 1.111-.465.354-.353.512-.699.54-1.183V91.572c-.028-.484-.187-.83-.539-1.182-.336-.336-.648-.466-1.112-.466h-.966a3.104 3.104 0 0 1-2.565-1.353 3.103 3.103 0 0 1-2.565 1.353h-1.263c-.309 0-.453.076-.598.206-.119.107-.15.165-.161.28v28.889c0 6.96-2.257 12.6-6.708 16.764-4.393 4.106-10.383 6.188-17.805 6.188-8.543 0-15.267-2.008-19.984-5.967-4.879-4.095-7.353-9.785-7.353-16.911V90.594c-.016-.344-.084-.434-.325-.569a1.191 1.191 0 0 0-.508-.101h-1.189a3.106 3.106 0 0 1-3.106-3.106v-.743a3.106 3.106 0 0 1 3.106-3.106h21.407a3.106 3.106 0 0 1 3.106 3.106v.743a3.106 3.106 0 0 1-3.106 3.106h-1.189c-.443 0-.586.129-.672.206-.082.074-.143.128-.161.347v28.302c0 4.479 1.056 8.008 3.139 10.491 1.973 2.354 4.671 3.498 8.248 3.498 3.624 0 6.372-1.089 8.401-3.328 2.115-2.334 3.164-5.51 3.209-9.709V90.513c-.033-.322-.116-.379-.306-.479a1.183 1.183 0 0 0-.527-.111h-1.189a3.106 3.106 0 0 1-3.106-3.106v-.743a3.106 3.106 0 0 1 3.106-3.106h15.535c1.065 0 2.005.536 2.565 1.353a3.103 3.103 0 0 1 2.565-1.353h22.598a3.105 3.105 0 0 1 3.079 3.506l-.065.652a3.107 3.107 0 0 1-3.091 2.798h-.892c-.476 0-.817.143-1.177.493-.341.332-.474.636-.474 1.083v40.302h6.631c2.884 0 5.205-.78 7.095-2.384 1.985-1.685 3.502-4.175 4.507-7.401a3.107 3.107 0 0 1 2.966-2.182h.745a3.105 3.105 0 0 1 3.005 3.889ZM279.308 90.03c-5.846-5.378-13.73-8.105-23.436-8.105s-17.591 2.727-23.435 8.104c-5.919 5.448-8.919 12.869-8.919 22.058s3.001 16.612 8.919 22.057c5.843 5.378 13.728 8.104 23.435 8.104s17.592-2.727 23.436-8.105c5.918-5.445 8.919-12.867 8.919-22.057s-3.001-16.61-8.919-22.057Zm-13.511 37.752c-2.476 3.454-5.735 5.133-9.963 5.133s-7.468-1.676-9.918-5.123c-2.652-3.729-3.996-9.012-3.996-15.704s1.345-11.974 3.996-15.704c2.452-3.447 5.696-5.123 9.918-5.123s7.486 1.679 9.963 5.133c2.672 3.728 4.026 9.008 4.026 15.694s-1.355 11.967-4.027 15.694Zm38.065-61.689a8.63 8.63 0 0 0 7.851 5.068 8.551 8.551 0 0 0 3.452-.725c1.94-.85 4.855-1.577 5.88-1.577 1.579 0 2.5.327 4.167.921 2.162.786 5.122 1.861 9.465 1.861 6.399 0 11.686-1.524 15.757-4.536a8.629 8.629 0 0 0 6.843 3.384h20.535a8.769 8.769 0 0 0 3.004.522c1.906 0 3.726-.587 5.752-1.879a17.47 17.47 0 0 0 4.784.663c5.46 0 10.897-2.456 15.495-6.887a15.607 15.607 0 0 0 2.959 4.095c3.058 3.034 7.204 4.637 11.99 4.637 5.586 0 10.207-2.252 13.364-6.512 2.232-3.012 3.447-6.588 4.734-10.373 1.845-5.431 3.752-11.046 8.918-16.416l.071-.075c2.216-2.36 4.812-4.496 7.936-6.529a8.588 8.588 0 0 0 2.7-11.628l-5.059-8.487a8.608 8.608 0 0 0-12.853-2.253c-.66.54-1.114.651-1.594.651-.914 0-2.849-.547-4.556-1.03l-.113-.032c-2.768-.797-6.231-1.793-9.833-1.793-4.313 0-10.686 1.062-15.423 3.974a20.021 20.021 0 0 0-3.685-1.745 20.076 20.076 0 0 0-4.073-.969 8.604 8.604 0 0 0-1.332-.104h-20.546a8.655 8.655 0 0 0-5.282 1.81l-14.789 11.485c-1.335-3.621-3.715-6.79-6.969-9.199-4.582-3.393-10.717-5.186-17.744-5.186-6.908 0-13.928 2.565-19.259 7.038-5.76 4.833-9.064 11.433-9.064 18.108 0 3.935 1.458 7.631 3.977 10.403a126.855 126.855 0 0 1-7.255 4.204c-3.994 2.127-5.663 7.023-3.8 11.147l3.597 7.963Z" fill-opacity=".25"/><path d="M593.409 119.032c0 .271-.035.533-.1.783l-3.397 15.063a3.106 3.106 0 0 1-3.03 2.423H548.38a3.106 3.106 0 0 1-3.106-3.106v-.743a3.106 3.106 0 0 1 3.106-3.106h.966c.465 0 .776-.13 1.111-.465.353-.354.512-.699.54-1.183V87.503c-.044-.446-.127-.652-.158-.714-.406-.364-.979-.774-1.493-.774h-.966a3.094 3.094 0 0 1-2.023-.749v8.42a3.106 3.106 0 0 1-3.106 3.106h-.744a3.106 3.106 0 0 1-3.106-3.106v-.892c0-2.446-.956-3.305-1.892-3.823l-.074-.042c-.622-.367-1.434-.572-2.415-.61h-6.8v40.455c.026.464.175.789.51 1.115.338.329.658.457 1.141.457h.892a3.107 3.107 0 0 1 3.091 2.798l.074.743a3.106 3.106 0 0 1-3.091 3.415h-22.596a3.106 3.106 0 0 1-3.106-3.106v-.743a3.106 3.106 0 0 1 3.106-3.106h.966c.358 0 .676-.078 1.067-.458.351-.341.529-.681.584-1.121V88.32h-6.89c-1.897.048-2.751.711-3.228 1.205-.488.506-1.137 1.396-1.137 3.27v.892a3.106 3.106 0 0 1-3.106 3.106h-.743a3.104 3.104 0 0 1-2.565-1.353 3.103 3.103 0 0 1-2.565 1.353h-.743a3.106 3.106 0 0 1-3.106-3.106v-.892c0-2.446-.956-3.305-1.892-3.823l-.074-.042c-.622-.367-1.434-.572-2.415-.61h-6.8v40.455c.026.464.175.789.51 1.115.338.329.658.457 1.141.457h.892a3.107 3.107 0 0 1 3.091 2.798l.074.743a3.106 3.106 0 0 1-3.091 3.415h-22.596a3.106 3.106 0 0 1-3.106-3.106v-.743a3.106 3.106 0 0 1 3.106-3.106h.966c.358 0 .676-.078 1.067-.458.351-.342.529-.681.584-1.121V88.321h-6.89c-1.897.048-2.751.711-3.228 1.205-.488.506-1.137 1.396-1.137 3.27v.892a3.106 3.106 0 0 1-3.106 3.106h-.743a3.103 3.103 0 0 1-2.514-1.281 3.11 3.11 0 0 1-2.923 1.414l-.743-.074a3.106 3.106 0 0 1-2.798-3.091v-.817c0-2.463-.931-3.322-1.842-3.837l-.05-.029c-.632-.373-1.398-.572-2.341-.609h-9.325v15.417h6.658c1.014-.033 1.743-.331 2.362-.964.62-.632.896-1.349.896-2.323v-.669a3.106 3.106 0 0 1 3.106-3.106h.744a3.106 3.106 0 0 1 3.106 3.106v17.17a3.106 3.106 0 0 1-3.106 3.106h-.744a3.106 3.106 0 0 1-3.106-3.106v-.594c0-1.025-.265-1.754-.859-2.361-.593-.605-1.289-.892-2.253-.925h-6.804v14.674h6.631c2.884 0 5.205-.78 7.095-2.384 1.985-1.684 3.502-4.174 4.507-7.401a3.107 3.107 0 0 1 2.966-2.182h.745a3.105 3.105 0 0 1 3.005 3.889l-3.397 15.063a3.106 3.106 0 0 1-3.03 2.423h-38.502a3.106 3.106 0 0 1-3.106-3.106v-.743a3.106 3.106 0 0 1 3.106-3.106h.966c.465 0 .776-.13 1.111-.465.353-.353.512-.699.54-1.183V87.505c-.044-.445-.127-.652-.158-.714-.406-.364-.979-.774-1.493-.774h-.966a3.106 3.106 0 0 1-3.106-3.106v-.743a3.106 3.106 0 0 1 3.106-3.106h28.468c2.179 0 3.966-.16 5.31-.475 1.821-.428 2.315-.589 2.416-.625a3.097 3.097 0 0 1 2.902.275c.329.217.609.491.83.804a3.108 3.108 0 0 1 3.781-1.154c1.136.472 3.376 1.045 7.601 1.101h29.933c1.361 0 2.88-.136 4.513-.405 2.171-.357 2.872-.613 3.035-.683a3.101 3.101 0 0 1 2.933.262c.342.225.63.512.854.84a3.106 3.106 0 0 1 3.756-1.117c1.136.472 3.376 1.045 7.601 1.101h29.933c1.361 0 2.88-.136 4.513-.405 2.171-.357 2.872-.613 3.035-.683a3.101 3.101 0 0 1 2.933.262 3.107 3.107 0 0 1 1.28 1.752 3.095 3.095 0 0 1 2.139-.853h28.468c2.179 0 3.966-.16 5.31-.475 1.821-.428 2.315-.589 2.416-.625a3.097 3.097 0 0 1 2.902.275 3.107 3.107 0 0 1 1.397 2.594v13.008a3.104 3.104 0 0 1-3.416 3.091l-.744-.074a3.106 3.106 0 0 1-2.798-3.091v-.817c0-2.463-.931-3.322-1.842-3.837l-.05-.029c-.632-.373-1.398-.572-2.341-.609h-9.325v15.417h6.658c1.014-.033 1.743-.331 2.362-.964.62-.632.896-1.349.896-2.323v-.669a3.106 3.106 0 0 1 3.106-3.106h.743a3.106 3.106 0 0 1 3.106 3.106v17.17a3.106 3.106 0 0 1-3.106 3.106h-.743a3.106 3.106 0 0 1-3.106-3.106v-.594c0-1.025-.265-1.754-.859-2.361-.593-.605-1.289-.892-2.253-.925h-6.804v14.674h6.631c2.884 0 5.205-.78 7.095-2.384 1.985-1.684 3.502-4.174 4.507-7.401a3.107 3.107 0 0 1 2.966-2.182h.745a3.105 3.105 0 0 1 3.105 3.106ZM292.134 108.18c0 9.191-3.001 16.612-8.919 22.057-5.844 5.378-13.729 8.105-23.436 8.105s-17.592-2.727-23.435-8.104c-5.918-5.446-8.919-12.867-8.919-22.057s3.001-16.61 8.919-22.058c5.845-5.378 13.73-8.104 23.435-8.104s17.591 2.727 23.436 8.105c5.918 5.447 8.919 12.868 8.919 22.057Zm-18.403 0c0-6.686-1.355-11.966-4.026-15.694-2.477-3.454-5.736-5.133-9.963-5.133s-7.467 1.676-9.918 5.123c-2.652 3.73-3.996 9.014-3.996 15.704s1.345 11.975 3.996 15.704c2.451 3.447 5.695 5.123 9.918 5.123s7.487-1.679 9.963-5.133c2.672-3.727 4.027-9.008 4.027-15.694Zm-15.565 37.908v.743a3.106 3.106 0 0 1-1.717 2.778c-4.282 2.141-8.901 3.227-13.728 3.227-4.222 0-8.14-.667-11.631-1.977-7.434-2.747-13.814-8.119-18.966-15.968-1.26-1.814-3.525-5.175-6.922-10.272-3.335-5.001-5.517-8.225-6.485-9.581-.032-.044-.062-.09-.092-.136-.33-.519-.626-.956-.889-1.323v15.189c0 .448.132.751.475 1.084.359.35.7.493 1.176.493h.966a3.106 3.106 0 0 1 3.106 3.106v.743a3.106 3.106 0 0 1-3.106 3.106h-22.596a3.106 3.106 0 0 1-3.106-3.106v-.743a3.106 3.106 0 0 1 3.106-3.106h.966c.441 0 .769-.141 1.134-.487.343-.325.491-.633.517-1.087V87.662c-.028-.483-.186-.829-.538-1.181-.337-.336-.649-.467-1.113-.467h-.966a3.106 3.106 0 0 1-3.106-3.106v-.743a3.106 3.106 0 0 1 3.106-3.106h25.495c7.105 0 12.775 1.717 16.838 5.092 3.515 2.888 5.297 6.946 5.297 12.063 0 5.019-1.683 9.185-5.003 12.384-1.486 1.431-3.085 2.543-4.787 3.332a61.782 61.782 0 0 1 3.433 3.674 103.84 103.84 0 0 1 2.686 3.262c.716.916 1.669 2.127 2.856 3.636 1.189 1.511 2.426 3.083 3.716 4.718a88.243 88.243 0 0 0 4.127 4.845 43.774 43.774 0 0 0 4.857 4.543c1.724 1.388 3.499 2.543 5.289 3.438 3.762 1.903 7.977 2.891 12.528 2.936a3.107 3.107 0 0 1 3.076 3.106Zm-50.884-49.652c0-2.661-.661-4.592-2.02-5.9-1.395-1.342-3.025-1.994-4.982-1.994h-2.543v16.383h.833c2.019 0 3.818-.435 5.5-1.331 1.384-.772 3.212-2.358 3.212-7.158Zm191.886 22.596a3.105 3.105 0 0 0-3.105-3.106h-.745c-1.36 0-2.561.884-2.966 2.182-1.005 3.226-2.522 5.716-4.507 7.401-1.891 1.604-4.211 2.384-7.095 2.384h-6.631V87.591c0-.447.133-.751.474-1.083.36-.35.701-.493 1.177-.493h.892a3.107 3.107 0 0 0 3.091-2.798l.065-.652a3.105 3.105 0 0 0-3.079-3.506h-22.598a3.104 3.104 0 0 0-2.565 1.353 3.103 3.103 0 0 0-2.565-1.353h-15.535a3.106 3.106 0 0 0-3.106 3.106v.743a3.106 3.106 0 0 0 3.106 3.106h1.189c.202 0 .37.035.527.111.19.1.272.157.306.479v29.218c-.045 4.199-1.095 7.375-3.209 9.709-2.029 2.239-4.778 3.328-8.401 3.328-3.577 0-6.275-1.144-8.248-3.498-2.083-2.483-3.139-6.012-3.139-10.491V86.568c.018-.219.079-.274.161-.347.086-.077.229-.206.672-.206h1.189a3.106 3.106 0 0 0 3.106-3.106v-.743a3.106 3.106 0 0 0-3.106-3.106h-21.407a3.106 3.106 0 0 0-3.106 3.106v.743a3.106 3.106 0 0 0 3.106 3.106h1.189c.194 0 .356.032.508.101.242.136.309.225.325.569v28.779c0 7.126 2.474 12.816 7.353 16.911 4.717 3.959 11.441 5.967 19.984 5.967 7.422 0 13.412-2.082 17.805-6.188 4.451-4.163 6.708-9.803 6.708-16.764V86.501c.011-.115.043-.173.161-.28.145-.13.289-.206.598-.206h1.263a3.104 3.104 0 0 0 2.565-1.353 3.103 3.103 0 0 0 2.565 1.353h.966c.464 0 .776.131 1.112.466.352.352.511.698.539 1.182v41.034c-.028.484-.186.83-.54 1.183-.335.335-.646.465-1.111.465h-.966a3.106 3.106 0 0 0-3.106 3.106v.743a3.106 3.106 0 0 0 3.106 3.106h38.502a3.106 3.106 0 0 0 3.03-2.423l3.397-15.063c.065-.25.1-.513.1-.783Z"/><path d="M255.06 146.831c-3.865 1.933-7.978 2.899-12.339 2.899-3.865 0-7.384-.595-10.554-1.784-6.838-2.527-12.662-7.458-17.467-14.791-1.239-1.784-3.543-5.203-6.913-10.257-3.37-5.055-5.55-8.274-6.541-9.663-1.735-2.725-3.122-4.211-4.162-4.46v-.743h1.486c2.527 0 4.856-.569 6.987-1.71 3.221-1.784 4.831-5.079 4.831-9.886 0-3.518-.992-6.231-2.973-8.139-1.983-1.907-4.361-2.861-7.136-2.861h-5.649v43.333c0 1.289.47 2.392 1.412 3.308.941.918 2.056 1.375 3.345 1.375h.966v.743h-22.596v-.743h.966c1.238 0 2.329-.446 3.27-1.338.941-.892 1.437-1.981 1.487-3.27V87.591c-.05-1.288-.533-2.39-1.449-3.308-.918-.916-2.02-1.375-3.308-1.375h-.966v-.743h25.495c6.392 0 11.347 1.462 14.866 4.386 2.775 2.28 4.162 5.5 4.162 9.663s-1.351 7.544-4.051 10.146c-2.701 2.601-5.786 3.902-9.254 3.902-.297 0-.62-.024-.966-.074 2.031 1.091 3.728 2.304 5.092 3.642a59.898 59.898 0 0 1 3.568 3.791 99.581 99.581 0 0 1 2.601 3.159c.718.918 1.672 2.131 2.862 3.642 1.189 1.512 2.427 3.085 3.717 4.719 1.288 1.635 2.713 3.308 4.274 5.017s3.295 3.332 5.203 4.868c1.907 1.536 3.852 2.799 5.835 3.791 4.211 2.131 8.845 3.221 13.899 3.271v.743Zm-16.613-58.422c5.277-4.855 12.387-7.284 21.332-7.284s16.055 2.429 21.332 7.284c5.277 4.857 7.916 11.447 7.916 19.772s-2.639 14.916-7.916 19.772c-5.277 4.857-12.389 7.284-21.332 7.284s-16.055-2.427-21.332-7.284c-5.277-4.856-7.916-11.446-7.916-19.772s2.639-14.914 7.916-19.772Zm8.845 37.275c3.048 4.287 7.197 6.43 12.45 6.43s9.414-2.143 12.487-6.43c3.072-4.285 4.608-10.12 4.608-17.504s-1.536-13.218-4.608-17.504c-3.073-4.285-7.235-6.43-12.487-6.43s-9.403 2.144-12.45 6.43c-3.048 4.287-4.571 10.121-4.571 17.504s1.523 13.219 4.571 17.504ZM349.01 82.908h-1.263c-1.041 0-1.932.334-2.676 1.003-.743.669-1.141 1.499-1.189 2.491v28.988c0 6.095-1.908 10.926-5.723 14.495-3.816 3.567-9.044 5.351-15.683 5.351-7.83 0-13.825-1.747-17.987-5.24s-6.244-8.336-6.244-14.532V86.625c-.05-1.486-.719-2.576-2.007-3.27a4.267 4.267 0 0 0-1.933-.446h-1.189v-.743h21.407v.743h-1.189c-1.091 0-2.007.334-2.75 1.003-.744.669-1.141 1.524-1.189 2.565v28.394c0 5.253 1.288 9.415 3.865 12.487 2.576 3.073 6.119 4.609 10.629 4.609s8.076-1.45 10.703-4.348c2.626-2.898 3.964-6.825 4.014-11.781v-29.36c-.1-1.437-.769-2.477-2.007-3.122a4.267 4.267 0 0 0-1.933-.446h-1.189v-.743h15.535v.743Zm6.095 50.544c1.288 0 2.39-.457 3.308-1.375.916-.916 1.399-2.019 1.45-3.308V87.591c-.05-1.288-.533-2.39-1.45-3.308-.917-.916-2.02-1.375-3.308-1.375h-.966v-.743h22.596l-.074.743h-.892c-1.289 0-2.404.459-3.345 1.375-.942.918-1.412 2.02-1.412 3.308v43.408h9.737c3.617 0 6.652-1.041 9.105-3.122s4.274-5.029 5.463-8.845h.743l-3.419 15.163h-38.502v-.743h.966Zm46.475 0c1.288 0 2.39-.457 3.308-1.375.916-.916 1.399-2.019 1.45-3.308V87.368c-.1-1.288-.472-2.23-1.115-2.824-1.189-1.089-2.404-1.635-3.642-1.635h-.966v-.743h28.468c2.427 0 4.434-.185 6.021-.557 1.585-.372 2.552-.632 2.899-.781v13.007l-.744-.074v-.817c0-3.072-1.14-5.252-3.419-6.541-1.09-.644-2.378-.991-3.865-1.041h-12.487v21.629h9.811c1.833-.049 3.345-.681 4.534-1.896 1.189-1.214 1.784-2.713 1.784-4.497v-.669h.744v17.17h-.744v-.594c0-1.833-.583-3.345-1.747-4.535-1.165-1.189-2.639-1.808-4.423-1.858h-9.96v20.886h9.737c3.617 0 6.652-1.041 9.105-3.122s4.274-5.029 5.463-8.845h.743l-3.419 15.163h-38.502v-.743h.966Zm70.91-48.239v43.631c.049 1.289.532 2.379 1.449 3.27.916.892 2.019 1.338 3.308 1.338h.892l.074.743h-22.596v-.743h.966c1.238 0 2.316-.446 3.233-1.338.916-.892 1.424-1.957 1.524-3.196V85.213h-10.034c-2.28.05-4.088.769-5.426 2.155-1.338 1.388-2.007 3.197-2.007 5.426v.892h-.743V80.753c2.031.843 4.955 1.289 8.771 1.338h29.954c1.535 0 3.208-.148 5.017-.446 1.808-.297 3.059-.595 3.754-.892v12.933h-.744v-.892c0-3.072-1.165-5.252-3.493-6.541-1.091-.644-2.404-.99-3.939-1.041h-9.96Zm52.625 0v43.631c.049 1.289.532 2.379 1.449 3.27.916.892 2.019 1.338 3.308 1.338h.892l.074.743h-22.596v-.743h.966c1.238 0 2.316-.446 3.233-1.338.916-.892 1.424-1.957 1.524-3.196V85.213h-10.034c-2.28.05-4.088.769-5.426 2.155-1.338 1.388-2.007 3.197-2.007 5.426v.892h-.743V80.753c2.031.843 4.955 1.289 8.771 1.338h29.954c1.535 0 3.208-.148 5.017-.446 1.808-.297 3.059-.595 3.754-.892v12.933h-.744v-.892c0-3.072-1.165-5.252-3.493-6.541-1.091-.644-2.404-.99-3.939-1.041h-9.96Zm24.232 48.239c1.288 0 2.39-.457 3.308-1.375.916-.916 1.399-2.019 1.45-3.308V87.368c-.1-1.288-.472-2.23-1.115-2.824-1.189-1.089-2.404-1.635-3.642-1.635h-.966v-.743h28.468c2.427 0 4.434-.185 6.021-.557 1.585-.372 2.552-.632 2.899-.781v13.007l-.744-.074v-.817c0-3.072-1.14-5.252-3.419-6.541-1.09-.644-2.378-.991-3.865-1.041h-12.487v21.629h9.811c1.833-.049 3.345-.681 4.534-1.896 1.189-1.214 1.784-2.713 1.784-4.497v-.669h.744v17.17h-.744v-.594c0-1.833-.583-3.345-1.747-4.535-1.165-1.189-2.639-1.808-4.423-1.858h-9.96v20.886h9.737c3.617 0 6.652-1.041 9.105-3.122s4.274-5.029 5.463-8.845h.743l-3.419 15.163h-38.502v-.743h.966Z" fill="url(#g)"/><path d="M489.747 81.96v6.404c-.657-1.198-1.633-2.159-2.921-2.874-1.212-.712-2.675-1.101-4.347-1.156h-9.989a.879.879 0 0 0-.879.879v43.664c.057 1.516.634 2.817 1.714 3.867.217.212.444.402.681.572h-14.255c.234-.17.461-.36.678-.572 1.069-1.04 1.67-2.303 1.787-3.755a.843.843 0 0 0 .003-.071V85.213a.879.879 0 0 0-.879-.879h-10.054c-2.509.055-4.541.871-6.04 2.424a7.7 7.7 0 0 0-1.238 1.689v-6.45c2.018.612 4.615.931 7.892.973h29.954c1.577 0 3.313-.154 5.16-.457 1.113-.183 2.018-.366 2.732-.552m52.626-.001v6.404c-.657-1.198-1.632-2.158-2.921-2.874-1.212-.712-2.675-1.101-4.347-1.156h-9.989a.879.879 0 0 0-.879.879v43.664c.057 1.516.634 2.817 1.714 3.867.217.212.444.402.681.572h-14.255c.234-.17.461-.36.678-.572 1.069-1.04 1.67-2.303 1.787-3.755a.843.843 0 0 0 .003-.071V85.213a.879.879 0 0 0-.879-.879h-10.054c-2.509.055-4.541.871-6.04 2.424a7.723 7.723 0 0 0-1.238 1.689v-6.45c2.018.612 4.615.931 7.892.973h29.954c1.577 0 3.313-.154 5.16-.457 1.113-.183 2.018-.366 2.732-.552m-282.592.043c8.674 0 15.651 2.373 20.737 7.052 5.064 4.661 7.632 11.096 7.632 19.125s-2.568 14.465-7.632 19.125c-5.085 4.679-12.061 7.052-20.737 7.052s-15.652-2.373-20.737-7.052c-5.064-4.66-7.632-11.095-7.632-19.125s2.568-14.463 7.632-19.125c5.086-4.679 12.063-7.052 20.737-7.052m-.037 50.989c5.527 0 9.969-2.287 13.202-6.797 3.167-4.418 4.773-10.48 4.773-18.017s-1.606-13.597-4.773-18.017c-3.234-4.51-7.676-6.796-13.202-6.796s-9.958 2.288-13.167 6.799c-3.141 4.418-4.734 10.479-4.734 18.014s1.593 13.597 4.734 18.014c3.208 4.512 7.637 6.799 13.167 6.799m325.147-50.976v6.46c-.643-1.18-1.591-2.126-2.837-2.83-1.215-.717-2.656-1.108-4.283-1.162h-12.516a.879.879 0 0 0-.879.879v21.629c0 .486.394.879.879.879h9.834c2.061-.055 3.79-.781 5.139-2.159a7.195 7.195 0 0 0 1.02-1.307v8.216a6.95 6.95 0 0 0-.983-1.265c-1.324-1.351-3.015-2.065-5.026-2.121h-9.985a.879.879 0 0 0-.879.879V131c0 .486.394.879.879.879h9.737c3.815 0 7.069-1.121 9.674-3.331 1.369-1.161 2.555-2.586 3.552-4.263l-2.036 9.031h-33.625a5.92 5.92 0 0 0 .721-.617c1.074-1.073 1.648-2.384 1.706-3.895V87.369c0-.023 0-.045-.003-.068-.117-1.51-.586-2.655-1.398-3.405a8.67 8.67 0 0 0-1.083-.851h24.349c2.484 0 4.577-.195 6.222-.58a71.841 71.841 0 0 0 1.819-.448m-147.765-.001v6.46c-.643-1.18-1.591-2.126-2.837-2.83-1.215-.717-2.656-1.108-4.283-1.162h-12.516a.879.879 0 0 0-.879.879v21.629c0 .486.394.879.879.879h9.834c2.061-.055 3.79-.781 5.139-2.159a7.195 7.195 0 0 0 1.02-1.307v8.216a6.95 6.95 0 0 0-.983-1.265c-1.324-1.351-3.015-2.065-5.026-2.121h-9.985a.879.879 0 0 0-.879.879V131c0 .486.394.879.879.879h9.737c3.815 0 7.069-1.121 9.674-3.331 1.368-1.161 2.555-2.587 3.552-4.263l-2.036 9.031h-33.625a6.01 6.01 0 0 0 .721-.617c1.074-1.074 1.648-2.384 1.706-3.895V87.369c0-.023 0-.045-.003-.068-.117-1.51-.586-2.655-1.398-3.405a8.67 8.67 0 0 0-1.083-.851h24.349c2.484 0 4.577-.195 6.222-.58a71.841 71.841 0 0 0 1.819-.448m-64.582 1.027c-.252.18-.495.383-.728.609-1.113 1.085-1.678 2.41-1.678 3.938v43.408c0 .486.394.879.879.879h9.737c3.815 0 7.069-1.121 9.674-3.331 1.368-1.161 2.555-2.586 3.552-4.263l-2.036 9.031h-33.625a6.01 6.01 0 0 0 .721-.617c1.074-1.074 1.648-2.384 1.706-3.895V87.557c-.059-1.51-.633-2.82-1.707-3.896a6.006 6.006 0 0 0-.722-.617h14.226m-27.801 0a5.048 5.048 0 0 0-.254.214c-.921.829-1.419 1.872-1.479 3.101l-.001.043v28.988c0 5.813-1.832 10.474-5.444 13.852-3.63 3.394-8.705 5.114-15.083 5.114-7.58 0-13.442-1.694-17.422-5.034-3.935-3.302-5.93-7.965-5.93-13.858V86.596c-.05-1.491-.651-2.703-1.751-3.551h12.877a4.638 4.638 0 0 0-.254.214c-.922.829-1.419 1.898-1.479 3.177v28.435c0 5.441 1.37 9.833 4.07 13.052 2.738 3.267 6.541 4.923 11.303 4.923s8.566-1.56 11.355-4.637c2.762-3.049 4.189-7.209 4.241-12.371v-29.36c0-.02 0-.041-.002-.061-.099-1.421-.693-2.57-1.739-3.371h6.994m-141.485-.002c6.15 0 10.963 1.407 14.308 4.186 2.585 2.124 3.841 5.062 3.841 8.983 0 3.949-1.237 7.061-3.782 9.513-2.555 2.46-5.383 3.656-8.644 3.656-.259 0-.542-.022-.84-.065a.88.88 0 0 0-.542 1.645c1.949 1.046 3.595 2.222 4.891 3.495a59.168 59.168 0 0 1 3.515 3.734c1 1.171 1.868 2.225 2.577 3.13a4879.152 4879.152 0 0 0 6.58 8.364 92.29 92.29 0 0 0 4.315 5.066 47.66 47.66 0 0 0 5.301 4.96c1.945 1.566 3.961 2.876 5.989 3.89 3.69 1.867 7.741 2.965 12.071 3.276a26.49 26.49 0 0 1-10.113 1.974c-3.742 0-7.189-.582-10.25-1.73-6.627-2.449-12.359-7.31-17.037-14.448l-.013-.02c-1.225-1.763-3.548-5.21-6.903-10.243-3.344-5.014-5.545-8.266-6.543-9.666-1.134-1.778-2.122-3.041-3.009-3.837 2.513-.058 4.869-.666 7.017-1.815 3.506-1.942 5.284-5.527 5.284-10.655 0-3.749-1.091-6.7-3.243-8.773-2.144-2.062-4.749-3.107-7.745-3.107h-5.649a.879.879 0 0 0-.879.879v43.333c0 1.53.565 2.854 1.678 3.937.233.227.475.43.727.61h-14.24c.235-.167.463-.355.683-.564 1.109-1.051 1.702-2.355 1.761-3.874V87.557c-.058-1.51-.632-2.82-1.707-3.896a6.006 6.006 0 0 0-.722-.617h21.321m340-2.291c-.695.297-1.945.595-3.754.892-1.81.297-3.482.446-5.017.446h-29.954c-3.816-.049-6.739-.495-8.771-1.338v12.933h.743v-.892c0-2.23.669-4.038 2.007-5.426 1.338-1.387 3.146-2.105 5.426-2.155h10.034v43.705c-.1 1.239-.608 2.304-1.524 3.196-.918.892-1.995 1.338-3.233 1.338h-.966v.743h22.596l-.074-.743h-.892c-1.289 0-2.392-.446-3.308-1.338-.917-.892-1.4-1.981-1.449-3.27V85.213h9.96c1.535.05 2.849.397 3.939 1.041 2.328 1.289 3.493 3.469 3.493 6.541v.892h.744V80.754Zm-52.625 0c-.695.297-1.946.595-3.754.892-1.809.297-3.482.446-5.017.446h-29.954c-3.816-.049-6.739-.495-8.771-1.338v12.933h.743v-.892c0-2.23.669-4.038 2.007-5.426 1.338-1.387 3.146-2.105 5.426-2.155h10.034v43.705c-.1 1.239-.607 2.304-1.524 3.196-.918.892-1.995 1.338-3.233 1.338h-.966v.743h22.596l-.074-.743h-.892c-1.289 0-2.392-.446-3.308-1.338-.917-.892-1.4-1.981-1.449-3.27V85.213h9.96c1.535.05 2.849.397 3.939 1.041 2.328 1.289 3.493 3.469 3.493 6.541v.892h.744V80.754Zm95.142.074c-.347.149-1.314.409-2.899.781-1.587.372-3.593.557-6.021.557H548.38v.743h.966c1.238 0 2.453.546 3.642 1.635.644.595 1.015 1.536 1.115 2.824v41.401c-.05 1.289-.533 2.392-1.45 3.308-.917.918-2.02 1.375-3.307 1.375h-.966v.743h38.502l3.419-15.163h-.743c-1.189 3.816-3.01 6.764-5.463 8.845-2.453 2.081-5.489 3.122-9.105 3.122h-9.737v-20.886h9.96c1.784.05 3.258.669 4.423 1.858 1.164 1.19 1.747 2.701 1.747 4.535v.594h.744v-17.17h-.744v.669c0 1.784-.594 3.283-1.784 4.497-1.189 1.215-2.701 1.847-4.534 1.896h-9.811V85.362h12.487c1.487.049 2.775.397 3.865 1.041 2.279 1.289 3.419 3.469 3.419 6.541v.817l.744.074V80.828Zm-147.767 0c-.347.149-1.314.409-2.899.781-1.587.372-3.593.557-6.021.557h-28.468v.743h.966c1.238 0 2.453.546 3.642 1.635.644.595 1.015 1.536 1.115 2.824v41.401c-.05 1.289-.533 2.392-1.45 3.308-.917.918-2.02 1.375-3.307 1.375h-.966v.743h38.502l3.419-15.163h-.743c-1.189 3.816-3.01 6.764-5.463 8.845-2.453 2.081-5.489 3.122-9.105 3.122h-9.737v-20.886h9.96c1.784.05 3.258.669 4.423 1.858 1.164 1.19 1.747 2.701 1.747 4.535v.594h.743v-17.17h-.743v.669c0 1.784-.594 3.283-1.784 4.497-1.189 1.215-2.701 1.847-4.534 1.896h-9.811V85.362h12.487c1.487.049 2.775.397 3.865 1.041 2.279 1.289 3.419 3.469 3.419 6.541v.817l.743.074V80.828Zm-178.222.298c-8.945 0-16.055 2.429-21.332 7.284-5.277 4.857-7.916 11.447-7.916 19.772s2.639 14.916 7.916 19.772c5.277 4.857 12.387 7.284 21.332 7.284s16.055-2.427 21.332-7.284c5.277-4.856 7.916-11.446 7.916-19.772s-2.639-14.914-7.916-19.772c-5.277-4.855-12.389-7.284-21.332-7.284Zm-.037 50.989c-5.253 0-9.403-2.143-12.45-6.43-3.048-4.285-4.571-10.12-4.571-17.504s1.523-13.218 4.571-17.504c3.048-4.285 7.197-6.43 12.45-6.43s9.414 2.144 12.487 6.43c3.072 4.287 4.608 10.121 4.608 17.504s-1.536 13.219-4.608 17.504c-3.073 4.287-7.235 6.43-12.487 6.43Zm116.993-49.949h.002-.002Zm0 0h-22.596v.743h.966c1.288 0 2.39.459 3.308 1.375.916.918 1.399 2.02 1.45 3.308v41.178c-.05 1.289-.533 2.392-1.45 3.308-.917.918-2.02 1.375-3.308 1.375h-.966v.743h38.502l3.419-15.163h-.743c-1.189 3.816-3.01 6.764-5.463 8.845-2.453 2.081-5.489 3.122-9.105 3.122h-9.737V87.591c0-1.288.47-2.39 1.412-3.308.941-.916 2.056-1.375 3.345-1.375h.892l.074-.743Zm-27.725 0h-15.535v.743h1.189a4.27 4.27 0 0 1 1.933.446c1.238.644 1.907 1.685 2.007 3.122v29.36c-.05 4.956-1.388 8.882-4.014 11.781-2.627 2.899-6.195 4.348-10.703 4.348s-8.053-1.536-10.629-4.609c-2.577-3.072-3.865-7.234-3.865-12.487V86.475c.049-1.041.446-1.896 1.189-2.565.743-.669 1.659-1.003 2.75-1.003h1.189v-.743h-21.407v.743h1.189a4.27 4.27 0 0 1 1.933.446c1.288.694 1.957 1.784 2.007 3.27v28.839c0 6.195 2.081 11.038 6.244 14.532 4.162 3.493 10.157 5.24 17.987 5.24 6.64 0 11.867-1.784 15.683-5.351 3.815-3.568 5.723-8.399 5.723-14.494V86.401c.049-.991.446-1.822 1.189-2.491.743-.669 1.635-1.003 2.676-1.003h1.263v-.743Zm-145.757 0h-25.495v.743h.966c1.288 0 2.39.459 3.308 1.375.916.918 1.399 2.02 1.449 3.308v41.253c-.05 1.289-.546 2.379-1.487 3.27-.942.892-2.032 1.338-3.27 1.338h-.966v.743h22.596v-.743h-.966c-1.289 0-2.404-.457-3.345-1.375-.942-.916-1.412-2.019-1.412-3.308V85.436h5.649c2.775 0 5.153.955 7.136 2.861 1.981 1.908 2.973 4.621 2.973 8.139 0 4.807-1.611 8.102-4.831 9.886-2.131 1.14-4.46 1.71-6.987 1.71h-1.486v.743c1.041.249 2.427 1.735 4.162 4.46.991 1.388 3.17 4.608 6.541 9.663 3.369 5.054 5.673 8.474 6.913 10.257 4.806 7.333 10.629 12.264 17.467 14.791 3.17 1.19 6.69 1.784 10.554 1.784 4.36 0 8.474-.966 12.339-2.899v-.743c-5.054-.05-9.688-1.14-13.899-3.271-1.983-.992-3.928-2.255-5.835-3.791a46.627 46.627 0 0 1-5.203-4.868 90.927 90.927 0 0 1-4.274-5.017 6495.538 6495.538 0 0 1-6.578-8.361 100.98 100.98 0 0 0-2.601-3.159 59.61 59.61 0 0 0-3.568-3.791c-1.363-1.338-3.06-2.552-5.092-3.642.346.05.669.074.966.074 3.468 0 6.552-1.301 9.254-3.902 2.7-2.602 4.051-5.984 4.051-10.146s-1.388-7.383-4.162-9.663c-3.519-2.923-8.474-4.386-14.866-4.386Zm386.267 36.867h.002-.002Zm-146.985 0h.002-.002Zm-46.475 0h.002-.002Z" fill="url(#h)"/><path d="M429.417 6.382c3.156 0 6.252.889 8.983 1.676l.112.032c2.088.591 4.06 1.149 5.407 1.149 1.307 0 2.442-.432 3.574-1.359a5.486 5.486 0 0 1 8.188 1.434l5.059 8.487a5.485 5.485 0 0 1-1.72 7.407c-3.336 2.171-6.12 4.464-8.51 7.009l-.045.047c-5.648 5.873-7.76 12.09-9.624 17.577-1.258 3.702-2.345 6.899-4.286 9.518-2.58 3.482-6.231 5.247-10.852 5.247-8.488 0-13.11-5.929-13.511-12.058-4.493 6.28-10.726 10.212-16.933 10.212-1.601 0-3.169-.26-4.661-.774-.206-.071-.407-.154-.609-.234-2.075 1.569-3.639 2.223-5.266 2.223-.84 0-1.65-.178-2.392-.522h-21.146a5.484 5.484 0 0 1-5.469-5.915 16.716 16.716 0 0 1-1.515 1.686c-3.677 3.571-8.931 5.381-15.616 5.381-3.798 0-6.361-.932-8.405-1.675-1.803-.642-3.105-1.106-5.227-1.106-1.728 0-5.147.97-7.135 1.84a5.486 5.486 0 0 1-7.2-2.767l-3.597-7.963a5.487 5.487 0 0 1 2.421-7.101 132.409 132.409 0 0 0 11.11-6.686c-3.71-2.042-6.175-6.015-6.175-10.681 0-5.749 2.897-11.476 7.947-15.714 4.777-4.008 11.065-6.307 17.25-6.307 6.352 0 11.844 1.581 15.884 4.572 4.044 2.994 6.446 7.27 6.872 12.164l18.663-14.494a5.487 5.487 0 0 1 3.365-1.153h20.546c.299 0 .594.024.883.071a16.98 16.98 0 0 1 3.48.822 17.034 17.034 0 0 1 4.772 2.615c.139-.13.284-.252.437-.368 3.924-2.969 10.332-4.298 14.941-4.298m0-3.12c-4.313 0-10.686 1.062-15.423 3.974a20.021 20.021 0 0 0-3.685-1.745 20.076 20.076 0 0 0-4.073-.969 8.604 8.604 0 0 0-1.332-.104h-20.546a8.655 8.655 0 0 0-5.282 1.81l-14.789 11.485c-1.335-3.621-3.715-6.79-6.969-9.199-4.582-3.393-10.717-5.186-17.744-5.186-6.908 0-13.928 2.565-19.259 7.038-5.76 4.833-9.064 11.433-9.064 18.108 0 3.935 1.458 7.631 3.977 10.403a126.855 126.855 0 0 1-7.255 4.204c-3.994 2.127-5.663 7.023-3.8 11.147l3.597 7.963a8.63 8.63 0 0 0 7.851 5.068 8.551 8.551 0 0 0 3.452-.725c1.94-.85 4.855-1.577 5.88-1.577 1.579 0 2.5.327 4.167.921 2.162.786 5.122 1.861 9.465 1.861 6.399 0 11.686-1.524 15.757-4.536a8.629 8.629 0 0 0 6.843 3.384h20.535a8.769 8.769 0 0 0 3.004.522c1.906 0 3.726-.587 5.752-1.879a17.47 17.47 0 0 0 4.784.663c5.46 0 10.897-2.456 15.495-6.887a15.607 15.607 0 0 0 2.959 4.095c3.058 3.034 7.204 4.637 11.99 4.637 5.586 0 10.207-2.252 13.364-6.512 2.232-3.012 3.447-6.588 4.734-10.373 1.845-5.431 3.752-11.046 8.918-16.416l.071-.075c2.216-2.36 4.812-4.496 7.936-6.529a8.588 8.588 0 0 0 2.7-11.628l-5.059-8.487a8.608 8.608 0 0 0-12.853-2.253c-.66.54-1.114.651-1.594.651-.914 0-2.849-.547-4.556-1.03l-.113-.032c-2.768-.797-6.231-1.793-9.833-1.793Z"/><path d="m460.741 17.801-5.059-8.487a5.485 5.485 0 0 0-8.188-1.434c-1.132.927-2.268 1.359-3.574 1.359-1.347 0-3.319-.558-5.407-1.149l-.112-.032c-2.732-.786-5.827-1.676-8.983-1.676-4.609 0-11.017 1.329-14.941 4.298a5.485 5.485 0 0 0-.437.368 17.048 17.048 0 0 0-4.772-2.615 16.98 16.98 0 0 0-3.48-.822 5.498 5.498 0 0 0-.883-.071h-20.546a5.49 5.49 0 0 0-3.365 1.153l-18.663 14.494c-.426-4.894-2.829-9.17-6.873-12.164-4.039-2.991-9.532-4.572-15.884-4.572-6.185 0-12.473 2.299-17.25 6.307-5.051 4.237-7.947 9.965-7.947 15.714 0 4.666 2.465 8.639 6.175 10.681a132.696 132.696 0 0 1-11.11 6.686 5.487 5.487 0 0 0-2.421 7.101l3.597 7.963a5.487 5.487 0 0 0 7.2 2.767c1.987-.87 5.406-1.84 7.135-1.84 2.122 0 3.425.464 5.227 1.106 2.043.743 4.607 1.675 8.405 1.675 6.685 0 11.938-1.81 15.616-5.381a16.596 16.596 0 0 0 1.515-1.686 5.485 5.485 0 0 0 5.469 5.915h21.146a5.664 5.664 0 0 0 2.392.522c1.627 0 3.191-.654 5.266-2.223.202.08.403.163.609.234 1.492.513 3.06.774 4.661.774 6.206 0 12.439-3.932 16.933-10.212.402 6.129 5.023 12.058 13.511 12.058 4.621 0 8.272-1.765 10.852-5.247 1.941-2.62 3.028-5.817 4.286-9.518 1.864-5.486 3.976-11.704 9.624-17.577l.045-.047c2.39-2.545 5.174-4.838 8.51-7.009a5.486 5.486 0 0 0 1.72-7.407Z" fill="url(#i)"/><path d="M429.417 8.531c2.858 0 5.797.846 8.399 1.594l.112.032c2.235.632 4.346 1.23 5.992 1.23 1.805 0 3.42-.603 4.936-1.845a3.347 3.347 0 0 1 2.69-.705 3.334 3.334 0 0 1 2.29 1.578l5.059 8.487a3.328 3.328 0 0 1-1.046 4.506c-3.482 2.266-6.395 4.667-8.903 7.337l-.029.031c-5.98 6.218-8.174 12.677-10.11 18.376-1.2 3.531-2.236 6.58-3.978 8.93-2.183 2.946-5.168 4.377-9.126 4.377-7.397 0-11.039-5.047-11.367-10.049l-.393-6.001-3.499 4.891c-4.172 5.832-9.849 9.314-15.185 9.314-1.363 0-2.696-.221-3.962-.657a9.616 9.616 0 0 1-.407-.156l-.107-.043-1.125-.447-.966.73c-2.084 1.576-3.176 1.788-3.97 1.788a3.512 3.512 0 0 1-1.488-.323l-.43-.2h-21.621a3.341 3.341 0 0 1-3.327-3.598l.557-7.1-4.391 5.607c-.406.518-.85 1.012-1.321 1.469-3.262 3.168-8.012 4.774-14.119 4.774-3.419 0-5.677-.821-7.683-1.551-1.854-.66-3.455-1.231-5.949-1.231-2.09 0-5.778 1.049-7.997 2.021a3.31 3.31 0 0 1-1.336.282 3.346 3.346 0 0 1-3.044-1.964l-3.597-7.963a3.344 3.344 0 0 1 1.472-4.319 134.52 134.52 0 0 0 11.299-6.799l2.924-1.967-3.087-1.699c-3.17-1.745-5.062-5.034-5.062-8.798 0-5.112 2.617-10.239 7.18-14.067 4.397-3.689 10.181-5.804 15.869-5.804 5.888 0 10.938 1.435 14.605 4.15 3.556 2.633 5.634 6.307 6.011 10.624l.343 3.931 3.117-2.42L382.31 10.39a3.355 3.355 0 0 1 2.047-.701h20.546c.179 0 .36.015.537.043l.035.006.035.004c1.065.138 2.087.379 3.04.717a14.95 14.95 0 0 1 4.172 2.287l1.447 1.122 1.337-1.25c.084-.079.174-.154.266-.224 3.508-2.654 9.532-3.863 13.644-3.863m.001-2.149c-4.609 0-11.017 1.329-14.941 4.298a5.485 5.485 0 0 0-.437.368 17.048 17.048 0 0 0-4.772-2.615 16.915 16.915 0 0 0-3.48-.822 5.498 5.498 0 0 0-.883-.071h-20.546a5.49 5.49 0 0 0-3.365 1.153L362.33 23.187c-.426-4.894-2.829-9.17-6.872-12.164-4.039-2.991-9.532-4.572-15.884-4.572-6.185 0-12.473 2.299-17.25 6.307-5.051 4.237-7.947 9.965-7.947 15.714 0 4.666 2.465 8.639 6.175 10.681a132.409 132.409 0 0 1-11.11 6.686 5.487 5.487 0 0 0-2.421 7.101l3.597 7.963a5.487 5.487 0 0 0 7.2 2.767c1.987-.87 5.406-1.84 7.135-1.84 2.122 0 3.425.464 5.227 1.106 2.043.743 4.607 1.675 8.405 1.675 6.685 0 11.938-1.81 15.616-5.381a16.596 16.596 0 0 0 1.515-1.686 5.485 5.485 0 0 0 5.469 5.915h21.146a5.664 5.664 0 0 0 2.392.522c1.627 0 3.191-.654 5.266-2.223.202.08.403.163.609.234a14.3 14.3 0 0 0 4.661.773c6.206 0 12.439-3.932 16.933-10.212.402 6.129 5.023 12.058 13.511 12.058 4.621 0 8.272-1.765 10.852-5.247 1.941-2.62 3.028-5.817 4.286-9.518 1.864-5.486 3.976-11.704 9.624-17.577l.045-.047c2.39-2.545 5.174-4.838 8.51-7.009a5.486 5.486 0 0 0 1.72-7.407l-5.059-8.487a5.485 5.485 0 0 0-8.188-1.434c-1.132.927-2.268 1.359-3.574 1.359-1.347 0-3.319-.558-5.407-1.149l-.112-.032c-2.732-.786-5.827-1.675-8.983-1.675Z" fill="url(#j)"/><path d="m412.898 40.66-2.82-.938c-.014-.004-.029-.009-.043-.011a.258.258 0 0 0-.213.082.388.388 0 0 0-.1.299l.012.134c.031.366.065.735.077 1.103.015.452.01.888.003 1.323-.003.146.074.275.189.313l1.851.619c-.205.497-.423.983-.649 1.462l2.545.886c.433-.955.833-1.941 1.195-2.956a35.994 35.994 0 0 0 2.011-9.524h-2.783a30.002 30.002 0 0 1-1.273 7.209Zm-27.811-6.65 2.811.937a.248.248 0 0 0 .257-.074.385.385 0 0 0 .101-.299 27.414 27.414 0 0 1-.102-1.374c-.012-.405-.005-.795 0-1.187.003-.148-.074-.275-.189-.313l-1.834-.612c3.526-8.549 10.24-14.397 16.728-14.397a9.95 9.95 0 0 1 2.187.249l-1.373 4.167a.371.371 0 0 0 .046.335.235.235 0 0 0 .17.105.216.216 0 0 0 .1-.009c.352-.113.723-.234 1.085-.309a7.114 7.114 0 0 1 1.092-.152c.111-.008.211-.096.251-.221l1.001-3.038c.432.228.845.497 1.245.789.426-.385.855-.759 1.278-1.126.366-.317.732-.634 1.103-.966a3.11 3.11 0 0 1 .527-.374c-1.218-1.136-2.603-1.997-4.131-2.538a11.492 11.492 0 0 0-2.536-.576l.003-.004h-20.546l-29.063 22.571-2.229 6.496h-6.817c-.233 4.23-4.056 6.069-6.037 6.069-1.648 0-2.592-.52-3.506-1.02-1-.549-2.027-1.111-4.151-1.111h-2.982l2.172-.699c15.995-5.163 25.17-12.654 25.17-20.554 0-7.801-6.807-12.841-17.339-12.841-10.316 0-19.711 7.885-19.711 16.534 0 3.807 2.785 6.666 6.486 6.666 3.33 0 6.774-2.468 6.774-6.607 0-.649-.178-1.576-.445-2.295-.283-.822-.008-1.969.727-2.989.851-1.201 2.096-1.916 3.326-1.916 2.474 0 3.724 1.387 3.724 4.115 0 8.008-18.423 19.902-28.434 25.234l3.597 7.963c2.236-.979 6.473-2.301 9.335-2.301 3.079 0 5.116.729 7.086 1.43 1.937.704 3.767 1.351 6.546 1.351 10.469 0 15.673-5.066 15.924-15.449.006-.124.014-.239.014-.359 0-.017.003-.169.003-.36h17.221l-1.416 4.054h-5.338l-3.807 10.963h21.359c.015-.152.04-.304.086-.455l.189-.605c.134-.422.267-.846.39-1.269.504-1.747 1.281-3.278 2.187-4.689-2.048-4.668-2.154-10.868-.309-16.941Zm-10.752 1.728h-8.708l12.356-10.642-3.648 10.642Zm76.634-23.614c-2.111 1.728-4.482 2.6-7.05 2.6-2.144 0-4.514-.681-7.024-1.391-2.521-.725-5.121-1.465-7.478-1.465-3.716 0-8.878 1.104-11.631 3.187l-5.382 16.433h10.597l1.751-5.533.097-.077c1.076-.82 2.355-1.155 4.396-1.155.805 0 1.465.238 2.164.501.79.288 1.607.584 2.766.584 2.09 0 4.122-.467 5.866-1.352l.381.608c-16.867 12.97-22.777 18.255-22.777 26.613 0 3.707 2.499 7.445 8.057 7.445 6.188 0 7.683-4.391 9.944-11.045 1.949-5.739 4.377-12.869 10.864-19.614 2.67-2.844 5.783-5.422 9.517-7.852l-5.059-8.487Zm-49.865 24.71c.235.381.376.825.376 1.305a2.499 2.499 0 0 1-2.981 2.45c-1.574 2.535-7.647 12.31-8.604 13.709-1.101 1.61-4.807 4.523-5.284 4.163-.477-.361.816-3.941 1.947-5.715 1.299-2.304 8.391-11.069 10.264-13.37a2.477 2.477 0 0 1-.34-1.237 2.5 2.5 0 0 1 2.499-2.5c.142 0 .279.019.414.042 1.478-2.382 7.692-12.384 8.661-13.801 1.101-1.61 4.807-4.523 5.284-4.162.477.36-.816 3.94-1.947 5.714-1.305 2.314-8.455 11.148-10.29 13.402Z" fill="url(#k)"/><path d="M429.417 12.595c2.285 0 4.937.763 7.28 1.438l.124.035c2.514.711 4.889 1.383 7.098 1.383 2.475 0 4.773-.757 6.844-2.252l4.285 7.187c-3.503 2.334-6.474 4.818-9.061 7.573-6.608 6.871-9.059 14.086-11.029 19.884-2.236 6.58-3.586 10.552-9.256 10.552-5.064 0-7.33-3.374-7.33-6.718 0-8.024 5.83-13.224 22.493-26.037a.726.726 0 0 0 .173-.962l-.381-.608a.726.726 0 0 0-.945-.262c-1.64.833-3.555 1.274-5.537 1.274-1.037 0-1.756-.262-2.51-.538-.682-.257-1.454-.548-2.42-.548-2.22 0-3.621.378-4.849 1.313l-.097.077a.725.725 0 0 0-.24.349l-1.591 5.026h-9.062l4.997-15.259c2.68-1.91 7.527-2.908 11.013-2.908m-89.842.068c10.091 0 16.612 4.755 16.612 12.114 0 7.563-8.991 14.802-24.666 19.862l-2.172.699a.726.726 0 0 0 .223 1.419h2.982c1.941 0 2.844.496 3.813 1.028.946.517 2.017 1.103 3.844 1.103 2.119 0 6.084-1.791 6.696-6.069h6.159c.31 0 .587-.197.687-.491l2.159-6.291 28.695-22.285h20.219c.84.097 1.637.278 2.369.538a10.898 10.898 0 0 1 3.22 1.813c-.286.254-.571.5-.854.746l-.097.084c-.263.227-.557.483-.858.75a9.842 9.842 0 0 0-.85-.507.724.724 0 0 0-1.029.416l-.918 2.786a7.53 7.53 0 0 0-1.201.215l1.129-3.426a.728.728 0 0 0-.531-.937 10.701 10.701 0 0 0-2.347-.266c-6.745 0-13.738 5.966-17.4 14.847a.724.724 0 0 0 .442.966l1.523.508c-.004.303-.005.617.004.947.012.278.031.552.052.809l-2.162-.721a.724.724 0 0 0-.564.044.729.729 0 0 0-.362.434c-1.855 6.107-1.782 12.307.187 17.087-.95 1.534-1.628 3.027-2.067 4.553-.123.422-.257.851-.385 1.254l-.172.55h-19.747l3.302-9.509h4.821a.726.726 0 0 0 .686-.487l1.416-4.054a.726.726 0 0 0-.686-.966h-17.221a.727.727 0 0 0-.727.727l-.002.32v.04c0 .085-.005.167-.01.253l-.004.069v.02c-.122 5.042-1.4 8.678-3.91 11.114-2.512 2.44-6.205 3.625-11.288 3.625-2.703 0-4.449-.635-6.298-1.307a.195.195 0 0 1-.022-.008c-2.024-.721-4.116-1.466-7.312-1.466-2.816 0-6.655 1.161-8.964 2.085l-3.027-6.701c2.973-1.611 10.663-5.96 17.481-11.363 7.125-5.646 10.738-10.42 10.738-14.19 0-3.122-1.581-4.842-4.45-4.842-1.468 0-2.933.831-3.916 2.218-.881 1.224-1.19 2.589-.819 3.667.235.632.399 1.471.399 2.041 0 3.681-3.075 5.88-6.047 5.88-3.283 0-5.759-2.553-5.759-5.939 0-8.273 9.049-15.807 18.985-15.807m26.054 23.803h8.708a.727.727 0 0 0 .688-.491l3.648-10.642a.728.728 0 0 0-1.161-.787l-12.356 10.642a.727.727 0 0 0 .474 1.278m47.645-18.054h.002-.002m-.665.339c-.279 1.104-1.046 3.067-1.827 4.292a.38.38 0 0 0-.02.034c-1.003 1.779-5.937 8.037-10.22 13.301a.727.727 0 0 0-.055.84c.178.289.269.6.269.923a1.774 1.774 0 0 1-2.114 1.737.725.725 0 0 0-.757.33c-1.263 2.035-7.614 12.261-8.587 13.682-.799 1.168-2.83 2.83-3.952 3.541.279-1.104 1.046-3.067 1.827-4.292l.02-.034c1.297-2.3 8.72-11.456 10.195-13.269a.729.729 0 0 0 .067-.821 1.738 1.738 0 0 1-.243-.875c0-.978.795-1.773 1.772-1.773.092 0 .195.015.293.032a.727.727 0 0 0 .739-.334c1.272-2.049 7.665-12.342 8.643-13.774.799-1.168 2.83-2.83 3.952-3.541m3.555 15.43a35.266 35.266 0 0 1-1.907 8.553 37.742 37.742 0 0 1-.904 2.294l-1.157-.403c.117-.263.226-.516.327-.762a.729.729 0 0 0-.442-.966l-1.539-.515a22.9 22.9 0 0 0-.007-1.074 14.922 14.922 0 0 0-.04-.679l2.173.723a.722.722 0 0 0 .563-.044.724.724 0 0 0 .361-.434 30.87 30.87 0 0 0 1.261-6.693h1.311m13.252-22.31c-3.716 0-8.878 1.104-11.631 3.187l-5.382 16.433h10.597l1.751-5.533.097-.077c1.076-.82 2.355-1.155 4.396-1.155.805 0 1.465.238 2.164.501.79.288 1.607.584 2.766.584 2.09 0 4.123-.467 5.866-1.352l.381.608c-16.867 12.97-22.777 18.255-22.777 26.613 0 3.707 2.499 7.445 8.057 7.445 6.188 0 7.683-4.391 9.944-11.045 1.949-5.739 4.377-12.869 10.864-19.614 2.67-2.844 5.783-5.422 9.517-7.852l-5.059-8.487c-2.111 1.728-4.482 2.6-7.05 2.6-2.144 0-4.514-.681-7.024-1.391-2.521-.725-5.121-1.465-7.478-1.465Zm-89.843.067c-10.316 0-19.711 7.885-19.711 16.534 0 3.807 2.785 6.666 6.486 6.666 3.33 0 6.774-2.468 6.774-6.607 0-.649-.178-1.576-.445-2.295-.283-.822-.008-1.969.727-2.989.851-1.201 2.096-1.916 3.326-1.916 2.474 0 3.724 1.387 3.724 4.115 0 8.008-18.423 19.902-28.434 25.234l3.597 7.963c2.236-.979 6.473-2.301 9.335-2.301 3.079 0 5.116.729 7.086 1.43 1.937.704 3.767 1.351 6.546 1.351 10.469 0 15.673-5.066 15.924-15.449.006-.124.014-.239.014-.359 0-.017.003-.169.003-.36h17.221l-1.416 4.054h-5.338l-3.807 10.963h21.359c.015-.152.04-.304.086-.455l.189-.605c.134-.422.267-.846.39-1.269.504-1.747 1.281-3.278 2.187-4.689-2.048-4.668-2.154-10.868-.309-16.941l2.811.937a.196.196 0 0 0 .046.01l.026.002a.254.254 0 0 0 .185-.085.385.385 0 0 0 .101-.299 27.414 27.414 0 0 1-.102-1.374c-.012-.405-.005-.795 0-1.187.003-.148-.074-.275-.189-.313l-1.834-.612c3.526-8.549 10.24-14.397 16.728-14.397a9.95 9.95 0 0 1 2.187.249l-1.373 4.167a.371.371 0 0 0 .046.335.235.235 0 0 0 .17.105l.032.002a.21.21 0 0 0 .068-.011c.352-.113.723-.234 1.085-.309a7.114 7.114 0 0 1 1.092-.152c.111-.008.211-.096.251-.221l1.001-3.038c.432.228.845.497 1.245.789.426-.385.855-.759 1.278-1.126.366-.317.732-.634 1.103-.966a3.11 3.11 0 0 1 .527-.374c-1.218-1.136-2.603-1.997-4.131-2.538a11.492 11.492 0 0 0-2.536-.576l.003-.004h-20.546l-29.063 22.571-2.229 6.496h-6.817c-.233 4.23-4.056 6.069-6.037 6.069-1.648 0-2.592-.52-3.506-1.02-1-.549-2.027-1.111-4.151-1.111h-2.982l2.172-.699c15.995-5.163 25.17-12.654 25.17-20.554 0-7.801-6.807-12.841-17.339-12.841Zm26.053 23.803 12.356-10.642-3.648 10.642h-8.708Zm47.6-18.051c-.782 0-4.133 2.675-5.171 4.193-.969 1.417-7.183 11.419-8.661 13.801a2.462 2.462 0 0 0-.414-.042 2.5 2.5 0 0 0-2.499 2.5c0 .453.13.871.34 1.237-1.873 2.301-8.965 11.066-10.264 13.37-1.131 1.774-2.424 5.354-1.947 5.715a.18.18 0 0 0 .113.031c.781 0 4.134-2.676 5.172-4.193.957-1.399 7.031-11.174 8.604-13.709a2.5 2.5 0 0 0 2.981-2.45c0-.48-.142-.924-.376-1.305 1.834-2.254 8.985-11.088 10.29-13.402 1.131-1.774 2.424-5.354 1.947-5.714a.18.18 0 0 0-.113-.031Zm3.727 15.764h.002-.002Zm0 0h-2.783a30.002 30.002 0 0 1-1.273 7.209l-2.82-.938c-.014-.004-.029-.009-.043-.011l-.026-.001a.261.261 0 0 0-.188.084.388.388 0 0 0-.1.299l.012.134c.031.366.065.735.077 1.103.015.452.01.888.003 1.323-.003.146.074.275.189.313l1.851.619c-.205.497-.423.983-.649 1.462l2.545.886c.433-.955.833-1.941 1.195-2.956a35.954 35.954 0 0 0 2.011-9.524Z" fill="url(#l)"/></svg>